<svg viewBox="0 0 805.3 530" xmlns="http://www.w3.org/2000/svg"><path d="m316.9 32.7 1.2.4v.1l-.2.2v.2l-.1.2v.2h-.2v.1l-.2.2-.2.2-.2.2v.2h-.1l-.2.1-.2.2v.2h-.2l-.2.2-.1.2h-.2l-.2.1h-.2l-.2.2h-.1l-.2.2h-.2l-.2.2h-.2-.1-.2-.2l-.2.2h-.2-.1-.2-.2-.2-.2-.1-.2-.2-.2v-.2h-.2-.1-.2l-.2-.2h-.2-.2v-.2h-.1-.2v-.2h-.2l-.2-.1-.2-.2v-.2h-.1v-.2-.2h-.2v-.1-.2h-.2v-.2-.2-.2l-.2-.1v-.2-.2-.2-.2-.1-.2-.2-.2-.2-.1-.2l.2-.2v-.2-.2-.1l.2-.2v-.2-.2l.2-.2v-.1-.2l.1-.2v-.2l.2-.2v-.1-.2h.2v-.2l.2-.2v-.2h.2v-.1l.1-.2v-.2h.2v-.2l.2-.2h.2v-.1l.2-.2h.1v-.2h.2l.2-.2v-.2h.2l.2-.1h.1v-.2h.2.2l.2-.2h.2l.1-.2h.2l.2-.2h.2.2.1l.2-.1h.2.2.2.1.2.2.2.2.1.2.2.2.2l.1.1h.2.2l.2.2h.2l.1.2h.2v.2l.2.2.2.1.2.2v.2h.1v.2.2l.2.1v.2.2.2.2.1.2l-1.4.2v-.2-.2-.1-.2l-.2-.2v-.2l-.2-.2v-.1h-.2v-.2h-.1v-.2h-.2l-.2-.2h-.2-.2l-.1-.2h-.2-.2-.2-.2-.1-.2l-.2.2h-.2-.2-.1-.2v.2h-.2-.2l-.2.2h-.1l-.2.2h-.2v.1l-.2.2h-.2v.2h-.1l-.2.2v.2h-.2v.1l-.2.2v.2h-.2v.2l-.1.2v.1l-.2.2v.2l-.2.2v.2.1l-.2.2v.2l-.2.2v.2.1.2.2.2h-.1v.2.1.2.2.2.2.1.2.2.2l.1.2v.1.2h.2v.2l.2.2.2.2.2.1h.1l.2.2h.2.2v.2h.2.1.2.2.2.2.1.2.2.2l.2-.2h.1.2l.2-.2h.2v-.1h.2.1v-.2h.2l.2-.2v-.2h.2l.2-.2.1-.1v-.2h.2v-.2l.2-.2v-.2l.2-.1.2-.2z"/><path d="m319 36.5 2.7-10.4h6.3l.2.2h.4l.2.2.2.2.2.2.2.2v.2l.2.2v1.6h-.2v.4l-.2.2v.2l-.2.2v.2h-.2v.2l-.2.2-.2.2-.2.2h-.2v.2h-.2l-.2.2-.2.2h-.4v.2h-.5l-.2.2h-.7l.2.2.2.2h.2v.2h.2v.2h.2v.2l.2.2v.2l.2.2v.2l.2.2v.2l1.1 2.9h-1.8l-.7-2.2v-.2l-.2-.2v-.2l-.2-.2v-.4l-.2-.2v-.2h-.2v-.4h-.2v-.2h-.2v-.2l-.2-.2h-.2l-.2-.2h-2.5l-1.3 4.7h-1.3zm2.9-6h4.3v-.2h.5l.2-.2h.2v-.2h.2l.2-.2v-.2l.2-.2.2-.2v-.4h.2v-1.1h-.2v-.2l-.2-.2h-.2v-.2h-.4l-.2-.2h-4.1l-.9 3.4"/><path d="m330.5 31.3v-.4l.2-.2v-.4l.2-.2v-.2l.2-.2v-.2l.2-.2v-.2l.2-.2v-.2h.2v-.2l.2-.2v-.2h.2v-.2l.2-.2.2-.2.2-.2.2-.2.2-.2h.2v-.2h.2l.2-.2.2-.2h.2l.2-.2.2-.2h.4v-.2h.4l.2-.2h.4l.2-.2h2.7l.2.2h.4v.2h.4v.2h.2l.2.2.2.2h.2v.2l.2.2.2.2v.2l.2.2v.2l.2.2v.4l.2.2v1.8h-.2v.9l-.2.2v.2l-.2.2v.5h-.2v.2l-.2.2v.4h-.2v.2l-.2.2v.2h-.2v.2l-.2.2v.2h-.2v.2l-.2.2-.2.2-.2.2h-.2v.2l-.2.2h-.2v.2h-.2l-.2.2h-.2v.2h-.2l-.2.2h-.2l-.2.2h-.4l-.2.2h-.4l-.2.2h-.5l-.2.2h-1.4l-.2-.2h-.7l-.2-.2h-.2v-.2h-.4v-.2h-.2l-.2-.2h-.2v-.2h-.2v-.2l-.2-.2v-.2h-.2v-.2l-.2-.2v-.4l-.2-.2v-.9h-.2v-.7h.2v-1.1l.2-.2zm1.5.1-.2.2v.7l-.2.2v.7h.2v.7h.2v.2l.2.2v.2h.2v.2h.2v.2h.2v.2h.2l.2.2h.2l.2.2h2l.2-.2h.4v-.2h.4l.2-.2h.2l.2-.2h.2v-.2l.2-.2h.2l.2-.2.2-.2v-.2h.2v-.2l.2-.2.2-.2v-.2h.2v-.4l.2-.2v-.2h.2v-.4l.2-.2v-.5h.2v-.7l.2-.2v-1.4h-.2v-.5h-.2v-.2l-.2-.2v-.2l-.2-.2-.2-.2h-.2v-.2h-.4v-.2h-.5l-.2-.2h-1.1l-.2.2h-.5l-.2.2h-.4v.2h-.4l-.2.2-.2.2h-.2v.2h-.2l-.2.2-.2.2-.2.2-.2.2v.2h-.2v.2l-.2.2v.2l-.2.2v.2l-.2.2v.2l-.2.2v.4l-.2.2v.5"/><path d="m349.3 35.4.2.2.2.2h.2l.2.2.2.2h.2l.2.2h.2l-.7.9h-.4v-.2h-.2l-.2-.2h-.2v-.2h-.2l-.2-.2h-.2v-.2h-.2v-.2h-.2v-.2l-.2.2h-.4l-.2.2h-.4l-.2.2h-.5l-.2.2h-1.6v-.2h-.7l-.2-.2h-.2l-.2-.2h-.2v-.2h-.4v-.2h-.2v-.2h-.2v-.2l-.2-.2-.2-.2v-.2l-.2-.2v-.4l-.2-.2v-.7h-.2v-1.1h.2v-.9l.2-.2v-.5l.2-.2v-.2l.2-.2v-.4h.2v-.2l.2-.2v-.2l.2-.2v-.2l.2-.2.2-.2v-.2l.2-.2h.2v-.2l.2-.2v-.2h.2l.2-.2.2-.2.2-.2h.2v-.2h.2l.2-.2.2-.2h.4v-.2h.4l.2-.2h.2l.2-.2h.5v-.2h2.7v.2h.5v.2h.2l.2.2h.2l.2.2.2.2.2.2.2.2.2.2v.2l.2.2v.2l.2.2v.5l.2.2v1.6h-.2v.7l-.2.2v.4l-.2.2v.4l-.2.2v.2l-.2.2v.2l-.2.2v.2l-.2.2v.2h-.2v.2l-.2.2v.2h-.2v.2l-.2.2h-.2v.2l-.2.2h-.2v.2h-.2l-.2.2v.2zm-2.7-1.8h.4v.2h.4l.2.2h.2v.2h.4v.2h.2v.2h.2l.2-.2h.2v-.2h.2v-.2h.2v-.2l.2-.2.2-.2v-.2h.2v-.2l.2-.2v-.2h.2v-.4l.2-.2v-.4l.2-.2v-.2l.2-.2v-.9h.2v-1.3l-.2-.2v-.5h-.2v-.2l-.2-.2v-.2h-.2v-.2l-.2-.2h-.2l-.2-.2h-.2v-.2h-.5l-.2-.2h-1.1l-.2.2h-.5l-.2.2h-.4l-.2.2h-.2l-.2.2h-.2v.2h-.2l-.2.2-.2.2-.2.2-.2.2-.2.2v.2h-.2v.2l-.2.2-.2.2v.4l-.2.2v.2l-.2.2v.4l-.2.2v.4l-.2.2v.7l-.2.2v.9h.2v.7h.2v.4h.2v.2l.2.2.2.2.2.2h.2l.2.2h.4v.2h2l.2-.2h.4l-.2-.2h-.2v-.2h-.2l-.2-.2h-.4l-.2-.2.5-.9"/><path d="m362 26h1.5l-1.6 6-.2.2v.1.2l-.2.2v.2.2.1l-.2.2v.2l-.2.2v.2l-.1.1v.2h-.2v.2l-.2.2v.2h-.2v.1l-.2.2h-.1v.2h-.2l-.2.2v.2h-.2l-.2.1h-.1v.2h-.2-.2l-.2.2h-.2-.1l-.2.2h-.2-.2-.2l-.1.2h-.2-.2-.2-.2-.1-.2-.2-.2-.2-.1l-.2-.2h-.2-.2-.2-.1v-.2h-.2-.2v-.2h-.2l-.2-.2-.1-.1-.2-.2-.2-.2v-.2-.2l-.2-.1v-.2-.2-.2-.2-.1-.2-.2-.2-.2-.1l.2-.2v-.2-.2-.2l.2-.1v-.2l1.6-6h1.3l-1.7 6v.2.1.2l-.1.2v.2.2.1.2.2.2.2.1.2.2h.1v.2l.2.2.2.1h.2v.2h.2.1l.2.2h.2.2.2.1.2.2.2.2.1l.2-.2h.2.2.2l.1-.2h.2l.2-.1.2-.2h.2v-.2h.1v-.2h.2v-.2-.1h.2v-.2l.2-.2v-.2l.2-.2v-.1-.2l.1-.2v-.2-.2l.2-.1v-.2z"/><path d="m363.1 36.5 2.9-10.5h1.3l-2.7 10.5z"/><path d="m367.4 33.1h1.3v1h.2v.2.2h.2v.2h.1v.2h.2v.1h.2.2l.2.2h.1.2v.2h.2.2.2.1.2.2.2.2.1l.2-.2h.2.2.2l.1-.2h.2.2v-.1h.2l.2-.2.1-.2.2-.2.2-.2v-.1l.2-.2v-.2-.2-.2-.1-.2-.2h-.2v-.2l-.2-.2h-.2l-.1-.1h-.2l-.2-.2h-.2-.2l-.1-.2h-.2-.2-.2l-.2-.2h-.1-.2l-.2-.2h-.2-.2-.1l-.2-.1h-.2-.2v-.2h-.2-.1l-.2-.2-.2-.2h-.2v-.2l-.2-.1-.1-.2v-.2l-.2-.2v-.2-.1-.2-.2-.2-.2h.2v-.1-.2-.2h.1v-.2l.2-.2v-.1h.2v-.2l.2-.2v-.2h.2l.1-.2.2-.1h.2v-.2h.2l.2-.2h.1l.2-.2h.2l.2-.2h.2.1l.2-.1h.2.2.2.1.2.2.2.2.1.2.2.2.2.1.2v.1h.2.2l.2.2h.1.2v.2h.2v.2h.2v.2h.2v.1h.1v.2.2.2h.2v.2.1.2.2.2.2.1.2l-1.4.2v-.2-.2-.1-.2-.2-.2-.2h-.2v-.1l-.2-.2-.2-.2h-.1l-.2-.2h-.2-.2-.2-.1l-.2-.2h-.2-.2-.2l-.1.2h-.2-.2-.2-.2l-.1.2h-.2-.2l-.2.2-.2.2h-.1v.1h-.2v.2l-.2.2-.2.2v.2.1.2.2.2.2h.2v.1h.2l.2.2h.1.2v.2h.2.2l.2.2h.1.2.2.2l.2.2h.1.2l.2.1h.2.2.1v.2h.2.2.2v.2h.2l.1.2h.2l.2.2h.2v.1h.2v.2l.1.2v.2l.2.2v.1.2.2.2.2.1.2l-.2.2v.2.2l-.1.1v.2l-.2.2v.2h-.2v.2l-.2.1-.2.2h-.1v.2l-.2.2h-.2v.2h-.2l-.2.1h-.1l-.2.2h-.2l-.2.2h-.2-.1l-.2.2h-.2-.2-.2l-.1.2h-.2-.2-.2-.2-.1-.2-.2-.2-.2-.1l-.2-.2h-.2-.2-.2l-.1-.2h-.2-.2l-.2-.2h-.2v-.2h-.1l-.2-.1-.2-.2-.2-.2v-.2l-.2-.2v-.1-.2l-.1-.2v-.2-.2-.1-.2-.2-.2l.1-.2z"/><path d="m384.9 36.5 2.9-10.4h5.4l.2.2h.4v.2h.4v.2h.2v.2h.2v.2h.2v.2l.2.2.2.2v.4l.2.2v.7h.2v.9h-.2v1.1l-.2.2v.4l-.2.2v.5l-.2.2v.2l-.2.2v.2l-.2.2v.4h-.2v.2l-.2.2v.2l-.2.2-.2.2v.2h-.2v.2l-.2.2h-.2v.2h-.2v.2l-.2.2h-.2l-.2.2-.2.2h-.2v.2h-.2l-.2.2h-.4l-.2.2h-.2l-.2.2h-.7l-.2.2h-4.9zm1.6-1.3h3.4l.2-.2h.5l.2-.2h.4v-.2h.2l.2-.2.2-.2h.2v-.2h.2v-.2l.2-.2h.2v-.2l.2-.2v-.2h.2v-.4l.2-.2v-.2l.2-.2v-.2l.2-.2v-.4l.2-.2v-.5l.2-.2v-.9l.2-.2v-.4l-.2-.2v-.7h-.2v-.4h-.2v-.2h-.2v-.2h-.2v-.2h-.4v-.2h-1.4l-.2-.2h-2.3l-2.2 8.1"/><path d="m395.5 36.5 2.7-10.5h7.8l-.4 1.1h-6.3l-.7 3.3h5.7l-.3 1.2h-5.8l-1.1 3.6h6.5l-.3 1.3z"/><path d="m423.1 26h1.4l-1.6 6v.2l-.2.1v.2.2l-.2.2v.2.1l-.2.2v.2l-.1.2v.2l-.2.1v.2l-.2.2v.2l-.2.2-.2.1-.1.2-.2.2h-.2v.2l-.2.2h-.2l-.1.1-.2.2h-.2-.2v.2h-.2-.1-.2l-.2.2h-.2-.2-.1l-.2.2h-.2-.2-.2-.1-.2-.2-.2-.2-.1-.2l-.2-.2h-.2-.2-.1l-.2-.2h-.2l-.2-.2h-.2l-.1-.2-.2-.1-.2-.2v-.2l-.2-.2v-.2-.1h-.2v-.2-.2-.2-.2-.1-.2-.2-.2-.2l.2-.1v-.2-.2-.2l.2-.2v-.1-.2l1.6-6h1.5l-1.7 6-.1.2v.1.2.2.2l-.2.2v.1.2.2.2.2.1.2l.2.2v.2h.1v.2h.2v.1h.2l.2.2h.2.1v.2h.2.2.2.2.1.2.2.2.2l.1-.2h.2.2.2l.2-.2h.1l.2-.1h.2v-.2h.2v-.2h.2v-.2h.1v-.2l.2-.1v-.2l.2-.2.2-.2v-.2-.1l.2-.2v-.2-.2l.1-.2v-.1-.2z"/><path d="m424 36.5 2.7-10.4h5.4v.2h.4l.2.2h.2v.2h.2l.2.2v.2h.2v.4l.2.2v1.3h-.2v.4l-.2.2-.2.2v.2l-.2.2v.2h-.2l-.2.2-.2.2h-.2v.2h-.2l-.2.2h-.2l-.2.2h.4v.2h.2l.2.2h.2v.2h.2v.2l.2.2v.4l.2.2v.7l-.2.2v.5h-.2v.4l-.2.2v.2h-.2v.2l-.2.2-.2.2v.2h-.2l-.2.2v.2h-.2l-.2.2h-.2l-.2.2-.2.2h-.5l-.2.2h-.5l-.2.2h-5zm2.8-6.1h3.6l.2-.2h.2l.2-.2h.4v-.2h.2v-.2l.2-.2.2-.2v-.4l.2-.2v-.9h-.2v-.2l-.2-.2h-.2v-.2h-1.3l-.2-.2h-2.3l-.9 3.2zm-1.2 4.8h3.8l.2-.2h.4v-.2h.4v-.2h.2l.2-.2v-.2h.2v-.2l.2-.2.2-.2v-.5l.2-.2v-.4l-.2-.2v-.2l-.2-.2-.2-.2-.2-.2h-.4v-.2h-3.6l-1.1 3.6"/><path d="m434 36.5 2.7-10.5h1.5l-2.9 10.5z"/><path d="m446.3 32.7 1.2.4v.1l-.1.2v.2l-.2.2v.2h-.2v.1l-.2.2v.2h-.2l-.1.2v.2h-.2v.1h-.2l-.2.2v.2h-.2l-.1.2-.2.2h-.2l-.2.1h-.2v.2h-.1-.2l-.2.2h-.2l-.2.2h-.1-.2-.2-.2l-.2.2h-.1-.2-.2-.2-.2-.1-.2-.2-.2l-.2-.2h-.1-.2-.2l-.2-.2h-.2-.1v-.2h-.2l-.2-.2h-.2v-.1h-.2v-.2h-.1v-.2h-.2v-.2-.2h-.2v-.1-.2h-.2v-.2-.2-.2-.1l-.2-.2v-.2-.2-.2-.1-.2-.2-.2-.2-.1l.2-.2v-.2-.2-.2-.1l.2-.2v-.2-.2l.2-.2v-.1-.2l.2-.2v-.2l.1-.2v-.1-.2h.2v-.2l.2-.2v-.2h.2v-.1l.2-.2v-.2h.1l.2-.2v-.2h.2v-.1l.2-.2h.2v-.2h.1l.2-.2.2-.2.2-.1h.2l.1-.2h.2l.2-.2h.2l.2-.2h.1l.2-.2h.2.2.2l.1-.1h.2.2.2.2.1.2.2.2.2.1.2.2.2.2v.1h.1.2l.2.2h.2l.2.2h.1v.2h.2v.2h.2v.1l.2.2v.2h.2v.2.2h.1v.1.2.2.2.2l.2.1v.2l-1.6.2v-.2-.2-.1-.2l-.2-.2v-.2-.2h-.2v-.1l-.1-.2-.2-.2h-.2l-.2-.2h-.2-.1l-.2-.2h-.2-.2-.2-.1-.2-.2l-.2.2h-.2-.1-.2l-.2.2h-.2-.2l-.1.2h-.2l-.2.2-.2.1-.2.2h-.1v.2h-.2v.2l-.2.2h-.2v.1l-.2.2v.2h-.1v.2.2h-.2v.1l-.2.2v.2.2h-.2v.2.1l-.2.2v.2.2l-.1.2v.1.2.2.2l-.2.2v.1.2.2.2.2.1.2.2l.2.2v.2.1.2h.1v.2h.2v.2l.2.2.2.1h.2l.1.2h.2.2v.2h.2.2.1.2.2.2.2.1.2.2l.2-.2h.2.1l.2-.2h.2l.2-.1h.2l.1-.2.2-.2.2-.2.2-.2.2-.1v-.2h.1l.2-.2v-.2l.2-.2v-.1l.2-.2z"/><path d="m447.2 36.5 6.8-10.4h1.6l1.4 10.4h-1.6l-.4-3.2h-4.3l-2 3.2h-1.6zm4.3-4.3h3.4l-.2-2.9-.2-.2v-2l-.2.2v.2l-.2.2v.2h-.2v.2l-.2.2v.4h-.2v.2l-.2.2v.2l-2 3.1"/><path d="m466.6 32.7 1.3.4v.1l-.2.2v.2l-.2.2v.2h-.2v.1l-.1.2v.2h-.2v.2l-.2.2h-.2v.1h-.2l-.1.2v.2h-.2l-.2.2-.2.2h-.2l-.1.1h-.2v.2h-.2-.2l-.2.2h-.1l-.2.2h-.2-.2-.2-.1l-.2.2h-.2-.2-.2-.1-.2-.2-.2-.2-.1l-.2-.2h-.2-.2-.2l-.1-.2h-.2-.2v-.2h-.2l-.2-.2h-.1v-.1h-.2v-.2h-.2v-.2h-.2v-.2-.2h-.2v-.1-.2l-.1-.2v-.2-.2-.1-.2l-.2-.2v-.2-.2-.1-.2-.2-.2-.2l.2-.1v-.2-.2-.2-.2l.1-.1v-.2-.2-.2l.2-.2v-.1-.2l.2-.2v-.2l.2-.2v-.1l.2-.2v-.2l.1-.2v-.2h.2v-.1l.2-.2v-.2h.2l.2-.2v-.2h.1l.2-.1v-.2h.2l.2-.2.2-.2.1-.2.2-.1h.2l.2-.2h.2l.1-.2h.2l.2-.2h.2l.2-.2h.1.2.2l.2-.1h.2.1.2.2.2.2.1.2.2.2.2.1.2.2v.1h.2.2l.1.2h.2l.2.2h.2v.2h.2v.2h.1v.1l.2.2.2.2v.2.2h.2v.1.2.2.2l.2.2v.1.2l-1.5.2v-.2h-.2v-.2-.1-.2-.2l-.1-.2v-.2h-.2v-.1l-.2-.2-.2-.2h-.2l-.1-.2h-.2-.2v-.2h-.2-.2-.1-.2-.2-.2-.2l-.1.2h-.2-.2-.2l-.2.2h-.1-.2v.2h-.2-.2l-.2.2-.1.1-.2.2-.2.2h-.2v.2l-.2.2h-.1v.1l-.2.2v.2l-.2.2v.2h-.2v.1l-.2.2v.2.2h-.1v.2.1l-.2.2v.2.2l-.2.2v.1.2.2.2l-.2.2v.1.2.2.2.2.1.2l.2.2v.2.2.1l.2.2v.2h.2v.2h.1v.2h.2v.1h.2l.2.2h.2.1v.2h.2.2.2.2.1.2.2.2.2.1l.2-.2h.2.2l.2-.2h.1l.2-.1h.2l.2-.2.2-.2.1-.2.2-.2.2-.1.2-.2.2-.2v-.2l.1-.2v-.1h.2v-.2z"/><path d="m469 36.5 2.8-10.5h1.3l-2.7 10.5z"/><path d="m473.8 31.3v-.4l.2-.2v-.4l.2-.2v-.2l.2-.2v-.2l.2-.2v-.2l.2-.2v-.2h.2v-.2l.2-.2v-.2h.2v-.2l.2-.2.2-.2.2-.2.2-.2.2-.2h.2v-.2h.2l.2-.2.2-.2h.2l.2-.2.2-.2h.4v-.2h.4l.2-.2h.4l.2-.2h2.7l.2.2h.4v.2h.4v.2h.2l.2.2h.2v.2h.2v.2h.2v.2l.2.2v.2l.2.2v.2l.2.2v.4l.2.2v1.8l-.2.2v.7l-.2.2v.4l-.2.2v.4h-.2v.4l-.2.2v.2h-.2v.2l-.2.2v.2l-.2.2v.2h-.2v.2h-.2v.2l-.2.2-.2.2-.2.2h-.2v.2l-.2.2h-.2v.2h-.2l-.2.2h-.2v.2h-.2l-.2.2h-.2l-.2.2h-.4v.2h-.5l-.2.2h-.5l-.2.2h-1.4l-.2-.2h-.7v-.2h-.4v-.2h-.4v-.2h-.2l-.2-.2h-.2v-.2h-.2v-.4h-.2v-.2h-.2v-.2l-.2-.2v-.4l-.2-.2v-.9l-.2-.2v-.2l.2-.2v-1.1l.2-.2v-.2zm1.5.1-.2.2v.9h-.2v.5l.2.2v.7h.2v.2l.2.2v.2h.2v.2h.2v.2h.2v.2h.2l.2.2h.2l.2.2h2l.2-.2h.4v-.2h.4l.2-.2h.2l.2-.2h.2v-.2l.2-.2h.2l.2-.2.2-.2v-.2h.2v-.2l.2-.2.2-.2v-.2h.2v-.4l.2-.2v-.2h.2v-.4l.2-.2v-.5h.2v-.7l.2-.2v-1.4h-.2v-.5h-.2v-.2l-.2-.2v-.2l-.2-.2-.2-.2h-.2v-.2h-.4v-.2h-.5l-.2-.2h-1.1l-.2.2h-.5l-.2.2h-.4v.2h-.4l-.2.2-.2.2h-.2v.2h-.2l-.2.2-.2.2-.2.2-.2.2v.2h-.2v.2l-.2.2v.2l-.2.2v.2l-.2.2v.2l-.2.2v.4l-.2.2v.5zm4.3-6.1 1.4-2h1.6l-2 2h-1.1"/><path d="m484.3 36.5 2.7-10.5h1.4l3.4 8.1 2.2-8.1h1.2l-2.7 10.5h-1.4l-3.4-8.3-2.2 8.3z"/><g fill="none" stroke="#231f20" stroke-linecap="round" stroke-linejoin="round"><path d="m230.3 496.7 62.5-3.8 163.1-43.6 67-58.7 28.8-10.1m-.3.1c7.1-3 13-8.4 16.6-15.2m.1-0 21.2-79m9.2-10c-4.5 1.7-7.9 5.4-9.2 10.1m16.7-11.4c-2.5-.1-5 .2-7.3 1.1m-426.2-182.6 1.3-4.5 8.1-13.1 11-8.8m23.5-1.6c-7.4-4.4-16.8-3.8-23.6 1.6m33.2 14.8c0-6.8-3.7-13-9.4-16.4m9.2 16.4c0 6 1.7 11.9 4.7 17.1m.1-.1c1.9 3.3 5.8 5.1 9.6 4.3m39.3-5.5c-13.2 1.2-26.4 3.1-39.4 5.6m62.7-6.7c-7.8 0-15.5.4-23.2 1.1m23.4-.9 6.7-.5 6.5-1.4 6.3-2.2m0-.1c2.6-1.2 4.8-3.1 6.2-5.6m-.2-.2c1.6-2.8 2.2-6 2-9.2m-.3-21c-.4 7.1-.3 14.1.3 21.2m2.2-28.5-.5.5-1.3 3.2-.5 3.6m-155.6 38.7 1.6-5.2 7.6-12.4 10.6-8.5m20.3-1.2c-6.4-3.8-14.5-3.3-20.3 1.4m28.5 12.5c0-5.7-3.1-11-8-14m7.8 14.1c0 6.5 1.8 12.9 5.1 18.5m.1-.1c2.6 4.4 7.6 6.7 12.6 5.7m39.1-5.6c-13.1 1.2-26.2 3.1-39.2 5.6m62.2-6.6c-7.7 0-15.3.4-22.9 1.1m23.1-1.1 7-.4 7-1.4 6.7-2.5m-.1-.1c3.1-1.4 5.8-3.8 7.4-6.8m0-.1c1.8-3.3 2.7-7.1 2.3-10.8m-.2-20.7c-.4 6.9-.3 13.9.3 20.8m2.7-28.2-1.4 1.8-1.1 2.7-.5 3.1"/><path d="m300.1 110.6h-16l-38.5 3-5.6 2.2-8.8 3-10.1.4-68 338.9 22.1 17.1 7 4.2 8.5 5 15.5 9.6 6.4 2.5 17.7.2z" stroke-width="1.1"/><path d="m26.9 415.3 13.9-11.3m569.5-124.8 25.4 4.9"/></g><path d="m206.3 305v-5.8h1.3l1.3 4v.1.2l.1.2v.2.2-.2h.2v-.2-.2l.2-.2v-.1l1.4-4h.9v5.8h-.7v-4.9l-1.6 4.9h-.7l-1.6-4.9v4.9z"/><path d="m212.8 305v-.8l2.7-2.8h-.2-.1-.2-.2-1.8v-.6h3.4v.4l-2.3 2.7-.4.3h.2.2.2.1.2 1.8v.8z"/><path d="m217.7 305v-.9h.9v.9z"/><path d="m222.5 302.1v-.9h.2v-.5h.2v-.4h.2v-.2l.2-.2h.2v-.2h.2v-.2h.2l.2-.2h.2v-.2h.9v-.2h.4l.2.2h.7v.2h.4v.2h.2v.2h.2l.2.2.2.2v.2h.2v.4h.2v.4l.2.2v1.6h-.2v.5h-.2v.4h-.2v.2l-.2.2v.2h-.2v.2h-.2l-.2.2h-.2v.2h-.5v.2h-1.4l-.2-.2h-.4l-.2-.2h-.2v-.2h-.2v-.2h-.2v-.2h-.2v-.2h-.2v-.4h-.2v-.4l-.2-.2v-.9zm.8 0v.7h.2v.5h.2v.2l.2.2v.2h.2l.2.2h.2v.2h1.6l.2-.2h.2v-.2h.2v-.2h.2v-.2h.2v-.4h.2v-.7h.2v-.9h-.2v-.7h-.2v-.4h-.2v-.2h-.2v-.2h-.2l-.2-.2h-.4v-.2h-1.1v.2h-.4l-.2.2h-.2v.2h-.2v.2h-.2v.4h-.2v.5h-.2v.7"/><path d="m229.2 305 .2-3.6h-.7v-.6h.7v-.5-.2-.2-.2l.2-.1v-.2h.1v-.2h.2.2.2.2v-.2h.1v.2h.2.2.2l-.2.5h-.2-.2-.1-.2v.2h-.2v.2.2.2.3h.7v.6h-.7l-.2 3.6z"/><path d="m231.9 305v-.9h.7v.9z"/><path d="m239.1 305h-.5v-4.5h-.2v.1h-.2v.2h-.2-.2v.2h-.1l-.2.2h-.2-.2v.2-.8h.2v-.1h.2.2v-.2h.1l.2-.2h.2v-.2l.2-.2.2-.1.1-.2v-.2h.2.4z"/><path d="m245 300.6h-.7v-.2l-.2-.2v-.2l-.2-.2h-.2v-.2h-.7l-.2.2h-.2v.2h-.2v.2h-.2v.4h-.2v.7h-.2v.5h.2v-.2h.2v-.2h.2v-.2h.4v-.2h1.1v.2h.4v.2h.2v.2h.2v.2h.2v.4h.2v1.4h-.2v.4l-.2.2v.2h-.2v.2h-.2l-.2.2h-.2l-.2.2h-1.1l-.2-.2h-.2l-.2-.2h-.2v-.2l-.2-.2-.2-.2v-.4h-.2v-.9h-.2v-.9h.2v-1.1l.2-.2v-.4h.2v-.4h.2v-.2h.2v-.2h.2l.2-.2h.2v-.2h1.4v.2h.2l.2.2.2.2v.2h.2v.4h.2v.4zm-2.8 2.4v.7h.2v.4h.2v.2h.4v.2h.7v-.2h.4v-.2h.2v-.4h.2v-1.3h-.2v-.4h-.2l-.2-.2h-1.1v.2h-.2l-.2.2v.2h-.2v.5"/><path d="m248.6 305h-.7l.2-4.5h-.2v.1h-.2v.2h-.1-.2v.2h-.2-.2v.2h-.2-.1v.2-.8h.1v-.1h.2.2v-.2h.2v-.2h.2l.1-.2.2-.2.2-.1v-.2h.2v-.2h.5z"/><path d="m81.8 416.9s0 0 0 0l-1.2-2.4 2.7.5s0 0 0 0 0 0 .1-.1c0 0 .1-.2.1-.2s0 0 0 0l-3.3-.6s0 0 0 0 0 .1-.1.2v.1l1.5 3s0 0 0 0 0 0 0-.1c0 0 0-.1.1-.1zm4.1 1.6s0 0 0 0l-1.3-.9s0 0-.1 0c0 0 0 0-.1.1v.2.1l1.3.9s0 0 .1 0c0 0 0 0 .1-.1 0 0 0 0 0-.1zm1.9 1.4s0 0 0 0l-1.3-.9s0 0-.1 0c0 0 0 0-.1.1v.2.1l1.3.9s0 0 .1 0c0 0 0 0 .1-.1 0 0 0 0 0-.1zm5.8 3.8c.1-.2.2-.3.3-.5 0-.2 0-.3 0-.5 0-.1 0-.3-.2-.4s-.3-.3-.5-.4c-.1 0-.2-.1-.3-.2-.1 0-.2-.1-.3-.1s-.2 0-.3 0-.2 0-.2 0 0 0-.1 0v.1s0 0 0 0h.1s.2 0 .3 0h.3c.1 0 .2.1.4.2.1 0 .2.2.3.3 0 0 0 .2.1.3v.3s0 .2-.2.3l-.2.2-.4-.3c-.2-.2-.4-.3-.6-.4s-.4-.1-.6-.2-.3 0-.5 0c-.1 0-.3.2-.4.3 0 .1-.2.3-.2.4s0 .3 0 .4 0 .3.2.4c0 .1.2.2.3.3.2.1.3.2.5.2h.6l-.2.3s0 0 0 0 0 0 .1.1h.1l1.4-1.8zm-1.4.8c-.2 0-.4 0-.6 0s-.3 0-.4-.2c-.2-.1-.3-.3-.3-.4 0-.2 0-.3.1-.4 0 0 .1-.1.2-.2h.3.3c.1 0 .2.1.4.2l.4.3-.4.6zm6.9 5.2s0 0 0 0 0 0-.2 0c0 0-.2 0-.3 0s-.2 0-.4 0c-.1 0-.3-.1-.5-.2s-.3-.3-.4-.5-.1-.4-.2-.6c0-.2 0-.4.1-.7 0-.2.2-.5.4-.7.2-.3.4-.5.6-.6.2-.2.4-.3.6-.3s.4 0 .6 0 .4.1.6.3c.2.1.3.2.4.4s.2.2.2.3 0 .2 0 .3v.1s0 0 0-.1c0 0 0-.1 0-.2 0 0 0-.2-.2-.3 0 0-.1-.2-.2-.3 0-.1-.2-.2-.3-.3-.3-.2-.5-.3-.8-.4s-.6 0-.8 0-.6.2-.8.4-.5.5-.8.8c-.2.3-.4.6-.5.9s-.1.6-.1.9.1.5.2.8c.1.2.3.5.6.6.1.1.3.2.4.3.1 0 .3.1.4.1h.3.2s0 0 0 0 0 0 0-.1zm4.5.1s0 0 0 0 0 0-.1 0c0 0 0 0-.1 0l-1.4 1.9c-.3 0-.5.1-.7 0-.2 0-.3 0-.5-.1 0 0-.2-.2-.2-.2s0-.2 0-.3 0-.2 0-.3.1-.2.3-.4l1.2-1.6s0 0 0 0 0 0-.1 0c0 0 0 0-.1 0l-1.2 1.7c-.1.2-.3.4-.3.5 0 .2-.1.3-.1.5s0 .3.1.5c0 .2.2.3.4.4s.3.2.5.2h.7l-.3.4s0 0 0 0h.1.1s0 0 0 0l2-2.7zm4.2 4.7c.1-.2.2-.3.3-.5 0-.2.1-.3.1-.5s0-.3-.1-.5c0-.2-.2-.3-.4-.4 0 0-.2 0-.2-.1 0 0-.2 0-.3 0s-.2 0-.4 0c-.1 0-.3 0-.4 0 0-.1 0-.2 0-.3s0-.2 0-.3c0 0 0-.2-.2-.3 0 0-.2-.2-.3-.3s-.3-.2-.5-.2-.4 0-.7 0l.3-.4s0 0 0 0 0 0-.1 0c0 0 0 0-.1 0l-2 2.7s0 0 0 0h.1.1s0 0 0 0l1.4-1.9c.3 0 .5-.1.7-.1s.3 0 .4.1c0 0 .2.1.2.2s0 .2 0 .3v.3c0 .1-.1.2-.2.3l-1.2 1.7s0 0 0 0h.1.1s0 0 0 0l1.4-1.9c.3 0 .5-.1.7-.1s.3 0 .4.1c0 0 .2.1.2.2s0 .2 0 .3v.3c0 .1-.1.2-.2.3l-1.2 1.7s0 0 0 0h.1.1s0 0 0 0l1.3-1.7zm3.6 2.3c0-.2.1-.4.2-.6 0-.2 0-.4-.1-.6 0-.2-.2-.3-.4-.5 0 0-.2-.1-.2-.1s-.2 0-.3 0c0 0-.2 0-.3 0s-.2 0-.4 0l1.2-1.6s0 0 0 0 0 0-.1 0c0 0 0 0-.1 0l-3 4.1s0 0 0 0h.1s0 0 0 0l.2-.3v.4c0 .1 0 .2.1.3 0 0 0 .2.2.2 0 0 .1.1.2.2l.6.3h.6c.2 0 .4-.2.6-.3.2-.2.4-.3.6-.6.1-.2.3-.4.4-.6zm-1.3.6c-.1.1-.2.2-.4.2-.1 0-.3 0-.4 0s-.3 0-.4-.1-.2-.2-.3-.4 0-.4-.1-.7l.8-1.1h.4s.2 0 .3 0 .2 0 .3 0 .1 0 .2.1c.1 0 .2.2.3.3v.4s0 .3-.1.4c0 .1-.2.3-.3.4 0 .1-.2.2-.3.3zm4.2.5s0 0 0 0 0 0 0-.1 0 0 0 0-.1 0-.2-.1-.1 0-.2 0c0 0-.2 0-.3 0s-.3 0-.4.1l.3-.4s0 0 0 0 0 0-.1 0c0 0 0 0-.1 0s0 0 0 0l-2 2.7s0 0 0 0 0 0 .1 0h.1s0 0 0 0l1.3-1.8c.2 0 .3-.1.4-.1h.3.2s.1 0 .2 0c0 0 0 0 .1.1s0 0 0 0 0 0 0-.1c0 0 0 0 0-.1zm2.1 3.2c.1-.2.2-.4.3-.6 0-.2.1-.4 0-.6 0-.2 0-.4-.2-.6 0-.2-.3-.4-.5-.5s-.4-.2-.6-.3c-.2 0-.4 0-.6 0s-.4.1-.6.3c-.2.1-.4.3-.6.6-.2.2-.3.5-.4.7s-.1.4 0 .7c0 .2 0 .4.2.6.1.2.3.4.5.5.1 0 .3.2.4.2s.2.1.4.2h.3.1s0 0 0 0 0 0-.1 0c0 0-.1 0-.2 0 0 0-.2 0-.3-.1-.1 0-.2-.1-.4-.2s-.3-.2-.4-.4c0-.1-.1-.3-.1-.4s0-.3 0-.4.1-.3.3-.4l1.8 1.3h.2s.1 0 .2-.1zm-1.9-1.5c0-.1.2-.2.3-.3.1 0 .2-.1.3-.2s.2 0 .4 0c.1 0 .3 0 .4.2.2.2.4.4.4.6s0 .5-.3.7l-1.5-1.1zm3.8 4.6s0 0 0 0 0 0-.1 0h-.2s-.2 0-.3 0-.2 0-.3-.2c-.1 0-.2-.2-.3-.3s0-.2 0-.4c0-.1 0-.3 0-.4 0-.2.2-.3.3-.5.3-.4.5-.6.8-.7.3 0 .5 0 .8.1.1 0 .2.2.3.3 0 0 .1.2.1.3v.2.1h.1s0 0 .2-.1 0-.1 0-.2c0 0 0-.2-.1-.2 0 0-.1-.2-.2-.2 0 0-.1-.1-.2-.2-.2-.1-.4-.2-.6-.3-.2 0-.4 0-.6 0s-.4.1-.6.3c-.2.1-.4.4-.6.6s-.3.5-.4.7c0 .2-.1.4-.1.6s0 .4.2.6c.1.2.3.3.4.5 0 0 .2.1.3.2.1 0 .2 0 .3.1h.3.2s0 0 0 0 0 0 0-.1zm2.8-1.4s0 0 0 0 0 0-.1 0c0 0 0 0-.1 0s0 0 0 0l-2 2.7s0 0 0 0h.1.1s0 0 0 0zm.9-1.1s0-.2-.2-.2c-.1 0-.2-.1-.3-.1 0 0-.2 0-.2.2 0 .1-.1.2-.1.3 0 0 0 .2.2.2.1 0 .2.1.3.1 0 0 .2 0 .2-.2 0-.1.1-.2.1-.3zm-.3 5.3s0 0 0 0 0 0-.1 0c0 0 0 0-.1 0-.1-.1-.2-.2-.2-.4 0-.1 0-.3.2-.5l1.1-1.5.7.5s0 0 .1 0c0 0 0 0 .1-.1 0 0 0 0 0-.1s0 0 0 0l-.7-.5.5-.6s0 0 0 0 0 0-.1 0c0 0 0 0-.1 0s0 0 0 0l-.5.6-.4-.3s0 0 0 0v.2.1l.4.3-1.2 1.6c-.1.2-.2.3-.3.4v.4c0 .1 0 .2.1.4 0 .1.2.2.3.3h.1.1.1.1s0 0 0 0 0 0 .1-.1z"/><path d="m125.5 447.5c.1-.2.2-.3.3-.5s0-.3 0-.5c0-.1 0-.3-.2-.4s-.3-.3-.5-.4c-.1 0-.2-.1-.3-.2-.1 0-.2-.1-.3-.1s-.2 0-.3 0-.2 0-.2 0 0 0-.1 0v.1s0 0 0 0h.1.3.3s.2.1.4.2c.1 0 .2.2.3.3s0 .2.1.3v.3s0 .2-.2.3l-.2.2-.4-.3c-.2-.2-.4-.3-.6-.4s-.4-.1-.6-.2c-.2 0-.3 0-.5 0-.1 0-.3.2-.4.3 0 .1-.2.3-.2.4s0 .3 0 .4 0 .3.2.4c0 .1.2.2.3.3.2.1.3.2.5.2h.6l-.2.3s0 0 0 0 0 0 .1.1h.1l1.4-1.8zm-1.3.8c-.2 0-.4 0-.6 0s-.3 0-.4-.2c-.2-.1-.3-.3-.3-.4 0-.2 0-.3.1-.4 0 0 .1-.1.2-.2h.3.3s.2.1.4.2l.4.3-.4.6z"/><path d="m293.3 499.3v-.1s0 0 0 0-.1 0-.2 0c0 0-.1 0-.2 0s0 0 0 0l-.2 4.3s-2.5-3.6-2.5-3.6 0 0-.2 0c0 0-.1 0-.2 0s0 0 0 .1l2.8 3.9s0 0 0 0h.1.1.2.1l.3-4.8zm1.6.8s0 0 0 0 0 0-.2 0h-.1s0 0 0 0l.9 3.3s0 0 0 0 0 0 .1 0h.1s0 0 0 0l-.9-3.3zm-.4-1.4s-.2 0-.3 0-.2 0-.3.2v.3c0 .1 0 .2.2.3h.3c.1 0 .2 0 .3-.2 0 0 0-.2 0-.3s0-.2-.2-.3zm1.7-.7s0 0 0 0 0 0-.2 0h-.1l1.4 4.9s0 0 0 0 0 0 .1 0h.1s0 0 0 0l-1.4-4.9zm1.7-.5s0 0 0 0 0 0-.2 0h-.1l1.4 4.9s0 0 0 0 0 0 .1 0h.1s0 0 0 0l-1.4-4.9zm4.3 1.7c0-.2-.1-.4-.2-.5 0-.1-.2-.2-.3-.3-.1 0-.3-.1-.5-.1s-.4 0-.6 0c-.1 0-.2 0-.4.1-.1 0-.2.1-.3.2 0 0-.2.1-.2.2 0 0-.1.1-.1.2v.1.1h.1s.1-.1.2-.2c0 0 .2-.1.3-.2.1 0 .2-.1.4-.2h.4.3s.1.1.2.2c0 0 0 .2.1.3v.3s-.4.1-.4.1c-.3 0-.5.2-.7.3s-.3.2-.5.3-.2.3-.2.4v.5c0 .2.1.3.2.4s.2.2.3.2.3 0 .4 0h.5c.2 0 .4-.1.5-.3.2-.1.3-.3.4-.5v.3h.1.2.1s0 0 0 0l-.6-2.2zm-.2 1.6c-.1.2-.2.4-.3.5s-.2.2-.4.2-.4 0-.5 0-.2-.2-.3-.4c0 0 0-.2 0-.3 0 0 0-.2.1-.2 0 0 .2-.1.3-.2.1 0 .3-.1.4-.2h.5c0-.1.2.6.2.6zm6.1-5.3s0 0 0 0-.1 0-.2 0-.2 0-.3 0-.3 0-.5 0-.3 0-.5 0c-.3 0-.7.2-.9.4-.3.2-.5.4-.6.7s-.2.6-.3.9c0 .3 0 .7.1 1.1 0 .4.2.7.4.9.2.3.4.5.7.6.3.2.5.2.9.3.3 0 .7 0 1-.1.1 0 .2 0 .4-.1.1 0 .2-.1.3-.2.1 0 .2-.1.3-.2s.2-.1.2-.2c0 0 0-.1.1-.2 0 0 0-.1 0-.2l-.5-1.8s0 0 0-.1 0 0 0 0l-1.5.4s0 0 0 0v.1.2h.1l1.1-.3.4 1.4c-.1.1-.2.2-.4.3-.1 0-.3.1-.4.2-.2 0-.5 0-.7 0s-.4 0-.6-.2c-.2-.1-.4-.3-.5-.5s-.3-.5-.3-.8-.1-.5 0-.8c0-.3 0-.5.2-.7 0-.2.2-.4.4-.5.2-.2.4-.3.7-.3h.6.5s.2 0 .3 0h.2s0 0 0 0 0 0 0-.1c0 0 0-.1 0-.2zm3.3.1s0 0 0 0 0 0-.1 0 0 0-.1 0c0 0 0 0-.1 0 0 0-.1 0-.2 0 0 0-.1 0-.2.2s-.1.2-.2.3c0 .1-.1.2-.2.4v-.5c-.1 0-.1 0-.2 0s0 0 0 0 0 0-.1 0h-.1s0 0 0 0l.9 3.3s0 0 0 0 0 0 .1 0h.1s0 0 0 0l-.6-2.2c0-.2 0-.3.1-.4 0-.1 0-.2.1-.3 0 0 0-.1.2-.2h.2.1s0 0 .1 0h.1s0 0 0-.1c0 0 0 0 0-.1zm3.4.1c0-.2-.1-.4-.2-.5 0-.1-.2-.2-.3-.3-.1 0-.3-.1-.5-.1s-.4 0-.6 0c-.1 0-.2 0-.4.1-.1 0-.2.1-.3.2s-.2.1-.2.2-.1.1-.1.2v.1.1h.1s.1-.1.2-.2c0 0 .2-.1.3-.2s.2-.1.4-.2h.4s.2 0 .3 0c0 0 .1.1.2.2 0 0 0 .2.1.3v.3s-.4.1-.4.1c-.3 0-.5.2-.7.3s-.3.2-.5.3-.2.3-.2.4v.5c0 .2.1.3.2.4s.2.2.3.2.3 0 .4 0h.5c.2 0 .4-.1.5-.3.2-.1.3-.3.4-.5v.3h.1.2.1l-.6-2.2zm-.2 1.6c-.1.2-.2.4-.3.5s-.2.2-.4.2-.4 0-.5 0-.2-.2-.3-.4c0 0 0-.2 0-.3 0 0 0-.2.1-.2 0 0 .2-.1.3-.2s.3-.1.4-.2h.5c0-.1.2.6.2.6zm1.2-4.7s0 0 0 0 0 0-.2 0h-.1s0 0 0 0l1.4 4.9s0 0 0 0 0 0 .1 0h.1s0 0 0 0l-1.4-4.9zm2.9 3.7s-.2 0-.3 0c-.2 0-.2 0-.3.2v.4c0 .2.1.3.2.3h.3c.2 0 .2 0 .3-.2 0 0 0-.2 0-.4s-.1-.3-.2-.3zm5.7-2.7c0-.1-.2-.2-.3-.3-.1 0-.2-.1-.4-.2-.1 0-.3 0-.4 0 0 0 .2-.2.2-.2s.1-.2.1-.3 0-.2 0-.3 0-.2 0-.3c0-.2-.1-.3-.2-.5-.1-.1-.2-.2-.4-.3-.1 0-.3-.1-.5-.1s-.4 0-.7.1l-1.1.3s-.1 0-.1.1v.2l1.2 4.2s0 .2.1.2h.2l1.2-.3c.2 0 .3-.1.5-.2.1 0 .2-.1.4-.2.1 0 .2-.2.3-.3 0-.1.1-.2.2-.3s0-.2 0-.4c0-.1 0-.3 0-.4 0-.2-.1-.3-.2-.4zm-1.3-1.1v.3s-.1.2-.2.2-.2.1-.4.2l-.7.2-.4-1.5.6-.2h.4s.2 0 .3 0c0 0 .2.1.2.2 0 0 .1.2.1.3v.3zm.9 2.1c0 .1 0 .2-.1.3 0 0-.1.2-.2.2 0 0-.2.1-.4.2l-.9.3-.5-1.7.7-.2h.5.4c.1 0 .2.1.3.2 0 0 .1.2.2.4v.4zm4.1-2.2c0-.2-.1-.4-.2-.6s-.2-.3-.4-.4-.3-.2-.5-.2-.4 0-.7 0c-.2 0-.4.2-.6.3s-.3.3-.4.5c0 .2-.1.4-.2.7s0 .5.1.8c0 .3.2.5.3.8.1.2.3.4.5.5s.4.2.6.2h.7c.2 0 .3 0 .4-.2.1 0 .2-.1.3-.2 0 0 .2-.1.2-.2h.1s0 0 0-.1 0 0-.1 0c0 0-.1 0-.2.1 0 0-.2.1-.3.2-.1 0-.3.1-.4.2-.2 0-.4 0-.5 0-.2 0-.3 0-.4-.1s-.2-.2-.3-.3-.1-.3-.2-.5l2.2-.6s.1 0 .1-.1c0 0 0-.1 0-.2zm-2.4.6c0-.1 0-.3 0-.4s0-.3 0-.4.1-.2.2-.3.2-.2.4-.2h.7c.2.1.3.4.4.7l-1.8.5zm3.1-4s0 0 0 0 0 0-.2 0h-.1l1.4 4.9s0 0 0 0 0 0 .1 0h.1s0 0 0 0l-1.4-4.9zm4.3.5s0 0-.1 0l-1 .3s-.2 0-.3 0c0 0-.2 0-.3 0-.2 0-.3.1-.5.2-.1 0-.3.2-.3.3s-.1.3-.2.4v.5c0 .2.1.3.2.4 0 .1.2.2.3.3 0 .1-.1.2-.1.4v.4c0 .1 0 .2.2.3s.2.1.3.2c0 0-.1.2-.2.2v.2.2.2c0 .1 0 .2.2.3 0 0 .2.2.3.2h.5c.2 0 .4 0 .7-.1.3 0 .5-.2.7-.3s.3-.2.4-.4.2-.3.2-.4c0-.2 0-.3 0-.5 0-.1-.1-.3-.2-.4s-.2-.2-.3-.2-.3 0-.4 0-.3 0-.5 0l-.9.2c-.1 0-.2 0-.3 0s-.2 0-.2-.2c0 0 0-.1 0-.2s0-.1 0-.2h.3.4c.2 0 .4-.1.5-.2.1 0 .3-.2.3-.3s.1-.3.2-.4c0-.2 0-.3 0-.5 0-.1 0-.2-.1-.3 0 0-.1-.2-.3-.2h.5c0-.1 0-.2 0-.2s0-.1 0-.2c0 0 0-.1 0-.2zm-.6 1.5v.3s0 .2-.2.2c0 0-.2.1-.3.1-.2 0-.4 0-.6 0s-.3-.2-.3-.5c0 0 0-.2 0-.3 0 0 0-.2 0-.3 0 0 0-.2.2-.2 0 0 .2-.1.3-.1h.6c.2 0 .3.2.3.5zm1 2.5s0 .2-.1.2c0 0-.1.2-.3.2s-.3.1-.4.2c-.3 0-.5.1-.7 0-.2 0-.3-.1-.3-.3 0 0 0-.1 0-.2 0 0 0-.1 0-.2 0 0 0-.1 0-.2 0 0 0-.1.1-.2l.9-.2h.5c.1 0 .2.1.3.3v.3zm2.3-4.7s0 0 0 0 0 0-.1 0 0 0-.1 0c0 0 0 0-.1 0 0 0-.1 0-.2 0 0 0-.1 0-.2.2s-.1.2-.2.3c0 .1-.1.2-.2.4v-.5c-.1 0-.1 0-.2 0s0 0 0 0 0 0-.1 0h-.1l.9 3.3s0 0 0 0 0 0 .1 0h.1s0 0 0 0l-.6-2.2c0-.2 0-.3.1-.4 0-.1 0-.2.1-.3 0 0 0-.1.2-.2h.2.1.1.1s0 0 0-.1c0 0 0 0 0-.1zm3.4.1c0-.2-.1-.4-.2-.5 0-.1-.2-.2-.3-.3-.1 0-.3-.1-.5-.1s-.4 0-.6 0c-.1 0-.2 0-.4.1-.1 0-.2.1-.3.2 0 0-.2.1-.2.2 0 0-.1.1-.1.2v.1.1h.1s.1-.1.2-.2c0 0 .2-.1.3-.2.1 0 .2-.1.4-.2h.4.3s.1.1.2.2c0 0 0 .2.1.3v.3s-.4.1-.4.1c-.3 0-.5.2-.7.3s-.3.2-.5.3-.2.3-.2.4v.5c0 .2.1.3.2.4s.2.2.3.2.3 0 .4 0h.5c.2 0 .4-.1.5-.3.2-.1.3-.3.4-.5v.3h.1.2.1s0 0 0 0l-.6-2.2zm-.2 1.6c-.1.2-.2.4-.3.5s-.2.2-.4.2-.4 0-.5 0-.2-.2-.3-.4c0 0 0-.2 0-.3 0 0 0-.2.1-.2 0 0 .2-.1.3-.2.1 0 .3-.1.4-.2h.5c0-.1.2.6.2.6zm4.2-2.5c0-.2-.1-.4-.2-.6 0-.2-.2-.3-.3-.4-.1 0-.3-.2-.4-.2-.2 0-.4 0-.6 0s-.4.2-.5.3c-.2.1-.3.3-.4.6v-.4c-.1 0-.1 0-.1 0s0 0 0 0 0 0-.1 0h-.1s0 0 0 0l.9 3.3s0 0 0 0 0 0 .1 0h.1s0 0 0 0l-.6-2.3c.1-.3.2-.5.3-.6s.3-.2.4-.3h.3c.1 0 .2 0 .3.1s.1.2.2.3c0 .1.1.3.2.4l.5 1.9s0 0 0 0h.2.1l-.6-2zm4-1.5c-.1-.2-.3-.4-.5-.5s-.4-.2-.6-.2-.5 0-.7 0c-.3 0-.5.2-.7.3s-.3.3-.4.5c0 .2-.1.4-.2.7 0 .2 0 .5.1.8 0 .3.2.5.3.7s.3.4.5.5.4.2.6.2.5 0 .7 0c.3 0 .5-.2.7-.3s.3-.3.4-.5c0-.2.1-.4.2-.7s0-.5 0-.8-.2-.5-.3-.7zm-.3 1.5v.5s-.1.3-.2.4c-.1 0-.3.2-.4.2-.2 0-.4 0-.5 0s-.3 0-.4-.2c-.1 0-.2-.2-.3-.4 0-.1-.1-.3-.2-.5 0-.2 0-.4 0-.5s0-.3 0-.5.1-.3.2-.4c.1 0 .3-.2.4-.2h.5c.1 0 .3 0 .4.2.1 0 .2.2.3.4 0 .1.1.3.2.5zm9.6-3.5s0 0 0 0l-1.5.4s0 0 0 0 0 .1 0 .2v.2h.1l1.5-.4s0 0 0 0 0-.1 0-.2c0 0 0 0 0-.1zm2.3-.6s0 0 0 0l-1.5.4s0 0 0 0 0 .1 0 .2v.2h.1l1.5-.4s0 0 0 0 0-.1 0-.2c0 0 0 0 0-.1zm3.6-1.4s0 0 0 0l-3.3-.6s0 0 0 0v.1.2s0 0 0 0l2.6.5-2 1.8s0 0 0 0 0 0 0 .1v.2.1l2.5-2.2s0 0 0 0 0 0 0-.1c0 0 0-.1 0-.2z"/><path d="m167.9 484.4s0-.1 0-.2l.2-1.1c0-.1 0-.3 0-.4s0-.2 0-.3c0 0 0-.2 0-.3 0 0 0-.2-.1-.2h.4s.3 0 .4 0 .2 0 .3-.2c.1 0 .2-.2.3-.3 0-.1.2-.3.2-.4s0-.3 0-.4 0-.3-.2-.4c0-.1-.2-.3-.3-.4 0 0-.1 0-.2-.1 0 0-.1-.1-.3-.2l-.9-.6s-.1 0-.2 0c0 0-.1 0-.2.1l-2.5 3.8s0 0 0 0h.1.1l1.1-1.7.4.2c.1 0 .2.2.3.3 0 0 .1.2.1.3s0 .2 0 .3v.4l-.3 1.2s0 0 0 0h.1.2s0 0 .1 0zm.8-3.1s-.2.1-.3.1-.2 0-.4 0c-.1 0-.3 0-.4-.2l-.5-.3.9-1.4.5.3c.1 0 .2.1.3.2 0 0 .1 0 .2.1.1.2.2.3.2.5s0 .3-.2.5c0 0-.1.2-.2.2zm.9 3.5s0-.2-.2-.2c-.1 0-.2-.1-.3-.1 0 0-.2.1-.3.3 0 .1-.1.3-.1.3s0 .2.2.2c.1 0 .2.1.3.1s.2-.1.3-.3c0-.1.1-.3.1-.3zm5.3-.4c0-.2 0-.3 0-.5 0-.1 0-.3-.1-.4 0-.1-.2-.3-.3-.4 0 0-.2-.2-.3-.2 0 0-.2-.1-.2-.2l-.9-.6s-.1 0-.2 0-.1 0-.2.1l-2.5 3.8s0 0 0 0h.1.1l1-1.5.5.3c.3.2.5.3.7.3h.6c.2 0 .4-.1.6-.2s.3-.3.5-.5c.1-.2.2-.3.2-.5zm-1.1.5c-.1 0-.2.1-.3.2-.1 0-.3 0-.4 0s-.3 0-.5-.2l-.5-.3 1.1-1.6.5.3s.2.1.3.2.2.2.2.3v.4c0 .2 0 .3-.2.5 0 .1-.2.2-.3.3zm.8 3.2s0-.2-.2-.2c-.1 0-.2-.1-.3-.1s-.2.1-.3.3c0 .1-.1.3-.1.3s0 .2.2.2c.1 0 .2.1.3.1s.2-.1.3-.3c0-.1.1-.3.1-.3zm3.8 1.1c0-.2 0-.3 0-.4s0-.3-.2-.4-.1-.3-.2-.4-.2-.3-.2-.4-.1-.2-.2-.4c0-.1 0-.2 0-.4 0-.1 0-.2.1-.3 0 0 .1-.1.2-.2 0 0 .2 0 .2-.1h.3s.2 0 .3.1c.1 0 .2.2.3.3 0 0 .1.2.2.3s0 .2.1.2v.1s0 0 0-.1 0 0 0 0 0 0 0-.2c0 0 0-.2-.2-.2 0 0-.1-.2-.2-.2 0 0-.2-.1-.3-.2-.2-.1-.4-.2-.5-.3-.2 0-.4 0-.5 0s-.3 0-.5.2c-.1 0-.3.2-.4.4s-.2.3-.2.5v.4c0 .1 0 .3.1.4 0 .1.1.3.2.4 0 .1.2.3.2.4s.1.2.2.4v.4c0 .1 0 .2-.1.3 0 .1-.2.2-.2.3 0 0-.2 0-.3.1-.1 0-.2 0-.3 0s-.2 0-.4-.2c-.2-.1-.3-.2-.4-.3 0-.1-.2-.2-.2-.3 0 0-.1-.2-.1-.3s0-.1 0-.1v.1.2.1s0 0 0 .2c0 0 0 .2.2.3 0 0 .2.2.3.3s.2.2.4.3.4.2.6.3h.6c.2 0 .4 0 .5-.2.2-.1.3-.3.4-.4.1-.2.2-.3.2-.5zm.8 1.9s0-.2-.2-.2c-.1 0-.2-.1-.3-.1 0 0-.2.1-.3.3 0 .1-.1.3-.1.3s0 .2.2.2c.1 0 .2.1.3.1s.2-.1.3-.3c0-.1.1-.3.1-.3zm4.5 1.3s0 0 0 0l-1.3-.9s0 0-.1 0 0 0-.1.1v.2.1l1.3.9s0 0 .1 0c0 0 0 0 .1-.2 0 0 0 0 0-.1zm3.7 4.4s0 0 0 0l-1.8-1.2 1.1-.3c.4 0 .7-.2 1-.3.3 0 .5-.2.7-.3s.3-.2.4-.3.2-.2.3-.4c0-.1.2-.3.2-.5s0-.3 0-.5-.1-.3-.2-.5-.3-.3-.5-.4c-.1 0-.3-.1-.4-.2-.1 0-.3 0-.4-.1s-.2 0-.3 0h-.2s0 0 0 0v.1s0 0 0 0h.2.3.4c.1 0 .3 0 .4.2.1 0 .2.2.3.2 0 0 .1.2.1.3v.3c0 .1 0 .2-.1.3s-.1.2-.2.3c0 0-.2.2-.3.3-.1 0-.3.2-.5.2s-.5.2-.8.2l-1.4.3s0 0-.1 0v.1.1l2.3 1.5s0 0 0 0 0 0 0-.1zm3.3 2.2s0 0 0 0l-.7-.5 2.3-3.6s0 0 0 0 0 0-.1 0h-1.3s0 0 0 0v.1h.1 1.1s-2 3.2-2 3.2l-.9-.6s0 0 0 0v.1s0 0 0 0l2.1 1.4s0 0 0 0 0 0 0-.1zm5.1-.5c.1-.3.2-.6.2-.8s0-.5-.2-.7c-.1-.2-.3-.4-.6-.6s-.5-.3-.8-.3-.5 0-.7.1-.5.3-.7.5-.4.5-.6.8-.4.7-.5.9c-.1.3-.2.6-.2.8s0 .5.2.7c.1.2.3.4.6.6s.5.3.8.3.5 0 .7-.1.5-.3.7-.5.4-.5.6-.8.4-.7.5-.9zm-1.4 1.1c-.1.1-.2.3-.3.4s-.2.2-.3.3-.2.1-.3.2c-.1 0-.2 0-.3 0s-.2 0-.3-.1c-.2 0-.3-.2-.3-.3s0-.3 0-.5 0-.4.2-.6c.1-.2.3-.5.5-.8.1-.2.3-.4.5-.6s.3-.3.5-.4.3-.2.5-.2.3 0 .5.2c.1 0 .2.1.2.2s.1.2.1.3v.3.4c0 .1-.1.3-.2.5 0 .2-.2.4-.3.6 0 .2-.2.3-.3.4z"/><path d="m238.3 96.7-.3-2.2h.7c.2-.1.3-.1.4-.1h.3c.1 0 .2.1.4.3.1.1.3.3.5.6l.8.9h.8s-1-1.3-1-1.3c-.2-.2-.4-.4-.6-.6 0 0-.2-.1-.4-.2.5-.1.8-.3 1-.6s.3-.6.2-.9c0-.3-.1-.5-.3-.7s-.4-.3-.6-.4c-.2 0-.6 0-1 0l-2.2.3.6 4.9h.6zm-.5-4.3 1.5-.2c.4 0 .6 0 .8.1s.3.3.3.5v.5c0 .1-.2.3-.3.3-.2 0-.4.1-.7.2l-1.4.2zm5.5 3.8-.4-3.5h-.6s.4 3.6.4 3.6h.6zm-.8-4 .6-1h-.8s-.3 1.1-.3 1.1h.5zm2 3.4c.3.3.8.4 1.3.3.3 0 .6-.1.8-.3s.4-.4.5-.7.1-.6 0-1.1c0-.6-.3-1-.6-1.3s-.8-.4-1.2-.3c-.4 0-.8.2-1.1.5-.3.4-.5.9-.4 1.5 0 .6.3 1 .6 1.3zm.2-2.4c.2-.2.4-.4.7-.4s.6 0 .8.2.4.5.4 1 0 .8-.2 1.1c-.2.2-.4.4-.7.4s-.6 0-.8-.2-.4-.5-.4-1c0-.4 0-.8.2-1zm14.1 1.2v-.6s-2.5.3-2.5.3l-.5-4.3h-.6s.6 4.9.6 4.9l3-.4zm.9-.6c.3.3.8.4 1.3.3.3 0 .6-.1.8-.3s.4-.4.5-.7.1-.6 0-1.1c0-.6-.3-1-.6-1.3s-.8-.4-1.2-.3c-.4 0-.8.2-1.1.5-.3.4-.5.9-.4 1.5 0 .6.3 1 .6 1.3zm.1-2.4c.2-.2.4-.4.7-.4s.6 0 .8.2.4.5.4 1 0 .8-.2 1.1c-.2.2-.4.4-.7.4s-.6 0-.8-.2-.4-.5-.4-1c0-.4 0-.8.2-1zm3.6 2.2c.3.2.6.2 1.1.2.3 0 .5-.1.7-.2s.4-.3.5-.5c0-.2.1-.4.1-.6s0-.4-.2-.5c-.1-.1-.3-.2-.4-.3-.2 0-.5-.1-.9-.2-.3 0-.5 0-.5 0-.1 0-.2 0-.2-.1 0 0 0-.1 0-.2s0-.2.1-.3.3-.2.6-.2h.6c.1 0 .2.2.3.4h.6c0-.4-.2-.6-.3-.7s-.3-.2-.5-.3c-.2 0-.5 0-.7 0s-.4 0-.5.1c-.2 0-.3.1-.4.2s-.2.2-.3.4v.4c0 .2 0 .3.2.5.1.1.2.2.4.3.2 0 .5.1.9.2.3 0 .5 0 .6.1.1 0 .2.2.2.3s0 .3-.2.4c-.1.1-.3.2-.6.2s-.5 0-.7-.1-.3-.3-.3-.5l-.6.2c.1.4.3.6.6.8zm13.4-1.4-.3-2.2h.7c.2-.1.3-.1.4-.1h.3c.1 0 .2.1.4.3.1.1.3.3.5.6l.8.9h.8s-1-1.3-1-1.3c-.2-.2-.4-.4-.6-.6 0 0-.2-.1-.4-.2.5-.1.8-.3 1-.6s.3-.6.2-.9c0-.3-.1-.5-.3-.7s-.4-.3-.6-.4c-.2 0-.6 0-1 0l-2.2.3.6 4.9h.6zm-.5-4.3 1.5-.2c.4 0 .6 0 .8.1s.3.3.3.5v.5c0 .1-.2.3-.3.3-.2 0-.4.1-.7.2l-1.4.2zm6.7 3c-.1.1-.3.2-.5.2-.3 0-.6 0-.8-.2s-.4-.5-.4-.9l2.6-.3s0-.1 0-.2c0-.6-.3-1-.6-1.3s-.7-.4-1.2-.3c-.5 0-.9.3-1.1.6-.3.4-.4.8-.3 1.4 0 .6.3 1 .6 1.3s.8.4 1.3.3c.4 0 .7-.2 1-.4.2-.2.4-.5.4-.9h-.6c0 .3-.2.4-.3.6zm-1.6-2.1c.2-.2.4-.3.7-.4.3 0 .6 0 .8.3.1.1.2.3.3.6l-2 .2c0-.3 0-.6.2-.8zm5.8 2.2h.6c0-.2-.2-.3-.2-.5 0-.1 0-.5-.2-1v-.8c-.1-.3-.2-.4-.2-.5 0-.2-.1-.3-.2-.4-.1 0-.2-.2-.4-.2s-.4 0-.7 0-.6.1-.8.2-.4.3-.5.4c-.1.2-.2.4-.2.6h.6c0-.2.1-.4.2-.5s.3-.2.6-.2.5 0 .7.1c.1 0 .2.2.2.5v.2c-.2.1-.6.2-1 .3-.2 0-.4.1-.5.2-.2 0-.3.1-.4.2s-.2.2-.3.4v.5c0 .3.2.5.4.7s.5.2.9.2c.2 0 .5 0 .6-.2.2-.1.4-.3.6-.5 0 .2 0 .3.2.4zm-.4-1.5v.6c0 .2-.2.3-.3.5-.2.1-.4.2-.6.2s-.4 0-.5 0-.2-.2-.2-.4c0-.1 0-.2 0-.3 0 0 .1-.2.2-.2 0 0 .3-.1.5-.2.4-.1.7-.2 1-.3v.2zm2.3 1.3-.2-1.8c0-.3 0-.5 0-.7 0-.1 0-.3.2-.4 0 0 .2-.1.3-.2h.4v-.6c0-.1-.3-.1-.5-.1-.1 0-.3 0-.4.2-.1 0-.2.3-.3.5v-.5h-.6l.4 3.5h.6zm2.7-.8h-.2s0 0-.1-.1c0 0 0-.2 0-.3l-.2-2.1h.6v-.5h-.6s-.1-1.2-.1-1.2l-.6.4v.9h-.3v.5h.5l.2 2c0 .4 0 .6.2.7 0 .1.2.2.3.2h.5c.1 0 .3 0 .4-.1v-.5c-.2 0-.3 0-.4 0zm2.9-.4c-.1.1-.3.2-.5.2-.3 0-.6 0-.8-.2s-.4-.5-.4-.9l2.6-.3s0-.1 0-.2c0-.6-.3-1-.6-1.3s-.7-.4-1.2-.3c-.5 0-.9.3-1.1.6-.3.4-.4.8-.3 1.4 0 .6.3 1 .6 1.3s.8.4 1.3.3c.4 0 .7-.2 1-.4.2-.2.4-.5.4-.9h-.6c0 .3-.2.4-.3.6zm-1.6-2.1c.2-.2.4-.3.7-.4.3 0 .6 0 .8.3.1.1.2.3.3.6l-2 .2c0-.3 0-.6.2-.8zm3.6 2.2c.3.2.6.2 1.1.2.3 0 .5-.1.7-.2s.4-.3.5-.5c0-.2.1-.4.1-.6s0-.4-.2-.5c-.1-.1-.3-.2-.4-.3-.2 0-.5-.1-.9-.2-.3 0-.5 0-.5 0-.1 0-.2 0-.2-.1 0 0 0-.1 0-.2s0-.2.1-.3.3-.2.6-.2h.6c.1 0 .2.2.3.4h.6c0-.4-.2-.6-.3-.7s-.3-.2-.5-.3c-.2 0-.5 0-.7 0s-.4 0-.5.1c-.2 0-.3.1-.4.2s-.2.2-.3.4v.4c0 .2 0 .3.2.5.1.1.2.2.4.3.2 0 .5.1.9.2.3 0 .5 0 .6.1.1 0 .2.2.2.3s0 .3-.2.4c-.1.1-.3.2-.6.2s-.5 0-.7-.1-.3-.3-.3-.5l-.6.2c.1.4.3.6.6.8z"/><path d="m160.4 463.7-26.2 33.9" fill="none" stroke="#231f20" stroke-linecap="round" stroke-linejoin="round"/><path d="m135.5 493.9.3-.4c-.1 0-.2 0-.3-.1-.1 0-.3-.2-.7-.5l-.5-.4c-.2-.1-.3-.2-.4-.2s-.2 0-.3 0-.2 0-.4.1-.3.2-.4.4-.2.4-.3.6v.5c0 .2.1.3.3.5l.3-.3c-.1-.2-.2-.3-.2-.4s0-.3.2-.5c.1-.2.3-.3.5-.3.1 0 .3 0 .4.1 0 .2-.2.4-.4.8 0 .2-.2.3-.2.4v.4.4c0 .1.1.2.2.3.2.1.4.2.6.1s.4-.2.6-.4c.1-.1.2-.3.2-.5s0-.4 0-.6c.1 0 .2.1.3.1zm-1-.6c.2.1.3.2.3.3v.4s0 .3-.2.5c-.1.1-.2.2-.4.3-.1 0-.2 0-.3 0 0 0-.1-.1-.1-.2s0-.2 0-.2 0-.2.2-.4c.2-.3.3-.5.3-.7h.1zm1.9-2.1h1c.3-.1.6-.3.8-.6s.3-.6.4-.9c0-.3 0-.6-.2-1s-.4-.6-.7-.8-.6-.4-1-.4-.7 0-1 0-.6.3-.8.6c-.3.4-.5.9-.4 1.4s.4.9.9 1.3c.3.2.6.3.9.4zm-1.3-1.9c0-.4 0-.7.3-1 .2-.2.3-.3.6-.4s.5-.1.7 0c.3 0 .5.2.8.4.4.3.6.6.7 1 0 .4 0 .7-.2 1s-.5.5-.9.5-.7 0-1.1-.4c-.5-.4-.7-.7-.8-1.1zm4.9-1.2-1.9-1.5.3-.4-.3-.2-.3.4-.2-.2c-.1-.1-.2-.2-.2-.3s0-.2.1-.3c0 0 .1-.1.2-.2l-.3-.3c-.1.1-.2.2-.3.3-.1.2-.2.3-.2.5s0 .3 0 .4c0 0 .2.2.3.3l.2.2-.3.3.3.2.3-.3 1.9 1.5.3-.4zm-.9-2.7-.4-.3-.3.4.4.3zm1.8 1.4-.4-.3-.3.4.4.3zm1.4-2.2c.3 0 .5-.2.8-.5.2-.3.3-.6.3-1s-.2-.6-.5-.8c-.2-.2-.4-.2-.6-.2s-.4 0-.6.2c0-.2 0-.4 0-.5 0-.2-.1-.3-.3-.4-.1-.1-.3-.2-.5-.2s-.4 0-.5.1c-.2 0-.3.2-.5.4s-.3.5-.3.8.1.5.4.8l.4-.3c-.2-.2-.3-.3-.3-.5s0-.3.1-.5c.1-.1.2-.2.4-.3.2 0 .3 0 .5.1s.3.3.2.5 0 .4-.2.5l.3.3c0-.1.1-.2.2-.3.1-.2.3-.3.5-.3s.4 0 .6.2c.2.1.3.3.3.5s0 .4-.2.6c-.1.2-.3.2-.4.3s-.4 0-.6-.1l-.2.4c.3.2.6.2.9.2zm1.7-2.5c.3 0 .6-.2.8-.5.2-.2.3-.5.2-.7 0-.2 0-.5-.3-.7-.2-.2-.4-.5-.8-.8-.3-.2-.6-.4-.8-.5-.2 0-.4-.1-.6-.2s-.4 0-.5 0c-.2 0-.3.2-.4.4-.2.2-.2.5-.2.7s0 .5.3.7c.2.2.4.5.8.8.6.4 1.1.7 1.5.6zm-2.1-2c0-.2 0-.4 0-.6.1-.2.3-.3.6-.3s.6.2 1.1.6.8.7.9.9 0 .5 0 .6-.3.3-.6.2c-.3 0-.6-.2-1.1-.6s-.8-.7-.9-1zm4.4-.5-.4-.3-.3.4.4.3zm.4-1.1c.3 0 .6-.2.8-.5.2-.2.3-.5.2-.7 0-.2 0-.5-.3-.7-.2-.2-.4-.5-.8-.8-.3-.2-.6-.4-.8-.5-.2 0-.4-.1-.6-.2s-.4 0-.5 0c-.2 0-.3.2-.4.4-.2.2-.2.5-.2.7s0 .5.3.7c.2.2.4.5.8.8.6.4 1.1.7 1.5.6zm-2.1-2c0-.2 0-.4 0-.6.1-.2.3-.3.6-.3s.6.2 1.1.6.8.7.9.9v.6s-.3.3-.6.2c-.3 0-.6-.2-1.1-.6s-.8-.7-.9-1zm3.9-.4c.3 0 .6-.2.8-.5.2-.2.3-.5.2-.7 0-.2 0-.5-.3-.7-.2-.2-.4-.5-.8-.8-.3-.2-.6-.4-.8-.5-.2 0-.4-.1-.6-.2s-.4 0-.5 0c-.2 0-.3.2-.4.4-.2.2-.2.5-.2.7s0 .5.3.7c.2.2.4.5.8.8.6.4 1.1.7 1.5.6zm-2.1-2c0-.2 0-.4 0-.6.1-.2.3-.3.6-.3s.6.2 1.1.6.8.7.9.9 0 .5 0 .6-.3.3-.6.2c-.3 0-.6-.2-1.1-.6s-.8-.7-.9-1z"/><path d="m140.4 498.4.3-.4c-.1 0-.2 0-.3-.1-.1 0-.3-.2-.7-.5l-.5-.4c-.2-.1-.3-.2-.4-.2s-.2 0-.3 0-.2 0-.4.1c-.1 0-.3.2-.4.4s-.2.4-.3.6v.5c0 .2.1.3.3.5l.3-.3c-.1-.2-.2-.3-.2-.4s0-.3.2-.5c.1-.2.3-.3.5-.3.1 0 .3 0 .4.1 0 .2-.2.4-.4.8 0 .2-.2.3-.2.4v.4.4c0 .1.1.2.2.3.2.1.4.2.6.2s.4-.2.6-.4c.1-.1.2-.3.2-.5s0-.4 0-.6c.1 0 .2.1.3.1zm-1.1-.6c.2.1.3.2.3.3v.4s0 .3-.2.5c-.1.1-.2.2-.4.3-.1 0-.2 0-.3 0 0 0-.1-.1-.1-.2v-.2s0-.2.2-.4c.2-.3.3-.5.3-.7h.1zm2.6-1.6c.2 0 .5-.2.7-.5.1-.2.2-.4.3-.5 0-.2 0-.4 0-.5 0-.2-.1-.3-.3-.4-.1 0-.3-.1-.4-.2-.1 0-.3 0-.4 0s-.3.2-.6.4c-.2.1-.3.2-.3.3 0 0-.1 0-.2 0 0 0-.1 0-.2 0 0 0-.1-.1-.1-.3 0-.1 0-.3.2-.4.1-.1.2-.2.4-.3s.3 0 .4 0l.2-.4c-.2 0-.3-.1-.4-.1s-.3 0-.4.1-.3.2-.4.4c0 .1-.2.2-.2.4v.3.3c0 .1.1.2.2.3.1 0 .2.1.4.1h.4c.1 0 .3-.2.6-.4.2-.2.3-.3.4-.3h.3s.1.2.2.3c0 .1 0 .3-.2.5-.1.2-.3.3-.4.3-.2 0-.3 0-.5 0l-.2.4c.3.1.5.2.8.1zm2-2.3-1.2-.9c-.2-.2-.3-.3-.4-.4 0-.1-.1-.2 0-.4s0-.3.1-.4.2-.2.4-.2.3 0 .4.2l1.4 1.1.3-.4-1.3-1c-.2-.2-.4-.4-.4-.5 0-.2 0-.4.1-.5 0 0 .1-.1.2-.2h.3s.2 0 .4.2l1.4 1.1.3-.4-1.5-1.2c-.3-.2-.5-.3-.7-.3s-.4.2-.6.4c-.2.3-.3.6-.1 1-.2 0-.3 0-.5 0-.1 0-.3.2-.4.3s-.2.3-.2.5v.5l-.3-.2-.3.3 2.2 1.7.3-.4zm1-5.1-.4-.3-.3.4.4.3zm1.8 1.3-.4-.3-.3.4.4.3zm1.4-2.2c.3 0 .5-.2.8-.5.2-.3.3-.6.3-1 0-.3-.2-.6-.5-.8-.2-.2-.4-.2-.6-.2s-.4 0-.6.2c0-.2 0-.4 0-.5 0-.2-.1-.3-.3-.4-.1-.1-.3-.2-.5-.2s-.4 0-.5.1c-.2 0-.3.2-.5.4s-.3.5-.3.8.1.5.4.8l.4-.3c-.2-.2-.3-.3-.3-.5s0-.3.1-.5c.1-.1.2-.2.4-.3.2 0 .3 0 .5.1s.3.3.2.5c0 .2 0 .4-.2.5l.3.3c0-.1.1-.2.2-.3.1-.2.3-.3.5-.3s.4 0 .6.2c.2.1.3.3.3.5s0 .4-.2.6c-.1.2-.3.2-.4.3-.2 0-.4 0-.6-.1l-.2.4c.3.2.6.2.9.2zm1.7-2.4c.3 0 .6-.2.8-.5.2-.2.3-.5.2-.7s0-.5-.3-.7-.4-.5-.8-.8c-.3-.2-.6-.4-.8-.5-.2 0-.4-.1-.6-.2-.2 0-.4 0-.5 0-.2 0-.3.2-.4.4-.2.2-.3.5-.2.7s0 .5.3.7c.2.2.4.5.8.8.6.4 1.1.7 1.5.6zm-2.1-2.1c0-.2 0-.4 0-.6.1-.2.3-.3.6-.3s.6.2 1.1.6.8.7.9.9v.6c-.1.2-.3.3-.6.2-.3 0-.6-.2-1.1-.6s-.8-.7-.9-1zm4.4-.5-.4-.3-.3.4.4.3zm.4-1c.3 0 .6-.2.8-.5.2-.2.3-.5.2-.7s0-.5-.3-.7-.4-.5-.8-.8c-.3-.2-.6-.4-.8-.5-.2 0-.4-.1-.6-.2-.2 0-.4 0-.5 0-.2 0-.3.2-.4.4-.2.2-.3.5-.2.7s0 .5.3.7.4.5.8.8c.6.4 1.1.7 1.5.6zm-2.1-2c0-.2 0-.4 0-.6.1-.2.3-.3.6-.3s.6.2 1.1.6.8.7.9.9v.6c-.1.2-.3.3-.6.2-.3 0-.6-.2-1.1-.6s-.8-.7-.9-1zm3.9-.4c.3 0 .6-.2.8-.5.2-.2.3-.5.2-.7s0-.5-.3-.7-.4-.5-.8-.8c-.3-.2-.6-.4-.8-.5-.2 0-.4-.1-.6-.2-.2 0-.4 0-.5 0-.2 0-.3.2-.4.4-.2.2-.3.5-.2.7s0 .5.3.7.4.5.8.8c.6.4 1.1.7 1.5.6zm-2-2c0-.2 0-.4 0-.6.1-.2.3-.3.6-.3s.6.2 1.1.6.8.7.9.9v.6c-.1.2-.3.3-.6.2-.3 0-.6-.2-1.1-.6s-.8-.7-.9-1z"/><path d="m736.8 303.7 7.7-32m29.7 104.7-47.9-11.7-30.4-56.7m48.3 89.7 30.1 7.4m-47.9-40.4 33.5 61.9 14.4 3.4m-110.9-80 59 14.2m-38.3 18.7 55.6 13.5m-131.8-121 74.3 15.3 2.2-1.8-3.2-29-61.7-14.9m16.7 36.2 7.4-30.4m40.6 41.9v-1.4l1.3-.5m2.7 2.2c-.4-1.2-1.5-2.2-2.8-2.4m2.5 4.1c.3-.5.4-1.2.2-1.8m-1.7 2.1c.5.2 1.1 0 1.4-.3m-3.7-2.1c.2 1.1 1.1 2.1 2.3 2.4" fill="none" stroke="#231f20" stroke-linecap="round" stroke-linejoin="round"/><path d="m637.8 207s0 0 .1 0 0 0 0 0l.9-2.5 1.5 2.3s0 0 0 0 0 0 .1 0h.2.2s0 0 0-.1l-1.9-2.8s0 0 0 0 0 0-.1 0h-.2l-1.1 3.1s0 0 0 0h.2.2zm1.5 2.3s0 0 0 0l-.2-1.6s0 0 0 0-.1 0-.2 0h-.2v.1l.2 1.6s0 0 0 0h.2.1zm.3 2.3s0 0 0 0l-.2-1.6s0 0 0 0-.1 0-.2 0h-.2v.1l.2 1.6s0 0 0 0h.2.1zm-.5 8.9s0 0 0 0l-.2-1.7 4.2-.5s0 0 0 0 0 0 0-.1c0 0 0 0 0-.2 0 0 0-.1 0-.2s0 0 0 0l-4.5.6s-.2 0-.2.1v.2l.3 2.1s0 0 0 0h.1.1zm2.6 3.4c.2 0 .4-.2.5-.4s.2-.3.3-.6c0-.2 0-.5 0-.7 0-.3-.1-.5-.2-.7s-.3-.4-.5-.5-.4-.2-.6-.2-.5 0-.8 0-.5.1-.8.2c-.2 0-.4.2-.5.4s-.2.3-.3.6v.7c0 .3.1.5.2.7s.3.4.5.5.4.2.6.2.5 0 .8 0 .5-.1.7-.2zm-1.4-.5c-.2 0-.3 0-.4-.1-.1 0-.2-.2-.3-.3s-.1-.3-.2-.5c0-.2 0-.4 0-.5s.1-.3.2-.4.2-.2.4-.2.3 0 .5-.1h.5s.3 0 .4.1c.1 0 .2.2.3.3 0 .1.1.3.2.5v.5c0 .1-.1.3-.3.4s-.2.2-.4.2-.3 0-.5.1c-.2 0-.4 0-.5 0zm.6 3.7s.2-.1.2-.2c0 0 .1-.2.2-.3 0-.1 0-.2.1-.3 0-.1 0-.2 0-.3s0-.2.1-.3c0 0 0-.2.1-.2s.1 0 .2-.1h.2.2s0 .1.1.2v.3.3s0 .2 0 .2v.2.1s0 0 0 0h.1.1s0 0 0 0 0 0 0-.1 0-.1 0-.2c0 0 0-.2 0-.3 0 0 0-.2 0-.3 0-.2 0-.4-.2-.5s-.2-.3-.3-.4c-.1 0-.2-.2-.3-.2s-.3 0-.4 0c-.2 0-.3 0-.4.1s-.2.1-.3.2c0 0-.1.2-.2.3s0 .2-.1.3v.3.3s0 .2-.1.2-.1 0-.2.1h-.2s-.1 0-.2-.1c0 0 0-.1-.1-.2s0-.2 0-.3 0-.3 0-.4 0-.2 0-.3v-.2-.1s0 0-.1 0c0 0-.1 0-.2 0s0 0 0 .1v.2s0 .2 0 .3v.3c0 .2 0 .4.1.5 0 .2.2.3.3.4s.2.2.4.2.3 0 .5 0c.1 0 .3 0 .4-.1z"/><path d="m628.9 208s0 0 .2 0l1-.6c.1 0 .2-.1.3-.2 0 0 .2-.1.2-.2 0 0 .1-.1.2-.2 0 0 0-.2.1-.2 0 .1.1.3.2.4s.2.2.3.3c.1 0 .2.1.4.1h.4c.2 0 .3 0 .4-.1.1 0 .2-.2.3-.3 0-.1.2-.2.2-.4s0-.3 0-.5c0 0 0-.1 0-.2s0-.2 0-.3v-1c-.1 0-.2-.1-.2-.2s-.1 0-.2 0l-4.5.6s0 0 0 0v.1.2.2l2.1-.3v.4.4c0 .1 0 .2-.1.3 0 0-.2.2-.3.2s-.2.1-.3.2l-1.1.6s0 0 0 0v.1s0 0 0 .2v.2.1s0 0 0 0zm2.9-1.4c-.1 0-.2 0-.3-.1 0 0-.2-.2-.2-.3s0-.3-.1-.4v-.6s1.6-.2 1.6-.2v.5.3.2c0 .2-.1.4-.2.5s-.3.2-.5.2c-.1 0-.2 0-.3 0zm-.5 4.9c.2 0 .4 0 .6-.2.2 0 .3-.2.5-.3.1-.1.2-.3.3-.5 0-.2 0-.4 0-.7 0-.2-.1-.5-.2-.7s-.3-.3-.4-.5c-.2-.1-.4-.2-.6-.2s-.5 0-.8 0-.6.1-.8.2-.4.2-.5.4-.2.4-.3.6v.7.4s0 .3.1.4c0 .1 0 .2.1.3v.1h.1s0 0 0 0 0 0 0-.1 0-.1-.1-.2c0 0 0-.2-.1-.3 0-.1 0-.3 0-.4 0-.2 0-.4 0-.5s.1-.3.2-.4c0-.1.2-.2.4-.2.1 0 .3 0 .5-.1l.3 2.2v.2s.1 0 .2 0h.1zm-.3-2.4h.4c.1 0 .2 0 .4.1.1 0 .2.2.3.3s.1.2.1.4c0 .3 0 .5-.2.7s-.4.3-.7.3l-.2-1.8zm1 5.9c.2 0 .4 0 .5-.1.2 0 .3-.2.4-.3s.2-.3.2-.4 0-.4 0-.6c0-.1 0-.3 0-.4s0-.2-.1-.3c0-.1-.1-.2-.2-.3 0 0 0-.1-.1-.2 0 0 0 0-.1 0 0 0 0 0-.1 0 0 0 0 0-.1 0s0 0 0 0v.1s0 .1.1.2c0 0 .1.2.2.3 0 .1 0 .3.1.4v.4c0 .1 0 .2-.1.3s-.1.1-.2.2-.2 0-.3 0h-.3s0-.4 0-.4c0-.3 0-.5-.2-.7 0-.2-.2-.4-.3-.5s-.2-.2-.4-.3c-.1 0-.3 0-.5 0s-.3 0-.4.1c-.1 0-.2.2-.3.3s-.1.2-.2.4v.5c0 .2 0 .4.2.6.1.2.3.3.4.4h-.3s0 0 0 0 0 0 0 .2v.2l2.3-.3zm-1.5-.5c-.2-.1-.3-.3-.4-.4s-.2-.3-.2-.4c0-.2 0-.4 0-.5s.2-.2.4-.2h.3s.2 0 .2.2c0 0 .1.2.2.3s0 .3 0 .4v.5h-.6zm3 3.4s0 0 0 0 0 0 0-.1 0 0 0-.1c0 0 0 0 0-.1 0 0 0-.1 0-.2s0-.1-.1-.2-.1-.1-.2-.2c0 0-.2-.1-.4-.2h.5s0 0 0 0 0 0 0-.1v-.1s0 0 0 0l-3.4.4s0 0 0 0v.2.2s0 0 0 0l2.2-.3c.1 0 .3.1.4.2.1 0 .2.1.3.2 0 0 .1.1.1.2v.2.1.1.1s0 0 0 0 0 0 .1 0h.1zm-2.7 2.9s0 0 0 0 0 0 0-.1c0 0 0 0 0-.2s0-.3.1-.4c.1 0 .3-.1.5-.2l1.9-.2v.9h.2.2.1s0 0 0 0v-.9c-.1 0 .7-.1.7-.1s0 0 0-.2v-.1s0 0 0 0h-.8v-.4s0 0-.1 0h-.2s0 0 0 0v.5s-1.9.3-1.9.3c-.2 0-.4 0-.5.1-.1 0-.3.1-.3.2 0 0-.1.2-.2.3s0 .3 0 .5v.2.2.1s0 0 0 0h.2.1zm2.1 3.5c.2 0 .4 0 .6-.2.2 0 .3-.2.5-.3.1-.1.2-.3.3-.5 0-.2 0-.4 0-.7 0-.2-.1-.5-.2-.7s-.3-.3-.4-.5c-.2-.1-.4-.2-.6-.2s-.5 0-.8 0-.6.1-.8.2-.4.2-.5.4-.2.4-.3.6v.7.4c0 .1 0 .3.1.4 0 .1 0 .2.1.3v.1s0 0 0 0h.1s0 0 0-.1 0-.1-.1-.2c0 0 0-.2-.1-.3 0-.1 0-.3 0-.4 0-.2 0-.4 0-.5s.1-.3.2-.4c0-.1.2-.2.4-.2s.3 0 .5-.1l.3 2.2v.2h.2.1zm-.2-2.5h.4c.1 0 .2 0 .4.1s.2.2.3.3.1.2.1.4c0 .3 0 .5-.2.7s-.4.3-.7.3l-.2-1.8z"/><path d="m632.6 227.3s.2-.1.2-.2c0 0 .1-.2.2-.3 0-.1 0-.2.1-.3s0-.2 0-.3 0-.2 0-.3c0 0 0-.2.1-.2 0 0 .1 0 .2-.1h.2.2s0 .1.1.2v.3.3.2.2.1s0 0 0 0h.1.1s0 0 0-.1 0-.1 0-.2c0 0 0-.2 0-.3s0-.2 0-.3c0-.2 0-.4-.2-.5 0-.1-.2-.3-.3-.4-.1 0-.2-.2-.3-.2s-.3 0-.4 0c-.2 0-.3 0-.4.1-.1 0-.2.1-.3.2 0 0-.1.2-.2.3 0 .1 0 .2-.1.3s0 .2 0 .3v.3s0 .2-.1.2c0 0-.1 0-.2.1h-.2s-.1 0-.2-.1c0 0 0-.1-.1-.2 0 0 0-.2 0-.3s0-.3 0-.4 0-.2 0-.3 0-.2 0-.2 0-.1 0-.1 0 0-.1 0c0 0-.1 0-.2 0v.1s0 .1 0 .2v.3.3c0 .2 0 .4.1.5 0 .2.2.3.3.4s.2.2.4.2h.5c.1 0 .3 0 .4-.1z"/><path d="m755 406.7h.1s0 0 0-.2c0 0 0-.1 0-.2l-4.3.7s3-3.2 3-3.2 0 0 0-.2c0 0 0-.1-.1-.2s0 0 0 0 0 0-.1 0l-3.2 3.6s0 0 0 0 0 0 0 .1v.2l4.8-.7zm-.4 1.8s0 0 0 0 0 0 0-.1c0 0 0 0 0-.1s0 0 0 0l-3 1.6s0 0 0 0v.1.1zm1.2-.7s0-.2 0-.3-.1-.2-.2-.2c0 0-.2 0-.3 0s-.2.1-.2.2v.3c0 .1.1.2.2.2s.2 0 .3 0 .2-.1.2-.2zm1.1 1.5s0 0 0 0 0 0 0-.1c0 0 0 0 0-.1l-4.4 2.4s0 0 0 0v.1.1s0 0 0 0zm.8 1.5s0 0 0 0 0 0 0-.1c0 0 0 0 0-.1l-4.4 2.4s0 0 0 0v.1.1zm-.7 4.6c.2-.1.3-.2.5-.3s.2-.2.2-.4c0-.1 0-.3 0-.5s-.1-.4-.2-.6c0-.1-.1-.2-.2-.3s-.2-.2-.2-.3c0 0-.2-.1-.2-.2s-.1 0-.2-.1c0 0 0 0-.1 0s0 0-.1 0 0 0 0 0h.1s.1 0 .2.1.2.1.3.2c0 0 .2.2.2.3s.1.2.1.3v.3s0 .2-.2.2c0 0-.2.1-.3.2h-.2c0 .1-.2-.3-.2-.3-.1-.2-.3-.4-.4-.6s-.3-.3-.4-.4c-.2 0-.3-.1-.5-.1s-.3 0-.5.1c-.1 0-.3.2-.3.3s-.1.2-.2.4 0 .3 0 .4 0 .3.2.5c0 .2.2.3.4.4l.6.3-.3.2s0 0 0 0v.1.1s0 0 0 0l2-1.1zm-1.6.1c-.2 0-.4-.1-.5-.2s-.2-.2-.3-.3c0-.2-.1-.3 0-.5 0-.1.1-.3.3-.3h.3.3s.2.1.3.2c0 0 .2.2.2.4l.3.5-.6.3zm6.5 4.8s0 0 0-.1c0 0 0-.1 0-.2s0-.2 0-.4 0-.3-.1-.4c0-.2-.1-.3-.2-.5-.2-.3-.4-.6-.6-.8s-.5-.3-.8-.4c-.3 0-.6-.1-.9 0s-.7.2-1 .3c-.3.2-.6.4-.8.6s-.4.5-.5.8c0 .3-.1.6 0 .9 0 .3.1.6.3 1 0 .1.1.2.2.3 0 .1.2.2.2.3 0 0 .2.2.3.3 0 0 .2.1.2.2h.2.2l1.6-.9s0 0 0 0l-.7-1.4s0 0 0 0 0 0-.1 0c0 0-.1 0-.2.1v.1l.5 1-1.3.7c-.1 0-.2-.2-.3-.3s-.2-.2-.3-.4-.2-.5-.2-.7 0-.4 0-.7c0-.2.2-.4.4-.6s.4-.4.7-.5c.2-.1.5-.2.7-.3h.7c.2 0 .4.1.6.3s.3.3.5.6c.1.2.2.4.2.6s0 .3 0 .4v.3.2s0 0 0 0 0 0 .1 0c0 0 .1 0 .2-.1zm.6 3.2s0 0 0 0 0 0 0-.1c0 0 0 0 0-.1s0 0 0-.1c0 0 0-.1-.1-.2 0 0-.1-.1-.2-.1 0 0-.2 0-.3-.1-.1 0-.3 0-.4 0l.4-.2s0 0 0 0 0 0 0-.1c0 0 0 0 0-.1s0 0 0 0l-3 1.6s0 0 0 0v.1.1s0 0 0 0l2-1.1h.4.3s.1 0 .2.1c0 0 0 0 .1.1v.1.1.1s0 0 0 0h.1.1zm.7 3.4c.2-.1.3-.2.5-.3s.2-.2.2-.4c0-.1 0-.3 0-.5s-.1-.4-.2-.6c0-.1-.1-.2-.2-.3s-.2-.2-.2-.3c0 0-.2-.1-.2-.2s-.1 0-.2-.1c0 0 0 0-.1 0s0 0-.1 0 0 0 0 0h.1s.1 0 .2.1.2.1.3.2c0 0 .2.2.2.3s.1.2.1.3v.3s0 .2-.2.2c0 0-.2.1-.3.2h-.2c0 .1-.2-.3-.2-.3-.1-.2-.3-.4-.4-.6s-.3-.3-.4-.4c-.2 0-.3-.1-.5-.1s-.3 0-.5.1c-.1 0-.3.2-.3.3s-.1.2-.2.4 0 .3 0 .4 0 .3.2.5c0 .2.2.3.4.4l.6.3-.3.2s0 0 0 0v.1.1s0 0 0 0l2-1.1zm-1.6.1c-.2 0-.4-.1-.5-.2s-.2-.2-.3-.3c0-.2-.1-.3 0-.5 0-.1.1-.3.3-.3h.3.3s.2.1.3.2c0 0 .2.2.2.4l.3.5-.6.3zm4.8.1s0 0 0 0 0 0 0-.1c0 0 0 0 0-.1l-4.4 2.4s0 0 0 0v.1.1s0 0 0 0zm-2.9 3.7s0-.2 0-.3-.2-.2-.2-.2-.2 0-.4 0-.2.2-.3.2v.3c0 .1.2.2.2.2h.4c.2 0 .2-.2.3-.2z"/><path d="m744.6 411.1c0-.1.2-.2.2-.4 0-.1 0-.3 0-.4s0-.3 0-.4c0 0 .2.1.3.2h.3.3c.1 0 .2 0 .3-.1.2 0 .3-.2.4-.3s.2-.3.2-.4c0-.2 0-.3 0-.5s-.1-.4-.3-.7l-.5-1s0 0-.1-.1c0 0-.1 0-.2 0l-3.8 2.1s-.1.1-.1.2v.2l.6 1.1c0 .2.2.3.3.4 0 .1.2.2.3.3s.2.2.3.2h.4s.3 0 .4 0 .3 0 .4-.1c.1 0 .3-.2.4-.3zm.8-1.5c-.1 0-.2 0-.3 0 0 0-.2 0-.3-.1 0 0-.2-.2-.3-.3l-.3-.7 1.4-.7.3.6c0 .2.1.3.2.4s0 .2 0 .3 0 .2-.1.3c0 0-.2.1-.3.2 0 0-.2 0-.3.1zm-1.9 1.3c-.1 0-.2 0-.3 0s-.2-.1-.3-.2c0 0-.2-.2-.2-.3l-.4-.8 1.5-.8.4.7c0 .2.2.3.2.5v.4c0 .1 0 .2-.2.3 0 0-.2.2-.3.2s-.2 0-.4.1zm3.1 3.5c.2-.1.4-.2.5-.4.1-.1.3-.3.3-.5s0-.4 0-.6 0-.4-.2-.7c-.1-.2-.3-.4-.4-.5-.2-.1-.4-.2-.6-.3-.2 0-.4 0-.7 0-.2 0-.5.1-.7.3-.3.1-.5.3-.7.5s-.3.4-.4.6v.6c0 .2.1.5.2.7 0 .1.2.3.2.4s.2.2.2.3.1.1.2.2 0 0 .1 0 0 0 0 0-.1 0-.2-.2-.2-.1-.2-.2c0 0-.2-.2-.2-.4s-.2-.3-.2-.5 0-.3 0-.4.1-.2.3-.4.3-.2.4-.3l1.1 2s0 0 .1.1.1 0 .2 0zm-1.1-2.2c.1 0 .3-.1.4-.1h.4c.1 0 .2 0 .3.1.1 0 .2.2.3.3.1.3.2.5 0 .7 0 .2-.3.4-.6.6l-.9-1.6zm4.5 2.2s0 0 0 0 0 0 0-.1c0 0 0 0 0-.1l-4.4 2.4s0 0 0 0v.1.1zm.5 4.2s0 0 0-.1l-.5-.9v-.2s0-.2-.1-.3c0-.2-.2-.3-.3-.4s-.3-.2-.4-.3c-.1 0-.3 0-.5 0s-.3 0-.5.2c-.1 0-.3.2-.3.3s-.1.2-.2.3c-.1 0-.3 0-.4 0s-.3 0-.4.1c0 0-.2.1-.2.2v.4s-.2 0-.3 0-.2 0-.3 0-.2 0-.2 0h-.2c-.1 0-.2.1-.3.2 0 .1-.1.2-.1.4v.5c0 .2.1.4.3.7.1.3.3.5.4.6s.3.3.5.3h.5c.2 0 .3 0 .4-.1.1 0 .2-.2.3-.3 0-.1.1-.2.1-.3s0-.3 0-.4 0-.3-.2-.4l-.4-.8c0-.1 0-.2 0-.3 0 0 0-.2.1-.2h.2.2v.3c0 .1 0 .3.1.4 0 .2.2.3.3.4s.3.2.4.3h.5s.3 0 .5-.2c.1 0 .2-.1.3-.2 0 0 .1-.2.2-.3l.2.4s0 0 0 0h.2s.1 0 .2-.1zm-1.7-.2s-.2 0-.3 0c0 0-.2 0-.2-.1 0 0-.1-.1-.2-.3s-.1-.4 0-.6c0-.2.2-.3.4-.4h.3.3s.2 0 .3.1.1.1.2.2c.1.2.1.4 0 .6 0 .2-.2.3-.4.4 0 0-.2 0-.3 0zm-2.2 1.5s-.2 0-.3 0-.2-.1-.3-.2c0 0-.2-.2-.3-.4-.1-.3-.2-.5-.2-.7s0-.3.2-.4h.1.2.2.3l.4.8c0 .2.1.3.1.5 0 .1 0 .2-.2.3h-.2zm5.1 1.3s0 0 0 0 0 0 0-.1c0 0 0 0 0-.1 0 0 0 0 0-.1 0 0 0-.1-.1-.2 0 0-.1-.1-.2-.1 0 0-.2 0-.3-.1-.1 0-.3 0-.4 0l.4-.2s0 0 0 0 0 0 0-.1c0 0 0 0 0-.1s0 0 0 0l-3 1.6s0 0 0 0v.1.1l2-1.1h.4.3s.1 0 .2.1c0 0 0 0 .1.1v.1.1.1s0 0 0 0h.1.1zm.7 3.3c.2-.1.3-.2.5-.3s.2-.2.2-.4c0-.1 0-.3 0-.5s-.1-.4-.2-.6c0-.1-.1-.2-.2-.3s-.2-.2-.2-.3c0 0-.2-.1-.2-.2s-.1 0-.2-.1c0 0 0 0-.1 0s0 0-.1 0 0 0 0 0h.1s.1 0 .2.1c0 0 .2.1.3.2 0 0 .2.2.2.3s.1.2.1.3v.3s0 .2-.2.2c0 0-.2.1-.3.2h-.2c0 .1-.2-.3-.2-.3-.1-.2-.3-.4-.4-.6s-.3-.3-.4-.4c-.2 0-.3-.1-.5-.1s-.3 0-.5.1c-.1 0-.3.2-.3.3s-.1.2-.2.4 0 .3 0 .4 0 .3.2.5c0 .2.2.3.4.4s.4.2.6.3l-.3.2s0 0 0 0v.1.1s0 0 0 0l2-1.1zm-1.6.2c-.2 0-.4-.1-.5-.2s-.2-.2-.3-.3c0-.2-.1-.3 0-.5 0-.1.1-.3.3-.3h.3.3s.2.1.3.2c0 0 .2.2.2.4l.3.5-.6.3zm3.3 3.5c.2-.1.4-.2.5-.3s.2-.2.3-.4 0-.3 0-.5 0-.4-.2-.6c0-.2-.2-.3-.4-.4s-.4-.2-.7-.3l.4-.2s0 0 0 0 0 0 0-.1c0 0 0 0 0-.1s0 0 0 0l-3 1.6s0 0 0 0v.1.1l2.1-1.1c.3 0 .5.1.7.2.2 0 .3.2.4.3v.3.3s-.1.2-.2.3c0 0-.2.2-.4.3l-1.8.9s0 0 0 0v.1.1l1.8-1zm2.4 3.5c.2-.2.3-.4.4-.5 0-.2 0-.4 0-.6s-.1-.5-.2-.7c-.1-.3-.3-.5-.5-.6s-.4-.2-.6-.3c-.2 0-.4 0-.7 0-.2 0-.5.1-.7.3-.3.1-.5.3-.6.5s-.3.3-.4.5v.6c0 .2.1.5.2.7.1.3.3.5.5.6s.4.2.6.3h.7c.2 0 .5-.1.7-.3.3-.1.5-.3.6-.5zm-1.5.1c-.2 0-.3 0-.5 0-.1 0-.3 0-.4-.2s-.2-.2-.3-.4c0-.2-.1-.3-.1-.5s0-.3.1-.4c0-.1.2-.2.3-.4.1-.1.3-.2.4-.3.2 0 .3-.2.5-.2h.5c.1 0 .3 0 .4.2s.2.2.3.4c0 .2.1.3.1.5s0 .3-.1.4c0 .1-.2.2-.3.4-.1.1-.3.2-.4.3-.2 0-.3.2-.5.2zm3 4s0 0 0 0l-.7-1.4s0 0 0 0-.1 0-.2 0c0 0-.1 0-.2.1s0 0 0 .1l.7 1.4s0 0 0 0h.2.1zm1.1 2.1s0 0 0 0l-.7-1.4s0 0 0 0-.1 0-.2 0c0 0-.1 0-.2.1s0 0 0 .1l.7 1.4s0 0 0 0h.2.1zm2.1 3.2s0 0 0 0v-3.3s0 0-.1 0c0 0-.1 0-.2 0v2.7c.1 0-2.1-1.6-2.1-1.6s0 0-.2 0c0 0 0 0-.1 0l2.7 1.9s0 0 0 0h.1s.1 0 .2-.1z"/><path d="m691.8 320.7s0 0 .1-.1l.7-.9c0-.1.2-.2.2-.3 0 0 .1-.2.2-.3s0-.2 0-.3c0 0 0-.2 0-.3.1.1.2.2.3.3.1 0 .2.1.4.1h.4c.1 0 .3 0 .4-.1.1 0 .3-.2.4-.3s.2-.2.2-.4c0-.1 0-.3 0-.4 0-.2 0-.3 0-.5 0 0 0-.1 0-.2s0-.2-.1-.3l-.5-.9s0 0-.1-.1c0 0-.1 0-.2 0l-4 2.1s0 0 0 0v.1s0 .1 0 .1l1.8-1 .2.4c0 .1.1.3.1.4v.3c0 .1 0 .2-.2.3s-.2.2-.2.3l-.8.9s0 0 0 0v.1.2s0 0 0 0zm2.2-2.3c-.1 0-.2 0-.3 0s-.2-.1-.3-.2c0 0-.2-.2-.3-.4l-.3-.6 1.5-.8.3.5c0 .1.1.2.1.3v.2.5c0 .1-.2.3-.4.3-.1 0-.2 0-.3.1zm-.9 3.5s0-.2 0-.3-.1-.2-.2-.2c0 0-.2 0-.4 0s-.2.2-.3.2v.3c0 .1.1.2.2.2s.2 0 .4 0 .2-.2.3-.2zm4.8 2.2c.1-.1.2-.2.3-.4 0-.1 0-.3 0-.4 0-.2 0-.3 0-.4s0-.2-.1-.3 0-.2-.1-.3l-.5-.9s0-.1-.1-.1-.1 0-.2 0l-4 2.1s0 0 0 0v.1s0 .1 0 .1l1.6-.8.3.5c.1.3.3.5.5.6.2.2.3.3.5.3h.6c.2 0 .4 0 .6-.2.2 0 .3-.2.4-.3zm-1.2-.1c-.1 0-.3 0-.4 0s-.2 0-.3-.2c-.1 0-.2-.2-.3-.4l-.3-.5 1.7-.9.3.5s0 .2.1.3v.4c0 .1 0 .3-.1.4 0 .1-.2.2-.4.3-.1 0-.3.1-.4.1zm-.9 3.2s0-.2 0-.3-.1-.2-.2-.2c0 0-.2 0-.4 0s-.2.2-.3.2v.3c0 .1.1.2.2.2s.2 0 .4 0 .2-.2.3-.2zm2.8 2.8c0-.1.2-.3.2-.4s0-.3 0-.4c0-.2 0-.3 0-.5s0-.3 0-.5c0-.1 0-.3 0-.4s0-.2.1-.3c0-.1.1-.2.3-.2h.3s.2 0 .3 0c0 0 .2 0 .2.2 0 0 .2.2.2.3s.1.3.1.4 0 .2 0 .3 0 .2 0 .2v.1s0 0 .1 0h.1s0 0 0-.2c0 0 0-.2 0-.3s0-.2 0-.3 0-.2-.1-.3c0-.2-.2-.3-.4-.5s-.3-.2-.4-.3c-.2 0-.3 0-.5 0s-.4 0-.5.2c-.2 0-.3.2-.4.3s-.2.3-.2.4v.4s0 .3 0 .5v.4.4c0 .1 0 .2-.1.3 0 .1-.1.2-.3.2-.1 0-.2 0-.3.1-.1 0-.2 0-.3 0s-.2-.1-.3-.2c0 0-.2-.2-.2-.3 0-.2-.1-.3-.2-.5 0-.1 0-.3 0-.4s0-.2 0-.3c0 0 0-.1 0-.2s0 0 0 0 0 0-.1 0c0 0-.1 0-.2.1v.1.2.3.4c0 .1 0 .3.2.4.1.2.2.4.4.5s.3.3.5.3.4.1.6 0 .4 0 .6-.2c.2 0 .3-.2.4-.3zm2.1 3.7s0 0 0 0l-.7-1.4s0 0 0 0-.1 0-.2 0c0 0-.1 0-.2.1s0 0 0 .1l.7 1.4s0 0 0 0h.2.1zm2 7.2s0 0 0 0l-1-1.9 1.1.3c.4.1.7.2 1 .2s.5 0 .7 0h.5c.1 0 .3-.1.4-.2.2 0 .3-.2.4-.3s.2-.3.2-.4c0-.2 0-.3 0-.5s0-.4-.2-.6c0-.1-.1-.2-.2-.4 0-.1-.2-.2-.3-.3 0 0-.2-.1-.2-.2 0 0-.1 0-.2 0s0 0 0 0 0 0-.1 0 0 0 0 0h.1s.1 0 .2.1c0 0 .2.1.3.2s.2.2.3.3c0 .1.1.2.1.3v.3s0 .2-.2.3c0 0-.2.1-.2.2 0 0-.2 0-.3.1-.1 0-.3 0-.4 0s-.4 0-.6 0-.5 0-.8-.2l-1.3-.4s0 0-.1 0 0 0-.1 0c0 0 0 0-.1 0 0 0 0 0-.1 0s0 0 0 0l1.3 2.4s0 0 0 0h.1.1zm5.7 1.5s0 0 0 0l-1.3-2.5s0 0 0 0 0 0-.1 0c0 0-.1 0-.2.1v.1l1.1 2.1-4.5.3s0 0 0 0v.1.2.1s0 0 0 0l4.4-.3s0 0 .1 0h.1.1.1zm-2.1 5.4s0 0 0 0l-.4-.8 3.8-2s0 0 0 0 0 0 0-.1 0 0 0 0l-1.2-.7s0 0 0 0 0 0-.1 0l.9.6-3.3 1.7-.5-.9s0 0 0 0 0 0-.1 0c0 0 0 0-.1 0s0 0 0 0l1.2 2.3s0 0 0 0h.1z"/><path d="m607.2 238.4 30.6 7.4-2.3-20.7m3.4-.2 2.5 21.8 43.2 10.6 3.2 33.1 1.8 2 84.6 20.3m0 14-78.3-18.7-6.5-11.9.7-1.3 84.1 20.3m-89.6-57.8 89.6 21.6m-88.5-10.1 25.7 6.3 2.7-10.8m-27.9 10.4 23.9 5.6 1.3-5.2m-11.7 19.6 3.8-16m-16.4 3.9 14.6 3.4m13.3 12.5 7.6-32m3 34.5 7.7-32m16.3 37.8 5.4-32.6m13.7 37.2 5.6-23.9m-39.7 29.7 2.7-10.8m-23.4 5.8 2.5-10.8m-24.4 108.7 63.4 15.5-65.7-122.6-2.7-5.4-5-4.5-46.3-9m45.5-24.1-7 28.8m12.1 3c-.6 0-1.2.5-1.2 1.2s.5 1.2 1.2 1.2 1.2-.5 1.2-1.2-.5-1.2-1.2-1.2m-455.7 209.2 62.6-4 164.5-43.9 67.1-58.7 28.3-9.9m-.1-0c8.3-3.4 15-9.7 19.1-17.6m0 0 21.4-79.2m6.5-7.5c-3.3 1.2-5.7 3.9-6.6 7.3m13.7-8.4c-2.4 0-4.8.5-7.1 1.2m-446.9 177.8-65.3-48.8m-.2-.1c-7.7-5.7-17-8.8-26.6-8.8m0 .1c-7 0-13.9 1.2-20.4 3.5m.1 0-13.9 11.3m123.7 46.3-65.3-48.8m-.2-.1c-6.9-5.2-15.4-8-24.1-8m.1 0c-6.2 0-12.4 1-18.3 3m.2 0-13.3 11m120.9 42.9 24.8 19.1 21.2 13.1 10.6 4.9m-.1-.1c2.4 1.1 5 1.7 7.7 1.9m0-.1c5.2.2 10.4.4 15.7.4m376.4-227.3-.9 3.4m2.2-3.3-1.1 3.4m1.6.4-1.1 3.4m2.6-3.2-.9 3.4" fill="none" stroke="#231f20" stroke-linecap="round" stroke-linejoin="round"/><path d="m189.3 486.4s0 0 0 0l-1.1-.6s0 0 0 0 0 0-.1.1v.2l1.1.6s0 0 0 0 0 0 .1-.1zm1.6 1s0 0 0 0l-1.1-.6s0 0 0 0 0 0-.1.1v.2l1.1.6s0 0 0 0 0 0 .1-.1z"/><path d="m193.7 488.7s0 0 0 0l-1.4-2.2s0 0 0 0 0 0 0 .1v.1l1.2 1.8-2.1-.2s0 0 0 0v.1l2.6.2s0 0 0 0v-.1z"/><path d="m169.7 473.3 1.5-.7s0 0 0-.2c0 0 0-.2-.1-.3 0-.2-.2-.3-.2-.3s-.1 0-.2 0l-1.3.9.2-1.6v-.1s-.2 0-.4 0-.3 0-.4 0v.1l.2 1.6-1.3-.9s-.1 0-.2 0c0 0-.1.1-.2.3 0 .2-.1.3-.1.3v.2l1.5.7-1.5.7v.1s0 .2.1.3c0 .2.2.3.2.3h.2l1.3-1-.2 1.6v.1h.4s.3 0 .4 0c0 0 0 0 0-.1l-.2-1.6 1.3 1s.1 0 .2 0c0 0 .1-.1.2-.3 0-.2.1-.3.1-.3v-.1z"/><path d="m176.9 478.1c0-.1.1-.3.2-.4 0-.1 0-.3 0-.4s0-.2 0-.4c0-.1 0-.2-.2-.3 0-.1-.2-.2-.3-.3-.2-.1-.4-.2-.6-.2s-.3 0-.5 0-.3.1-.4.2-.2.2-.3.4c0 .1-.2.3-.2.4v.4c0 .1 0 .3.2.4 0 .1.2.2.4.4.2.1.3.2.5.2s.3 0 .4 0c-.1.2-.2.3-.3.4s-.3.2-.4.3c-.1 0-.3 0-.4 0s-.3 0-.5-.2c0 0-.2-.1-.2-.2 0 0-.1-.1-.2-.2 0 0 0 0-.1-.1s0 0 0 0v.1s0 0 .1.1c0 0 .1 0 .2.2 0 0 .1.1.2.1.2.1.4.2.5.2h.5c.2 0 .3 0 .5-.1.1 0 .3-.2.4-.3s.2-.2.4-.4c.1-.1.2-.3.3-.4 0-.1.2-.3.2-.4zm-1 .1c-.1 0-.3 0-.4-.2-.1 0-.2-.1-.3-.2s0-.2-.1-.2 0-.2 0-.3c0 0 0-.2.1-.3 0 0 .1-.2.2-.2 0 0 .2-.1.3-.2h.3c.1 0 .2 0 .3.1.1 0 .2.1.2.2v.3.4c0 .2-.2.4-.3.6-.1 0-.3 0-.4 0zm3.7 4.6s0 0 0-.1l-.2-2.3 1.9-.6h.1s0 0 0 0 0 0-.1 0c0 0 0 0-.1 0s0 0 0 0l-2.1.7.9-1.5s0 0 0 0 0 0-.1 0c0 0 0 0-.1 0l-2 3.1s0 0 0 0h.1s0 0 0 0l1-1.6.2 2.4s0 0 0 0 0 0 .1 0h.1s0 0 0 0zm4.8 1c0-.1.1-.3.2-.4 0-.1 0-.3 0-.4s0-.2-.1-.4c0-.1-.2-.2-.3-.3 0 0-.1 0-.2 0s-.1 0-.2 0c0 0-.2 0-.3 0s-.2 0-.3 0v-.2-.2s0-.1-.1-.2-.1-.1-.2-.2c-.1 0-.3-.1-.4-.1-.2 0-.4 0-.6 0l.2-.3s0 0 0 0l-1.4 2.3s0 0 0 0h.1s0 0 0 0l1-1.6c.2 0 .4-.1.5-.1h.4s.1.1.2.2v.2.3s0 .2-.1.3l-.9 1.4s0 0 0 0h.1l1-1.6c.2 0 .4-.1.5-.1h.4s.1.1.2.2v.2.3s0 .2-.1.3l-.9 1.4s0 0 0 0h.1.1l.9-1.4z"/><path d="m680.5 295.7 1.5-.7s0 0 0-.2c0 0 0-.2-.1-.3 0-.2-.2-.3-.2-.3s-.1 0-.2 0l-1.3.9.2-1.6v-.1s-.2 0-.4 0-.3 0-.4 0v.1l.2 1.6-1.3-.9s-.1 0-.2 0c0 0-.1.1-.2.3 0 .2-.1.3-.1.3v.2l1.5.7-1.5.7v.1s0 .2.1.3c0 .2.2.3.2.3h.2l1.3-1-.2 1.6v.1h.4s.3 0 .4 0c0 0 0 0 0-.1l-.2-1.6 1.3 1s.1 0 .2 0c0 0 .1-.1.2-.3 0-.2.1-.3.1-.3v-.1z"/><path d="m764 436.5s0 0 0 0l-.2-.4 2.2-1.2s0 0 0 0 0 0 0-.1c0 0 0 0 0-.2 0 0 0 0 0-.1s0 0 0 0h-2.7s0 0 0 0l.8 1.4-.7.4s0 0 0 0v.1.1s0 0 0 0l.7-.4.2.4s0 0 0 0h.2s.1 0 .1-.1zm-.5-.9-.6-1.1h2.5l-1.9 1zm1.7 5.5s0 0 0-.1l.9-2.1 2 .4h.1s0 0 0-.1 0 0 0-.1 0 0 0 0l-2.2-.4 1.5-.8s0 0 0 0 0 0 0-.1c0 0 0 0 0-.1s0 0 0 0l-3.3 1.8s0 0 0 0v.1.1l1.7-.9-1 2.2s0 0 0 0v.1.2.1zm3.6 3.2c.1 0 .3-.2.4-.2s.2-.2.2-.3 0-.2 0-.4c0-.1 0-.3-.1-.4 0 0 0-.1-.1-.2 0 0-.1-.1-.2-.1s-.2 0-.3-.1-.2 0-.3-.1c0 0 0-.1.1-.2v-.2s0-.2 0-.3 0-.2-.1-.3c0-.1-.2-.2-.3-.3-.1 0-.3-.2-.5-.2l.3-.2s0 0 0 0l-2.4 1.3s0 0 0 0v.1.1s0 0 0 0l1.6-.9c.2 0 .4 0 .5.1.1 0 .2.1.3.2v.2.2s0 .1-.2.2c0 0-.2.1-.3.2l-1.4.8s0 0 0 0v.1.1s0 0 0 0l1.6-.9c.2 0 .4 0 .5.1.1 0 .2.1.3.2v.2.2s0 .1-.2.2-.2.1-.3.2l-1.4.8s0 0 0 0v.1.1s0 0 0 0l1.5-.8z"/><path d="m54.6 75.9v-41.7" fill="none" stroke="#231f20" stroke-linecap="round" stroke-linejoin="round"/><path d="m52.4 92.3v-59.6" fill="none" stroke="#231f20" stroke-linecap="round" stroke-linejoin="round" stroke-width="1.1"/><path d="m40.5 75.9h23.9" fill="none" stroke="#231f20" stroke-linecap="round" stroke-linejoin="round"/><path d="m56 29.2h.2v-5.7c0-.4 0-.6 0-.8s.1-.3.2-.4c.2-.2.5-.3.8-.3 0-.1-2.5-.1-2.5-.1.2.1.4.2.5.2s.2.1.3.2.2.3.2.4v.8 3.9l-4.4-5.6h-2.1c.2.1.4.2.5.2s.2.1.3.2.2.3.2.4v.8 4 .8c0 .2-.1.3-.2.4s-.2.2-.3.2-.3 0-.5 0c0 .1 2.5.1 2.5.1-.2-.1-.4-.2-.5-.2s-.2-.1-.3-.2-.2-.3-.2-.4c0-.2 0-.5 0-.8v-4.7l5.1 6.4z"/></svg>