<svg viewBox="0 0 595.3 841.9" xmlns="http://www.w3.org/2000/svg"><path d="m388.3 47.9-30.2-.3-91.2 24.5-3.4 3.6-8.9 4.4-18-.3-3.3 17.6-118.1 648 42.7 31.9 13.9 7.7 12.8 5.7 13 4.5 15.1 3.2 18.7 1.9 33.8 2.2z" fill="none" stroke="#231f20" stroke-linecap="round" stroke-linejoin="round" stroke-width="1.1"/><path d="m234.7 74.2h-.4c0 .2-.3.4-.5.7-.2.2-.5.4-.8.6v.6c.2 0 .4-.2.6-.3s.4-.3.5-.4l.2 3.7h.6s-.2-4.8-.2-4.8z"/><path d="m252.3 77.7c0-.1.1-.2.2-.3s.3-.3.7-.6c.4-.4.7-.6.9-.8s.3-.4.4-.6c0-.2.1-.4.1-.6 0-.4-.1-.7-.4-.9-.3-.3-.6-.4-1.1-.4s-.8.1-1.1.4c-.3.2-.4.6-.5 1h.6c0-.2 0-.5.3-.6.2-.2.4-.3.7-.3s.5 0 .7.2.2.4.2.6 0 .5-.3.7-.5.6-1.1 1c-.3.3-.6.5-.8.7s-.3.4-.4.6v.4h3.2v-.6h-2.3z"/><path d="m259.9 74.3c.3.3.6.4 1 .4s.9-.1 1.2-.4.5-.6.5-1.1 0-.6-.2-.8-.4-.3-.7-.4c.2-.1.4-.2.5-.4s.2-.4.2-.6 0-.4-.2-.6c-.1-.2-.3-.3-.5-.5-.2-.1-.5-.2-.7-.2-.4 0-.7.1-.9.3-.3.2-.4.5-.5.9h.6c0-.2.1-.4.3-.5s.3-.2.6-.2.4 0 .6.2c.1.1.2.3.2.5s-.1.5-.3.6-.4.2-.7.2 0 0 0 0v.5h.3c.3 0 .5 0 .7.3.2.2.3.4.3.7s0 .5-.3.7c-.2.2-.4.3-.7.3s-.4 0-.6-.2c-.2-.1-.3-.4-.3-.7h-.6c0 .5.2.8.5 1.1z"/><path d="m268.1 68v-1.1h.6v-.5h-.6v-3.1h-.5l-2.2 3.1v.5h2.1v1.1zm-2.1-1.7 1.5-2.2v2.2z"/><path d="m355.9 45.7c.3.2.6.4 1.1.4s1-.2 1.3-.6c.3-.3.4-.7.4-1.1s-.1-.8-.4-1.1-.6-.4-1.1-.4-.6.1-.9.3l.3-1.3h1.9v-.6h-2.4l-.5 2.5h.6s.2-.2.4-.3c.2 0 .3-.1.5-.1.3 0 .6 0 .7.3.2.2.3.5.3.8s0 .6-.3.8c-.2.2-.4.3-.7.3s-.4 0-.6-.2-.3-.4-.3-.7h-.6c0 .5.2.8.5 1z"/><path d="m386.4 45.8c0-.1.1-.2.2-.3 0-.1.3-.3.7-.6.4-.4.7-.6.9-.9.2-.2.3-.4.4-.6 0-.2.1-.4.1-.6 0-.4-.1-.7-.4-.9s-.6-.4-1.1-.4-.8.1-1.1.4c-.3.2-.4.6-.5 1h.6c0-.2 0-.5.2-.7s.4-.3.7-.3.5 0 .7.2.3.4.3.6 0 .5-.3.7-.5.6-1 1c-.3.3-.6.5-.8.7s-.3.4-.4.6v.4h3.2s0-.6 0-.6h-2.3zm3.4.1c.3.3.6.5 1.1.5.4 0 .6-.1.9-.3.2-.2.4-.5.5-.8s.2-.8.2-1.4c0-.5 0-.9-.1-1.1 0-.3-.2-.5-.3-.7s-.3-.3-.5-.4-.4-.1-.7-.1-.6.1-.9.3c-.2.2-.4.5-.5.8s-.2.8-.2 1.4c0 .9.2 1.5.5 1.9zm.4-3.6c.2-.2.4-.3.6-.4.3 0 .5.1.7.4s.3.8.3 1.6 0 1.3-.3 1.6c-.2.3-.4.4-.7.4s-.5-.1-.7-.4-.3-.8-.3-1.6 0-1.3.3-1.6z"/><path d="m393.3 44.1c-.2.2-.2.5-.2.8 0 .4.2.8.4 1 .3.3.7.4 1.1.4.5 0 .9-.2 1.1-.4.3-.3.4-.6.4-1 0-.3 0-.5-.2-.8-.2-.2-.4-.4-.7-.5.2 0 .4-.2.5-.4s.2-.4.2-.6c0-.3-.1-.6-.4-.9s-.6-.4-1-.3c-.4 0-.7.1-1 .4-.2.2-.4.5-.4.9 0 .2 0 .4.2.6.1.2.3.3.5.4-.3 0-.5.2-.7.4zm.7-2c.1-.1.3-.2.6-.2.2 0 .4 0 .6.2.2.1.2.3.2.5s0 .4-.2.5c-.1.1-.3.2-.6.2-.2 0-.4 0-.6-.2-.1-.1-.2-.3-.2-.6 0-.2 0-.4.2-.5zm-.1 2.1c.2-.2.4-.3.7-.3s.5 0 .7.3.3.4.3.7 0 .5-.3.7c-.2.2-.4.3-.7.3-.2 0-.3 0-.5-.1-.2 0-.3-.2-.4-.4 0-.2-.1-.3-.1-.5 0-.3 0-.5.3-.7z"/><path d="m262.8 810.4c0-.1.1-.2.2-.3 0-.1.3-.3.7-.6.4-.4.7-.6.9-.9.2-.2.3-.4.4-.6 0-.2.1-.4.1-.6 0-.4-.1-.7-.4-.9s-.6-.4-1.1-.4-.8.1-1.1.4c-.3.2-.4.6-.5 1h.6c0-.2 0-.5.2-.7s.4-.3.7-.3.5 0 .7.2.3.4.3.6 0 .5-.3.7c-.2.3-.5.6-1 1-.3.3-.6.5-.8.7s-.3.4-.4.6v.4h3.2s0-.6 0-.6h-2.3zm3.4.1c.3.3.6.5 1.1.5.4 0 .6-.1.9-.3.2-.2.4-.5.5-.8s.2-.8.2-1.4c0-.5 0-.9-.1-1.1 0-.3-.2-.5-.3-.7s-.3-.3-.5-.4-.4-.1-.7-.1-.6.1-.9.3c-.2.2-.4.5-.5.8s-.2.8-.2 1.4c0 .9.2 1.5.5 1.9zm.4-3.6c.2-.2.4-.3.6-.4.3 0 .5.1.7.4s.3.8.3 1.6 0 1.3-.3 1.6c-.2.3-.4.4-.7.4s-.5-.1-.7-.4-.3-.8-.3-1.6 0-1.3.3-1.6zm3.4 3.7c.2.2.5.3.9.3s.7-.1.9-.3c.3-.2.5-.5.6-.8.1-.4.2-.9.2-1.5s0-1-.2-1.3-.3-.5-.6-.7-.5-.2-.9-.2-.8.2-1.1.5-.4.7-.4 1.2.1.8.4 1.1.6.4 1 .4c.2 0 .5 0 .7-.2.2-.1.4-.3.5-.5v.1.7c0 .2-.1.4-.2.6 0 .1-.2.3-.3.3s-.3.1-.5.1-.4 0-.5-.2c-.1-.1-.2-.3-.3-.6h-.6c0 .4.2.7.4.9zm1.7-2.2c-.2.2-.4.3-.7.3s-.5 0-.7-.3c-.2-.2-.3-.4-.3-.7s0-.6.3-.8c.2-.2.4-.3.7-.3s.5 0 .7.3c.2.2.3.5.3.8s0 .6-.3.8z"/><path d="m228.7 808.2c.3.2.6.4 1.1.4s.8-.2 1.1-.5.4-.7.4-1.1c0-.3 0-.6-.3-.8-.2-.2-.4-.3-.7-.4.2-.1.4-.2.5-.4s.2-.4.2-.6 0-.4-.2-.6c-.1-.2-.3-.3-.5-.4s-.5-.2-.7-.2c-.4 0-.7.1-.9.3s-.4.5-.5.9h.6c0-.2.1-.4.3-.6.1-.1.3-.2.6-.2.2 0 .4 0 .6.2.1.1.2.3.2.5 0 .3 0 .5-.3.6-.2.1-.4.2-.7.2v.5h.4c.3 0 .5 0 .7.2s.3.4.3.7 0 .5-.3.7c-.2.2-.4.3-.7.3-.2 0-.4 0-.6-.2-.2-.1-.3-.4-.4-.7h-.6c0 .5.2.8.5 1.1zm3.8 0c.2.2.5.3.9.3s.7-.1.9-.3c.3-.2.4-.5.6-.8.1-.4.2-.9.2-1.5s0-1-.2-1.3c-.1-.3-.3-.5-.6-.7s-.5-.2-.9-.2-.8.2-1.1.5-.4.7-.4 1.2.2.8.4 1.1c.3.3.6.4 1 .4.2 0 .5 0 .7-.2.2-.1.4-.3.5-.5v.1.7c0 .2-.1.4-.2.6 0 .1-.2.3-.3.3s-.3.1-.5.1-.4 0-.5-.2c-.1-.1-.2-.3-.3-.6h-.6c0 .4.2.7.4.9zm1.7-2.2c-.2.2-.4.3-.7.3s-.5 0-.7-.3c-.2-.2-.3-.4-.3-.7s0-.6.3-.8c.2-.2.4-.3.7-.3s.5 0 .7.3c.2.2.3.5.3.8s0 .6-.2.8z"/><path d="m212 806.6v-1.1s.6 0 .6 0v-.5s-.7 0-.7 0v-3.1h-.6l-2.1 3.2v.5s2.1 0 2.1 0v1.1s.6 0 .6 0zm-2.1-1.6 1.4-2.2v2.2s-1.4 0-1.4 0zm3.9 1.1c.3.3.6.5 1.1.5.4 0 .6-.1.9-.3.2-.2.4-.5.5-.8s.2-.8.1-1.4c0-.5 0-.9-.1-1.1 0-.3-.2-.5-.3-.7s-.3-.3-.5-.4c-.2 0-.4-.1-.7-.1s-.6.1-.9.3c-.2.2-.4.5-.5.8s-.2.8-.1 1.4c0 .9.2 1.5.5 1.9zm.3-3.5c.2-.2.4-.4.6-.4.3 0 .5.1.7.4s.3.8.3 1.6 0 1.3-.2 1.6-.4.4-.7.4-.5-.1-.7-.4-.3-.8-.3-1.6 0-1.3.3-1.6z"/><path d="m194.9 803v-1.1h.6v-.5h-.6v-3.1h-.5l-2.2 3.1v.5h2.1v1.1zm-2.1-1.6 1.5-2.2v2.2zm5.6-3.2h-.4c-.1.2-.3.4-.5.6s-.5.4-.9.6v.6c.2 0 .4-.2.6-.3s.4-.3.6-.4v3.7h.6z"/><path d="m182.2 798.8v-1.1h.6v-.5h-.6v-3.1h-.5l-2.2 3.1v.5h2.1v1.1zm-2.1-1.7 1.5-2.2v2.2zm4.1 1.1c0-.1.1-.2.2-.3s.3-.3.7-.6c.4-.4.7-.6.9-.8s.3-.4.4-.6c0-.2.1-.4.1-.6 0-.4-.1-.7-.4-.9s-.6-.4-1.1-.4-.8.1-1.1.4c-.3.2-.4.6-.5 1h.6c0-.2 0-.5.3-.6.2-.2.4-.3.7-.3s.5 0 .7.2.2.4.2.6 0 .5-.3.7c-.2.2-.5.6-1.1 1-.3.3-.6.5-.8.7s-.3.4-.4.6v.4h3.2v-.6h-2.3z"/><path d="m167.6 793v-1.1s.6 0 .6 0v-.5s-.7 0-.7 0v-3.1h-.6l-2.1 3.2v.5s2.1 0 2.1 0v1.1s.6 0 .6 0zm-2.1-1.6 1.4-2.2v2.2s-1.4 0-1.4 0zm3.9 1.3c.3.2.6.4 1.1.4s.8-.2 1.1-.5.4-.7.4-1.1c0-.3 0-.6-.3-.8-.2-.2-.4-.3-.7-.4.2-.1.4-.2.5-.4s.2-.4.2-.6 0-.4-.2-.6c-.1-.2-.3-.3-.5-.4s-.5-.2-.7-.2c-.4 0-.7.1-.9.3s-.4.5-.5.9h.6c0-.2.1-.4.3-.6.1-.1.3-.2.6-.2.2 0 .4 0 .6.2.1.1.2.3.2.5 0 .3 0 .5-.3.6-.2.1-.4.2-.7.2v.5h.4c.3 0 .5 0 .7.2s.3.4.3.7 0 .5-.3.7c-.2.2-.4.3-.7.3-.2 0-.4 0-.6-.2-.2-.1-.3-.4-.4-.7h-.6c0 .5.2.8.5 1.1z"/><path d="m153.4 785.7v-1.1s.6 0 .6 0v-.5s-.7 0-.7 0v-3.1h-.6l-2.1 3.2v.5s2.1 0 2.1 0v1.1s.6 0 .6 0zm-2.1-1.7 1.4-2.2v2.2s-1.4 0-1.4 0zm5.8 1.6v-1.1s.6 0 .6 0v-.5s-.7 0-.7 0v-3.1h-.6l-2.1 3.2v.5s2.1 0 2.1 0v1.1s.6 0 .6 0zm-2.1-1.6 1.4-2.2v2.2s-1.4 0-1.4 0z"/><path d="m107.3 751.2v-1.1s.6 0 .6 0v-.5s-.7 0-.7 0v-3.1h-.6l-2.1 3.2v.5s2.1 0 2.1 0v1.1s.6 0 .6 0zm-2.1-1.6 1.4-2.2v2.2s-1.4 0-1.4 0zm3.8 1.3c.3.2.6.4 1.1.3.5 0 .9-.2 1.2-.6.2-.3.4-.7.4-1.1 0-.5-.2-.8-.5-1.1s-.6-.4-1.1-.4c-.3 0-.6.1-.9.3l.2-1.3h1.9s0-.6 0-.6h-2.4s-.4 2.5-.4 2.5h.6s.2-.2.4-.3c.2 0 .3-.1.5-.1.3 0 .6 0 .7.3.2.2.3.5.3.8 0 .4 0 .6-.3.9-.2.2-.4.3-.7.3-.2 0-.4 0-.6-.2-.2-.1-.3-.4-.3-.7h-.6c0 .5.2.8.5 1z"/><path d="m152.5 431.8-2.1-.5.3-1.4c.2-.7.1-1.3-.1-1.6-.3-.4-.6-.6-1.1-.7-.3 0-.5 0-.8 0-.2 0-.4.2-.6.3s-.3.4-.4.6c0 .2-.1.4-.2.8l-.4 2 5.3 1.1v-.7h.1zm-4.7-.9.3-1.4c0-.3.1-.5.2-.6 0-.2.2-.3.4-.4h.6c.3 0 .5.2.7.4.1.2.1.6 0 1l-.3 1.4zm6.1-5.8v-.7s-.2 0-.4 0-.5 0-1.2-.2l-.9-.2c-.3 0-.5 0-.6 0-.2 0-.3 0-.5.1-.1 0-.3.2-.4.4s-.2.4-.3.8v.9c0 .3.1.5.3.7.1.2.3.3.6.4l.2-.6c-.3-.1-.4-.3-.5-.4 0-.2 0-.4 0-.7s.2-.6.4-.7c.1 0 .3-.1.6 0h.2v1.2.6c0 .2 0 .4.1.5s.2.3.3.4.3.2.5.2c.3 0 .6 0 .9-.2s.4-.5.5-.9c0-.3 0-.5 0-.7s-.1-.5-.3-.8h.5zm-1.7-.2c.3 0 .5.1.6.2.2.1.3.3.4.5v.7c0 .3-.2.4-.3.5s-.3.1-.5.1c-.1 0-.2 0-.3-.2 0 0-.1-.2-.2-.3 0-.1 0-.3 0-.6 0-.5 0-.9 0-1.1h.2zm2.1-2-2-.4c-.3 0-.5-.1-.7-.3-.1 0-.2-.2-.3-.3 0-.1 0-.3 0-.4 0-.2.1-.3.2-.4l-.6-.3c-.2.2-.3.4-.3.6v.4s.2.3.5.5h-.6c0-.1-.1.5-.1.5l3.8.8v-.6h.1zm.2-4.1c.1.2.2.4.1.7 0 .3-.2.5-.5.7-.3.1-.7.2-1.2 0-.5-.1-.9-.3-1-.5-.2-.3-.3-.5-.2-.9 0-.2.1-.4.3-.5s.4-.2.6-.2v-.7c-.4 0-.7 0-1 .3-.3.2-.4.5-.5 1v1c0 .3.3.6.6.8s.6.3 1 .4c.6.1 1.2 0 1.6-.2s.7-.6.8-1.2c0-.4 0-.8-.2-1.1s-.5-.6-.9-.8l-.2.6c.3.1.5.3.7.5zm.8-3.7c0 .2.1.4 0 .6 0 .3-.2.6-.5.7-.3.2-.6.2-1 .2l.6-2.9s-.1 0-.2 0c-.6-.1-1.2 0-1.6.2-.4.3-.7.6-.8 1.1s0 1 .3 1.4.8.7 1.4.8 1.1 0 1.6-.2c.4-.3.7-.7.8-1.2 0-.4 0-.8 0-1.2-.2-.3-.4-.6-.8-.8l-.2.7c.3.2.4.3.5.5zm-2.7.9c-.2-.2-.2-.5-.1-.8 0-.3.3-.6.5-.7s.4-.1.8 0l-.4 2.1c-.3 0-.6-.3-.7-.5zm3.9-3.3-5.3-1.1v.6c-.1 0 5.1 1.1 5.1 1.1v-.6h.1zm.8-3.6v-.7s-.2 0-.4 0-.5 0-1.2-.2l-.9-.2c-.3 0-.5 0-.6 0-.2 0-.3 0-.5.1-.1 0-.3.2-.4.4s-.2.4-.3.8v.9c0 .3.1.5.3.7.1.2.3.3.6.4l.2-.6c-.3-.1-.4-.3-.5-.4 0-.2 0-.4 0-.7s.2-.6.4-.7c.1 0 .3-.1.6 0h.2v1.2.6c0 .2 0 .4.1.5s.2.3.3.4.3.2.5.2c.3 0 .6 0 .9-.2s.4-.5.5-.9c0-.3 0-.5 0-.7s-.1-.5-.3-.8h.5zm-1.8-.2c.3 0 .5.1.6.2.2.1.3.3.4.5v.7c0 .3-.2.4-.3.5s-.3.1-.5.1c-.1 0-.2 0-.3-.2 0 0-.1-.2-.2-.3 0-.1 0-.3 0-.6 0-.5 0-.9 0-1.1h.2zm2.4-6.2c-.1 0-.2-.2-.3-.3 0-.1-.3-.4-.5-.9-.3-.5-.5-.9-.7-1.2-.2-.2-.4-.4-.6-.6-.2-.1-.4-.2-.6-.3-.4 0-.8 0-1.1.2s-.6.6-.7 1.1 0 .9.1 1.3c.2.4.5.6 1 .8l.2-.7c-.3 0-.6-.2-.7-.4s-.2-.5-.1-.8c0-.3.2-.5.4-.7.2-.1.5-.2.7-.1.2 0 .5.2.7.5s.5.7.9 1.4c.2.4.4.8.6 1l.6.6c.1 0 .3.1.4.2l.7-3.5h-.6c0-.1-.5 2.5-.5 2.5zm1.2-3.7c.3-.2.5-.6.7-1.1.1-.6 0-1.1-.4-1.5-.3-.4-.7-.6-1.2-.7s-.9 0-1.3.2c-.4.3-.6.6-.7 1.1 0 .3 0 .7.1 1.1l-1.4-.6.4-2.1h-.6c0-.1-.6 2.5-.6 2.5l2.6 1.1.2-.6c-.1-.1-.2-.3-.3-.5 0-.2 0-.4 0-.6 0-.3.2-.6.5-.7.3-.2.6-.2.9-.1.4 0 .7.3.9.5.2.3.3.6.2.9 0 .3-.2.5-.4.6s-.5.2-.8.2v.7c.4 0 .8 0 1.1-.3zm.6-4.5c-.1 0-.2-.2-.3-.3 0-.1-.3-.4-.5-.9-.3-.5-.5-.9-.7-1.2-.2-.2-.4-.4-.6-.6-.2-.1-.4-.2-.6-.3-.4 0-.8 0-1.1.2s-.6.6-.7 1.1 0 .9.1 1.3c.2.4.5.6 1 .8l.2-.7c-.3 0-.6-.2-.7-.4s-.2-.5-.1-.8c0-.3.2-.5.4-.7.2-.1.5-.2.7-.1.2 0 .5.2.7.5s.5.7.9 1.4c.2.4.4.8.6 1s.4.4.6.6c.1 0 .3.1.4.2l.7-3.5h-.6c0-.1-.5 2.5-.5 2.5zm1.9-5.9-1.3-.3v-.7c.1 0-.4-.1-.4-.1v.7c-.1 0-3.6-.7-3.6-.7v.5c-.1 0 2.8 3.1 2.8 3.1h.6c0 .1.5-2.2.5-2.2l1.3.3v-.6zm-2.4 1.9-2-2.2 2.4.5-.3 1.7zm1.5-5.5h-.7c0-.1-.4 1.9-.4 1.9h.7c0 .1.4-1.9.4-1.9zm1.2-1.2c-.1 0-.2-.2-.3-.3 0-.1-.3-.4-.5-.9-.3-.5-.5-.9-.7-1.2-.2-.2-.4-.4-.6-.6-.2-.1-.4-.2-.6-.3-.4 0-.8 0-1.1.2s-.6.6-.7 1.1 0 .9.1 1.3c.2.4.5.6 1 .8l.2-.7c-.3 0-.6-.2-.7-.4s-.2-.5-.1-.8c0-.3.2-.5.4-.7.2-.1.5-.2.7-.1.2 0 .5.2.7.5s.5.7.9 1.4c.2.4.4.8.6 1s.4.4.6.6c.1 0 .3.1.4.2l.7-3.5h-.6c0-.1-.5 2.5-.5 2.5zm1-3.7c.4-.2.7-.6.8-1.1 0-.4 0-.7-.1-1-.2-.3-.4-.5-.8-.8-.4-.2-.8-.4-1.5-.5-.5-.1-.9-.2-1.3-.1-.3 0-.6 0-.9.2-.2 0-.4.2-.6.4s-.3.4-.3.7c0 .4 0 .7.1 1 .2.3.4.5.8.8.4.2.8.4 1.5.5 1 .2 1.7.2 2.3 0zm-3.9-1.3c-.2-.2-.3-.5-.2-.8 0-.3.3-.5.6-.7.3-.1.9-.1 1.8 0 .9.2 1.4.4 1.7.7.2.3.3.5.3.8s-.3.5-.6.7c-.3.1-.9.1-1.8 0-.9-.2-1.4-.4-1.7-.7zm4.9-2.8c.3-.2.6-.6.7-1.1s0-1-.2-1.4c-.3-.4-.6-.7-1.1-.8-.3 0-.6 0-.9 0-.3.1-.5.3-.6.6 0-.3-.2-.5-.3-.6-.2-.2-.4-.3-.6-.3s-.5 0-.7 0-.4.2-.6.5c-.2.2-.3.5-.4.8 0 .4 0 .8.1 1.1.2.3.5.6.9.8l.3-.6c-.3-.1-.5-.3-.6-.5s-.2-.4-.1-.7c0-.3.2-.4.4-.6.2-.1.4-.2.6-.1.3 0 .5.2.6.5 0 .3.1.5 0 .8v.1l.6.2c0-.2 0-.4 0-.5 0-.3.2-.5.4-.7s.5-.2.8-.1c.3 0 .6.2.7.5.2.3.2.5.2.8s-.2.5-.4.6-.5.2-.9.2v.7c.4 0 .8 0 1.1-.3zm.9-4.2c.3-.2.5-.5.6-.9 0-.4 0-.8 0-1.1-.1-.3-.4-.6-.8-.8s-.9-.4-1.6-.6c-.6-.1-1.2-.2-1.5 0-.4 0-.7.2-.9.5-.2.2-.4.5-.5.9 0 .5 0 .9.2 1.3.3.4.7.6 1.2.7s1 0 1.3-.2c.4-.2.6-.6.7-1 0-.3 0-.5 0-.8s-.2-.5-.4-.6h.1c.3 0 .5.1.8.3.2.1.4.2.6.4.1.1.2.3.3.4v.6c0 .2-.2.4-.3.5-.2.1-.4.2-.7.2v.6c.4 0 .7 0 1-.3zm-2-2.4c.2.2.2.5.2.8s-.2.5-.5.7-.5.2-.9.1c-.4 0-.7-.2-.8-.5-.2-.3-.3-.5-.2-.8 0-.3.2-.5.5-.6.3-.2.6-.2.9-.1.4 0 .6.2.8.5z"/><path d="m342.2 450.3-2.2-.3.2-1.4c.1-.8 0-1.3-.2-1.6-.3-.3-.6-.5-1.1-.6-.3 0-.5 0-.8 0-.2 0-.4.2-.6.4s-.3.4-.3.6-.1.5-.2.8l-.3 2 5.3.8v-.7h.1zm-4.7-.7.2-1.4c0-.3 0-.5.1-.7 0-.2.2-.3.4-.4.2 0 .4-.1.6 0 .3 0 .5.2.7.4.1.2.2.6.1 1l-.2 1.4zm5.7-6.1v-.7s-.2 0-.4 0-.6 0-1.2-.1h-.9c-.3-.2-.5-.2-.6-.2-.2 0-.3 0-.5.1-.1 0-.3.2-.4.4s-.2.5-.2.8v.9c0 .3.2.5.3.6.1.2.4.3.6.4l.2-.6c-.3-.1-.4-.2-.5-.4 0-.2-.1-.4 0-.7 0-.3.2-.6.3-.7s.3-.1.6-.1h.2v1.2.6c0 .2 0 .3.1.5 0 .2.2.3.3.4s.3.2.5.2c.3 0 .6 0 .8-.2s.4-.5.5-.9c0-.3 0-.5 0-.7s-.2-.5-.3-.8h.5zm-1.7-.1c.3 0 .5.1.6.2.2.1.3.3.4.5 0 .2.1.4 0 .7 0 .3-.1.4-.3.6-.1.1-.3.2-.5.1-.1 0-.2 0-.3-.1s-.1-.2-.2-.3c0-.1 0-.3 0-.6 0-.5 0-.9 0-1.1h.2zm2-2.1-2-.3c-.3 0-.5-.1-.7-.2-.1 0-.3-.2-.3-.3s0-.3 0-.4c0-.2 0-.3.2-.5l-.6-.3c-.2.2-.3.4-.3.6v.4c0 .1.2.3.5.5h-.6v.5l3.9.6v-.7zm-.1-4.1c.1.2.2.4.1.7 0 .3-.2.6-.5.7-.3.2-.7.2-1.2.1-.5 0-.9-.2-1.1-.5-.2-.2-.3-.5-.2-.9 0-.2.1-.4.3-.5s.4-.2.6-.2v-.7c-.4 0-.7.1-1 .4-.3.2-.4.6-.5 1v1c.1.3.3.6.6.7.3.2.6.3 1.1.4.6 0 1.2 0 1.6-.3s.6-.7.7-1.2c0-.4 0-.8-.2-1.1s-.5-.6-1-.7l-.2.6c.3 0 .5.2.7.4zm.6-3.8c.1.2.1.4 0 .6 0 .3-.2.6-.5.8s-.6.3-1 .2l.4-2.9s-.1 0-.2 0c-.6 0-1.2 0-1.6.3s-.6.7-.7 1.2c0 .5 0 1 .3 1.4s.8.6 1.4.7c.6 0 1.1 0 1.5-.3s.6-.7.7-1.3c0-.4 0-.8-.2-1.2-.2-.3-.5-.6-.8-.7l-.2.7c.3.1.4.3.5.5zm-2.7 1.1c-.2-.2-.2-.5-.2-.8s.2-.6.5-.8c.2-.1.4-.2.8-.1l-.3 2.2c-.3 0-.6-.2-.8-.5zm3.7-3.5-5.3-.8v.7s5.2.8 5.2.8v-.7zm.6-3.7v-.7s-.2 0-.4 0-.6 0-1.2-.1h-.9c-.3-.2-.5-.2-.6-.2-.2 0-.3 0-.5.1-.1 0-.3.2-.4.4s-.2.5-.2.8v.9c0 .3.2.5.3.6.1.2.4.3.6.4l.2-.6c-.3-.1-.4-.2-.5-.4 0-.2-.1-.4 0-.7 0-.3.2-.6.3-.7s.3-.1.6-.1h.2v1.2.6c0 .2 0 .3.1.5 0 .2.2.3.3.4s.3.2.5.2c.3 0 .6 0 .8-.2s.4-.5.5-.9c0-.3 0-.5 0-.7s-.2-.5-.3-.8h.5zm-1.7 0c.3 0 .5.1.6.2.2.1.3.3.4.5 0 .2.1.4 0 .7 0 .3-.1.4-.3.6-.1.1-.3.2-.5.1-.1 0-.2 0-.3-.1s-.1-.2-.2-.3c0-.1 0-.3 0-.6 0-.5 0-.9 0-1.1h.2zm2.3-6.1c.3-.2.4-.6.5-1 0-.4 0-.8-.2-1.1s-.4-.6-.8-.8-.9-.4-1.6-.5c-.7 0-1.2 0-1.5 0-.4 0-.7.3-.9.5-.2.3-.4.6-.4.9 0 .5 0 .9.3 1.3s.7.6 1.2.7c.5 0 1 0 1.3-.3.4-.3.6-.6.6-1.1 0-.3 0-.5 0-.8 0-.2-.2-.5-.4-.6h.1c.3 0 .5.1.8.2s.4.2.6.3c.1.1.2.3.3.4v.6c0 .2-.1.4-.3.5s-.4.2-.7.2v.6c.4 0 .7-.1 1-.3zm-2.2-2.2c.2.2.3.5.2.8 0 .3-.2.5-.4.7s-.5.2-.9.2-.7-.2-.9-.5-.3-.5-.2-.8c0-.3.2-.5.4-.7.3-.2.6-.2.9-.2.4 0 .7.2.8.4z"/><path d="m282.2 50.6-.7-2.3.8-.3c.2 0 .3 0 .4-.1h.4c.1 0 .3.1.5.2s.4.3.7.5l1 .8.8-.3-1.3-1.1c-.3-.2-.5-.4-.8-.5-.1 0-.3 0-.5-.1.5-.2.8-.5.9-.8.2-.3.2-.7 0-1 0-.3-.2-.5-.5-.7-.2-.2-.5-.3-.7-.3s-.6 0-1.1.2l-2.3.7 1.7 5.1.7-.2zm-1.5-4.6 1.6-.5c.4-.1.7-.1.9 0 .2 0 .4.3.5.5v.5c0 .2-.1.3-.3.4s-.4.2-.7.3l-1.5.5-.6-1.7zm6.8 2.8-1.2-3.7-.6.2 1.2 3.7zm-1.7-4 .4-1.2-.8.3v1.1c-.1 0 .4-.2.4-.2zm2.9 3.2c.4.2.9.3 1.4 0s.6-.3.8-.5.4-.5.4-.8 0-.7-.2-1.2c-.2-.6-.5-1-.9-1.2s-.9-.3-1.4 0-.8.4-1 .8c-.3.5-.3 1 0 1.7.2.6.5 1.1 1 1.3zm-.3-2.7c.1-.3.4-.5.7-.6s.6 0 .9 0c.3.2.5.5.7.9s.2.9 0 1.2c-.1.3-.3.5-.7.6s-.6 0-.9 0c-.3-.2-.5-.5-.7-1s-.2-.9 0-1.2zm11.4-.5-.2-.6-2.5.8-1.5-4.5-.7.2 1.7 5.1 3.2-1.1zm.8-.8c.4.2.9.3 1.4 0s.6-.3.8-.5.4-.5.4-.8 0-.7-.2-1.2c-.2-.6-.5-1-.9-1.2s-.9-.3-1.4 0-.8.4-1 .8c-.3.5-.3 1 0 1.7.2.6.5 1.1 1 1.3zm-.3-2.6c.1-.3.4-.5.7-.6s.6 0 .9 0c.3.2.5.5.7.9s.2.9 0 1.2c-.1.3-.3.5-.7.6s-.6 0-.9 0c-.3-.2-.5-.5-.7-1s-.2-.9 0-1.2zm4.4 1.5c.3.1.7 0 1.2 0 .3 0 .5-.2.7-.4s.3-.4.4-.6c0-.2 0-.4 0-.7 0-.2-.2-.4-.3-.5s-.3-.2-.5-.2-.5 0-1 0c-.3 0-.5 0-.6 0s-.2 0-.3 0c0 0-.1-.1-.2-.2 0-.1 0-.3 0-.4s.3-.3.6-.3h.6s.3.2.4.4l.6-.3c-.1-.2-.3-.4-.4-.5-.2-.1-.4-.2-.6-.2-.3 0-.5 0-.8.1-.2 0-.4.1-.5.3-.2.1-.3.2-.3.3s-.2.3-.2.5v.5c0 .2.2.3.3.5.1.1.3.2.5.2h1.1.7c.1 0 .2.1.3.3v.5c-.1.2-.3.3-.6.4-.3 0-.5.1-.7 0-.2 0-.4-.2-.5-.5l-.6.3c.2.4.5.6.8.7zm10.2-3.1-.7-2.3.8-.3c.2 0 .3 0 .4-.1h.4c.1 0 .3.1.5.2s.4.3.7.5l1 .8.8-.3-1.3-1.1c-.3-.2-.5-.4-.8-.5-.1 0-.3 0-.5-.1.5-.2.8-.5.9-.8.2-.3.2-.7 0-1 0-.3-.2-.5-.5-.7-.2-.2-.5-.3-.7-.3s-.6 0-1.1.2l-2.3.7 1.7 5.1.7-.2zm-1.5-4.5 1.6-.5c.4-.1.7-.1.9 0 .2 0 .4.3.5.5v.5c0 .2-.1.3-.3.4s-.4.2-.7.3l-1.5.5-.6-1.7zm7.8 1.7c-.1.2-.3.3-.5.4s-.6 0-.9 0c-.3-.2-.5-.4-.7-.8l2.8-.9s0-.1 0-.2c-.2-.6-.5-1-.9-1.3-.4-.2-.9-.3-1.4-.1s-.9.5-1.1.9-.2 1 0 1.6.5 1 .9 1.2.9.3 1.5 0 .7-.4 1-.7c.2-.3.3-.7.3-1.1h-.7c0 .4 0 .7-.2.8zm-2.1-1.9c.1-.3.3-.4.6-.5s.6 0 .9.1c.2.1.3.3.5.6l-2.1.7c0-.3 0-.6 0-.9zm6.7 1.1.7-.2c-.1-.1-.2-.3-.3-.4 0-.1-.2-.5-.4-1.1l-.3-.8c0-.3-.2-.5-.2-.6 0-.2-.2-.3-.3-.4-.1 0-.3-.1-.5-.1s-.5 0-.8.1-.6.2-.8.4-.4.4-.4.6v.7h.6c0-.4 0-.6.1-.8s.3-.3.6-.4.6-.1.8 0c.2 0 .3.2.4.5v.2c-.2.2-.6.4-1.1.6-.2.1-.4.2-.5.3s-.3.2-.4.4c-.1.1-.2.3-.2.5v.5c.1.3.3.5.6.7.3.1.6.1 1 0 .2 0 .5-.2.7-.4s.4-.4.5-.6c0 .2.2.3.3.4zm-.7-1.6c0 .3.1.5 0 .7 0 .2-.1.4-.3.6s-.3.3-.6.4c-.3 0-.5 0-.6 0-.2 0-.3-.2-.3-.4 0-.1 0-.2 0-.3s0-.2.2-.3c0 0 .3-.2.5-.3.4-.2.8-.4 1-.6v.2zm2.7.9-.6-1.9c0-.3-.1-.5-.1-.8 0-.2 0-.3.1-.4 0-.1.2-.2.3-.2h.5v-.7c-.2 0-.5 0-.7 0s-.3.1-.4.3c0 .1-.2.3-.2.6l-.2-.6-.6.2 1.2 3.7.6-.2zm2.7-1.4h-.2-.1s0-.2-.1-.3l-.7-2.2.6-.2-.2-.5-.6.2-.4-1.3-.5.6.3.9-.5.2.2.5.5-.2.7 2.1c.1.4.2.6.3.7 0 0 .2.2.4.2h.6c.1 0 .3-.1.5-.2l-.3-.5c-.1 0-.2 0-.3.1zm3-1.1c-.1.2-.3.3-.5.4s-.6 0-.9 0c-.3-.2-.5-.4-.7-.8l2.8-.9s0-.1 0-.2c-.2-.6-.5-1-.9-1.3-.4-.2-.9-.3-1.4-.1s-.9.5-1.1.9-.2 1 0 1.6.5 1 .9 1.2.9.3 1.5 0 .7-.4 1-.7c.2-.3.3-.7.3-1.1h-.7c0 .4 0 .7-.2.8zm-2.1-2c.1-.3.3-.4.6-.5s.6 0 .9.1c.2.1.3.3.5.6l-2.1.7c0-.3 0-.6 0-.9zm4.3 1.7c.3.1.7 0 1.2 0 .3 0 .5-.2.7-.4s.3-.4.4-.6c0-.2 0-.4 0-.7 0-.2-.2-.4-.3-.5s-.3-.2-.5-.2-.5 0-1 0c-.3 0-.5 0-.6 0s-.2 0-.3 0c0 0-.1-.1-.2-.2 0-.1 0-.3 0-.4s.3-.3.6-.3h.6s.3.2.4.4l.6-.3c-.1-.2-.3-.4-.4-.5-.2-.1-.4-.2-.6-.2-.3 0-.5 0-.8.1-.2 0-.4.1-.5.3-.2.1-.3.2-.3.3s-.2.3-.2.5v.5c0 .2.2.3.3.5.1.1.3.2.5.2h1.1.7c.1 0 .2.1.3.3v.5c-.1.2-.3.3-.6.4-.3 0-.5.1-.7 0-.2 0-.4-.2-.5-.5l-.6.3c.2.4.5.6.8.7z"/><path d="m141.6 797.6.9-2.2.8.3c.2 0 .3.1.4.2 0 0 .2.2.2.3s.1.3.2.5c0 .2.1.5.2.9l.2 1.3.8.4-.3-1.7c0-.3-.1-.6-.3-.9 0-.1-.2-.3-.3-.4.5.1.9.1 1.3 0 .3-.1.6-.4.7-.7s.2-.6.1-.8c0-.3-.2-.5-.3-.7-.2-.2-.5-.4-1-.6l-2.2-.9-2.1 5 .7.3zm1.9-4.5 1.6.7c.4.2.6.3.7.6.1.2.1.5 0 .7 0 .2-.2.3-.3.4-.1 0-.3.1-.5.1s-.4 0-.7-.2l-1.4-.6.7-1.6zm5.2 7.5 1.5-3.6-.6-.3-.8 1.9c-.1.3-.3.5-.4.7-.1.1-.3.2-.5.2s-.4 0-.6 0-.3-.2-.4-.3c0-.1-.1-.3 0-.5 0-.1.1-.3.2-.7l.9-2-.6-.3-1 2.2c-.1.3-.2.5-.2.6v.5c0 .2.1.3.3.5.1.2.3.3.5.4.5.2.9.2 1.4-.1l-.2.5.5.2zm2.3.4s-.2 0-.2-.1c0 0 0-.1 0-.2 0 0 0-.2.1-.3l.9-2.1.6.3.2-.5-.6-.3.5-1.3h-.8c0 .1-.4 1-.4 1l-.4-.2-.2.5.4.2-.9 2.1c-.2.4-.2.6-.2.8 0 .1 0 .3.1.4 0 .1.2.2.5.3.1 0 .3.1.5.1v-.6s0 0-.1 0zm3.1 1.9.6.3c0-.2 0-.3 0-.5s.2-.5.4-1.1l.3-.8c.1-.3.2-.5.2-.6 0-.2 0-.3 0-.5 0-.1-.1-.3-.3-.5s-.4-.3-.7-.4-.6-.2-.9-.2-.5 0-.7.1-.4.3-.5.5l.6.3c.2-.2.4-.4.5-.4.2 0 .4 0 .7.1s.5.3.6.5v.6.2c-.3 0-.7-.1-1.2-.3-.3 0-.4-.1-.6-.1s-.4 0-.5 0c-.2 0-.3.1-.5.2-.1.1-.3.3-.3.4-.1.3-.1.6 0 .9s.4.5.8.7c.2.1.5.2.7.2s.5 0 .8-.1zm.5-1.6c-.1.3-.2.5-.4.6s-.4.2-.6.2-.5 0-.7-.1-.4-.2-.5-.4c0-.2 0-.3 0-.5 0-.1.1-.2.2-.3h.3c.1 0 .3 0 .6.1.5.1.8.2 1.1.2zm5.5 4.2.9-2 1.3.5c.7.3 1.2.4 1.6.2s.7-.5.9-.9c.1-.2.2-.5.1-.7 0-.2 0-.5-.2-.6-.1-.2-.3-.3-.5-.5-.2-.1-.4-.2-.7-.4l-1.9-.8-2.1 5 .7.3zm1.8-4.4 1.3.5c.3.1.5.2.6.3.2.1.2.3.3.5v.6c-.1.3-.3.5-.6.6-.2 0-.6 0-1-.2l-1.3-.5.8-1.8zm2.7 6.3.8-1.9c.1-.3.2-.5.4-.7.1-.1.2-.2.4-.2h.4c.1 0 .3.2.4.3l.5-.5c-.2-.2-.3-.4-.5-.5-.1 0-.3 0-.4 0-.2 0-.4.1-.6.3l.2-.5-.5-.2-1.5 3.6.6.3zm2.1.4c.2.5.5.8 1 1 .3.1.6.2 1 .2.3 0 .6-.2.9-.4s.5-.5.7-1c.2-.6.3-1.1.1-1.5-.2-.5-.5-.8-1-1-.4-.2-.9-.2-1.3 0-.5.2-.9.6-1.2 1.2s-.3 1.1-.1 1.6zm1.5-2.2c.3-.1.6-.1.9 0s.5.4.6.7 0 .7-.1 1.1c-.2.5-.5.8-.8.9s-.6.2-.9 0c-.3-.1-.5-.4-.6-.7s0-.7.1-1.2.4-.8.7-.9zm3.5 4.9 2.9-3-.6-.3-1.7 1.9c-.2.2-.4.4-.5.6 0-.3 0-.6 0-.8l.2-2.5-.6-.3-.2 4.2.6.2zm4.3-3.2.3-.7-.6-.3-.3.7zm-1.8 4.2 1.5-3.6-.6-.3-1.5 3.6zm1.5.7.8-2c.2-.5.4-.7.7-.8h.8c.2 0 .3.2.4.3 0 .1.1.3.1.4s0 .3-.2.6l-.9 2.2.6.3.9-2.2c.1-.3.2-.5.2-.6 0-.2 0-.4 0-.5 0-.2-.1-.3-.3-.5-.1-.2-.3-.3-.5-.4-.5-.2-1-.2-1.4.1l.2-.5-.5-.2-1.5 3.6.6.3zm5.6 1.6c-.2 0-.5 0-.7 0-.3-.1-.5-.3-.6-.6 0-.3 0-.7.2-1.2s.4-.8.7-.9.6-.1.9 0c.2 0 .4.2.4.4s.1.4 0 .7l.6.2c0-.4 0-.7-.1-1-.2-.3-.4-.5-.8-.7-.3-.1-.6-.2-1-.1-.3 0-.6.2-.9.4s-.5.5-.6.9c-.3.6-.3 1.1-.1 1.6.2.4.5.8 1 1 .4.2.8.2 1.1 0 .4-.1.7-.4.9-.8l-.6-.3c-.2.3-.4.5-.6.5zm3.6-2.7.3-.7-.6-.3-.3.7zm-1.8 4.2 1.5-3.6-.6-.3-1.5 3.6zm3.4 1.5.6.3c0-.2 0-.3 0-.5s.2-.5.4-1.1l.3-.8c.1-.3.2-.5.2-.6 0-.2 0-.3 0-.5 0-.1-.1-.3-.3-.5s-.4-.3-.7-.4-.6-.2-.9-.2-.5 0-.7.1-.4.3-.5.5l.6.3c.2-.2.4-.4.5-.4.2 0 .4 0 .7.1s.5.3.6.5v.6.2c-.3 0-.7-.1-1.2-.3-.3 0-.4-.1-.6-.1s-.4 0-.5 0c-.2 0-.3.1-.5.2-.1.1-.3.3-.3.4-.1.3-.1.6 0 .9s.4.5.8.7c.2.1.5.2.7.2s.5 0 .8-.1zm.5-1.7c-.1.3-.2.5-.4.6s-.4.2-.6.2-.5 0-.7-.1-.4-.2-.5-.4c0-.2 0-.3 0-.5 0-.1.1-.2.2-.3h.3c.1 0 .3 0 .6.1.5.1.8.2 1.1.2zm1.5 2.5 2.1-5-.6-.3-2.1 5zm7.1 2.3c0 .3.2.6.5.9.2.3.6.5 1 .7s.7.2 1 .2.6 0 .9-.3c.3-.2.4-.4.5-.6.1-.3.1-.5 0-.8 0-.3-.2-.5-.4-.8-.2-.2-.5-.4-1-.8-.5-.3-.8-.6-.8-.8s0-.3 0-.5.3-.3.5-.4c.2 0 .6 0 1 .2s.6.4.8.6c.1.2.1.5 0 .9l.7.2c.1-.3.1-.6 0-.9 0-.3-.2-.6-.4-.8s-.5-.4-.9-.6c-.3-.1-.7-.2-1-.2s-.6 0-.8.2-.4.4-.5.6c0 .2-.1.5 0 .7 0 .2.1.5.3.7.1.2.4.4.8.7s.7.5.8.6c.2.2.3.3.3.5v.5c0 .2-.2.3-.3.4-.1 0-.3.1-.6.1-.2 0-.5 0-.7-.2-.3-.1-.5-.3-.7-.5s-.3-.4-.3-.6 0-.4 0-.7l-.6-.2c-.1.3-.2.7-.1 1zm6.5 1.8.3-.6-1.9-.8-.3.6zm.9 1.5c.1 0 .2-.2.4-.2s.5-.2 1-.3c.6-.2 1-.3 1.3-.5.3-.1.5-.3.7-.4.2-.2.3-.3.4-.5.2-.4.2-.8 0-1.2s-.5-.7-1-.9-.9-.2-1.3-.1-.7.4-.9.9l.6.3c.1-.3.3-.5.6-.6s.5 0 .8 0c.3.1.5.3.6.5s.1.5 0 .7c0 .2-.3.4-.6.6s-.8.4-1.5.6c-.5.1-.8.3-1.1.4s-.5.3-.7.5c-.1.1-.2.2-.3.4l3.3 1.4.3-.6-2.4-1zm7.2-2.1-.4-.2c-.2.2-.5.3-.8.4-.4.1-.7.2-1.1.2l-.3.6h.8c.3 0 .6 0 .8-.2l-1.7 3.9.6.3zm.1 5.4c.1.5.4.8.9 1 .4.2.7.2 1 0 .3 0 .6-.3.9-.6s.5-.8.8-1.3c.2-.5.3-.9.4-1.2 0-.3 0-.6 0-.9s-.1-.5-.3-.7-.4-.3-.6-.5c-.4-.2-.7-.2-1 0-.3 0-.6.3-.9.6s-.5.8-.8 1.3c-.4.9-.5 1.7-.4 2.2zm2.1-3.5c.3-.2.5-.2.8 0 .3.1.5.4.5.7 0 .4 0 .9-.4 1.8-.3.8-.7 1.3-1 1.5s-.6.2-.9.1-.5-.4-.5-.7c0-.4 0-.9.4-1.7.3-.8.7-1.3 1-1.5z"/><path d="m202.1 456.4h.9v.9h.1v.1h.2v.2h.2l.1.2h.2.2v.2h.2.1.2.2.1.2.2.2v-.2h.1.2l.2-.2h.1v-.2h.2v-.1h.2v-.2l.2-.2v-.1-.2-.2l-.2-.2v-.1h-.2l-.2-.2h-.1l-.2-.2h-.2-.1-.2v-.1h-.2-.2-.1l-.2-.2h-.2-.1-.2v-.2h-.2-.2l-.1-.2h-.2v-.1h-.2v-.2h-.1v-.2-.1h-.2v-.2-.2-.2-.1-.2h.2v-.2-.1l.1-.2v-.2h.2v-.2l.2-.1h.1v-.2h.2v-.2h.2.2v-.1h.1.2.2v-.2h.1.2.2.2.1.2.2.1.2.2v.2h.2.1.2v.1h.2l.1.2.2.2v.1h.2v.2.2h.2v.2.1.2.2.1h-.9v-.1-.2-.2h-.2v-.1-.2h-.1v-.2h-.2l-.2-.2h-.2-.1-.2-.2-.1-.2-.2-.2-.1-.2l-.2.2h-.1v.2h-.2l-.2.2v.1l-.2.2v.2.1.2h.2v.2h.2v.2h.2.1v.1h.2.2.1.2v.2h.2.2.1l.2.2h.2.1.2v.1h.2.2v.2h.1.2v.2h.2v.2l.1.1v.2h.2v.2.1.2.2.2.1l-.2.2v.2.1h-.1v.2l-.2.2-.2.2h-.1v.1l-.2.2h-.2l-.2.2h-.1l-.2.1h-.2-.1-.2-.2v.2h-.2-.1-.2-.2-.1-.2v-.2h-.2-.2-.1-.2l-.2-.1h-.1l-.2-.2h-.2v-.2h-.2v-.1h-.1v-.2-.2h-.2v-.2-.1-.2-.2-.1-.2z"/><path d="m211.4 458.6.1-.6h-.1v.1l-.2.2h-.2v.2h-.2l-.1.1h-.2-.2l-.1.2h-.2-.2-.2-.1l-.2-.2h-.2-.1v-.1h-.2l-.2-.2v-.2h-.2v-.1-.2-.2-.2-.1-.2-.2-.1l.6-3h.8l-.5 2.6v.2.2.1.2.2.1.2l.2.2.1.2h.2l.2.1h.2.1v-.1h.2.2l.1-.2h.2v-.2h.2l.2-.2v-.1h.1v-.2-.2-.1l.2-.2v-.2l.5-2.6h.9l-1.1 4.8z"/><path d="m213.1 460.5 1.2-6.7h.9l-.2.5.2-.2h.2v-.2h.2l.2-.2h.2v-.2h1.2l.2.2h.2l.2.2.2.2.2.2v.2h.2v.5l.2.2v.9h-.2v.7h-.2v.3l-.2.2v.2l-.2.2v.2h-.2v.2h-.2v.2h-.2v.2h-.2l-.2.2h-.2v.2h-.5v.2h-.9v-.2h-.3l-.2-.2h-.2v-.2l-.2-.2-.3 2.4h-.9zm1.5-4.3v1.4h.2v.2h.2v.2h.2l.2.2h.7v-.2h.3v-.2h.2l.2-.2v-.2h.2v-.2l.2-.2v-.2l.2-.2v-.5l.2-.2v-.9h-.2v-.3l-.2-.2v-.2h-.2l-.2-.2h-.9v.2h-.3v.2h-.2v.2h-.2v.2h-.2v.3h-.2v.3l-.2.2v.3"/><path d="m218.9 458.6.2-.8h.8l-.1.8z"/><path d="m222.2 454.7.2-.9h1l-.2.9zm-.7 3.9.2-.9h1l-.2.9z"/><path d="m229.4 458.6h-.7l.8-5.1h-.1v.2h-.2l-.2.1h-.2v.2h-.1-.2v.2h-.2-.1l-.2.2h-.2-.2l.2-.7.2-.2h.2l.1-.2h.2l.2-.1h.1v-.2h.2l.2-.2h.2v-.2h.1v-.1h.2v-.2h.2v-.2h.1v-.1h.6z"/><path d="m231.9 456.9h.9v.7h.2v.2l.1.2.2.1h.2.1.2.2.2.1l.2-.1h.2l.1-.2.2-.2.2-.2v-.1h.2v-.2-.2l.1-.1v-.2-.2-.2-.1-.2-.2-.1h-.1v-.2l-.2-.2h-.2v-.2h-.2-.1-.2-.2-.1-.2-.2-.2v.2h-.1l-.2.2h-.2v.2h-.1-.7l1.2-3.5h3.4l-.2.7h-2.7l-.7 1.9h.2v-.2h.1.2v-.1h.2.2.1l.2-.2h.2.1l.2.2h.2.2.1v.1h.2.2v.2h.1v.2h.2v.1.2h.2v.2.2.1.2h.2l-.2.2v.1.2.2.2.1l-.2.2v.2l-.2.1v.2h-.1v.2h-.2v.2h-.2v.1l-.1.2h-.2v.2h-.2-.2v.1h-.1-.2v.2h-.2-.1-.2-.2-.2-.1-.2-.2-.1l-.2-.2h-.2l-.2-.1-.1-.2-.2-.2v-.1h-.2v-.2-.2-.2-.1-.2z"/><path d="m240 458.8h-.9l.9-5.3h-.2v.2h-.2v.1h-.1-.2v.2h-.2-.1v.2h-.2l-.2.2h-.2-.1v.1-.8h.1v-.2h.2.2l.2-.2h.1v-.1h.2.2v-.2h.1v-.2h.2v-.2h.2l.2-.1.1-.2.2-.2v-.1h.2.5z"/><path d="m245 458.8 1.2-6.8h1l-.5 2.9h3.4l.5-2.9h.9l-1.2 6.8h-.9l.5-3.2h-3.4l-.5 3.2z"/><path d="m255.1 458.1-.2.2h-.2l-.2.2h-.2v.2h-.3v.2h-1.9v-.2h-.2v-.2h-.2v-.2h-.2v-1l.2-.2v-.2h.2v-.2l.2-.2.2-.2h.2v-.2h.3v-.2h.9v-.2h1.2v-.2h.5v-1h-.3v-.2h-1.4l-.2.2h-.2v.2h-.2v.2l-.2.2v.2l-.9-.2.2-.2v-.2h.2v-.2l.2-.2.2-.2v-.2h.3v-.2h.3l.2-.2h1.9v.2h.3v.2h.2v.2h.2v1.2l-.2 1.2-.2.2v1h-.2v.5l.2.2v.2h-.9v-.7zm.1-1.7h-.5l-.2.2h-.9l-.2.2h-.5v.2h-.2v.2h-.2v.2h-.2v.5l.2.2v.2h.3l.2.2h.5v-.2h.5v-.2h.3v-.2h.2v-.2h.2v-.2l.2-.2v-.3h.2v-.5"/><path d="m262.4 457.3.7-.2v.5h.2v.3h.2v.2h.3v.2h.5l.2-.2h.3v-.2h.2l.2-.2h.2v-.2l.2-.2v-.2l.2-.2v-.2l.2-.2v-.3h.2v-.7h.2-.2l-.2.2-.2.2-.2.2h-.2l-.2.2h-.3l-.2.2h-.5l-.2-.2h-.3l-.2-.2h-.2v-.2h-.2v-.2h-.2v-.2l-.2-.2v-1.7h.2v-.3h.2v-.3h.2v-.2h.2v-.2l.2-.2h.2v-.2h.2l.2-.2h.2l.2-.2h1.5l.2.2h.2v.2h.2v.2h.2v.2h.2v.2l.2.2v.7l.2.2v.2l-.2.2v1.2l-.2.2v.5h-.2v.5h-.2v.3l-.2.2v.2l-.2.2v.2h-.2v.2l-.2.2h-.2v.2l-.2.2h-.2l-.2.2h-.2l-.2.2h-.3l-.2.2h-.7l-.2-.2h-.3l-.2-.2-.2-.2h-.2v-.2l-.2-.2v-.9zm3.8-2.9.2-.2v-.5l-.2-.2v-.3h-.2v-.2h-.2v-.2h-1.2l-.2.2h-.2v.2h-.2v.2h-.2v.2l-.2.2v.2l-.2.2v1.2h.2v.2l.2.2.2.2h1.2v-.2h.2l.2-.2h.2v-.2l.2-.2v-.2h.2v-.5"/><path d="m267.6 458.8.2-.8h1l-.2.8z"/><path d="m272.9 458.8h-.9l1.1-5.3v.2h-.2l-.2.1h-.1v.2h-.2l-.2.2h-.2l-.1.2h-.2-.2v.1h-.1-.2l.2-.8h.1.2v-.2h.2.1v-.2h.2l.2-.1h.2v-.2h.1l.2-.2h.2v-.2h.1v-.1h.2v-.2h.2v-.2h.5z"/><path d="m275.6 455.6v-.3h.2v-.7h.2v-.5h.2v-.3h.2v-.3h.2v-.2l.2-.2v-.2h.2l.2-.2.2-.2h.2v-.2h.3v-.2h1.5v.2h.2l.2.2h.2v.2l.2.2v.2l.2.2v.5l.2.2v.9l-.2.2v.9l-.2.2v.5l-.2.2v.5h-.2v.3h-.2v.2l-.2.2v.2h-.2v.2l-.2.2-.2.2h-.2v.2h-.2l-.2.2h-.3l-.2.2h-1v-.2h-.3v-.2h-.2l-.2-.2v-.2h-.2v-.2l-.2-.2v-.5l-.2-.2v-.9h.2v-.9zm.9 0v.7h-.2v1.2h.2v.3l.2.2.2.2.2.2h.7l.2-.2h.2l.2-.2h.2v-.2l.2-.2v-.2h.2v-.3h.2v-.5h.2v-.7h.2v-1l.2-.2v-1l-.2-.2v-.3h-.2v-.2h-.2v-.2h-1l-.2.2h-.2v.2h-.2v.2h-.2v.3h-.2v.3h-.2v.5h-.2v.5l-.2.2v.3"/><path d="m280.6 457.1h.9v.3h.1v.2.2.2h.2v.1h.2l.2.2h.1.2.2.1.2l.2-.2h.2l.1-.1h.2v-.2h.2v-.2l.1-.2v-.1h.2v-.2-.2-.1h.2v-.2-.2-.2-.1-.2h-.2v-.2-.1h-.2v-.2h-.1v-.2h-.2-.2-.1-.2-.2-.2-.1-.2l-.2.2h-.1v.2h-.2v.1h-.2-.8l1.3-3.6 3.5.2-.2.7h-2.8l-.6 1.9v-.2h.1.2l.2-.2h.1.2v-.1h.2.2.1.2.2l.1.1h.2.2v.2h.2l.1.2h.2v.1.2h.2v.2l.1.2v.1.2.2.1.2.2.2l-.1.1v.2.2h-.2v.1.2h-.2v.2l-.1.2v.1h-.2v.2h-.2l-.2.2h-.1v.1h-.2l-.2.2h-.1-.2v.2h-.2-.2-.1-.2-.2-.1-.2-.2l-.2-.2h-.1l-.2-.2h-.2v-.1h-.1v-.2l-.2-.2v-.1l-.2-.2v-.2-.2-.1z"/><path d="m288.5 458.8.9-4.8h.6l-.1.7h.1v-.2l.2-.1h.2v-.2h.2l.1-.2h.2.2.1v-.2h.2.2.2.1v.2h.2.2l.1.2.2.2v.1h.2v.2l.2-.2h.1v-.1h.2v-.2h.2l.1-.2h.2.2l.2-.2h.1.2.2v.2h.1.2.2l.2.2.1.2v.1h.2v.2.2.1.2.2.2l-.7 3.4h-.8l.6-3.1v-.2-.1-.2-.2-.2-.1h-.1v-.2h-.2-.2-.1-.2-.2-.2-.1v.2h-.2l-.2.1-.1.2v.2h-.2v.2.1.2h-.2v.2l-.5 2.9h-.9l.7-3.3v-.1-.2-.2-.2-.1h-.1v-.2h-.2-.2-.2-.1-.2-.2-.1v.2h-.2v.1h-.2l-.2.2v.2l-.1.2v.1.2l-.2.2v.1.2l-.5 2.4z"/><path d="m296.4 455.6v-.2l.2-.2v-.2h.1v-.1h.2v-.2h.2v-.2h.1l.2-.1h.2v-.2h.2l.1-.2h.2v-.2h.2.1v-.1h.2v-.2h.2v-.2h.2v-.1-.2-.2h-.2v-.2h-.2-.2-.1-.2-.2v.2h-.1v.2l-.2.2h-.7v-.2l.2-.2v-.2h.1v-.1h.2v-.2h.2l.2-.2h.1.2.2.1.2.2.2.1l.2.2h.2v.2h.1v.1.2.2.2.1l-.1.2v.2h-.2v.1h-.2v.2h-.1l-.2.2h-.2v.2h-.2l-.1.1h-.2l-.2.2-.1.2h-.2v.1h1.7v.6z"/><path d="m233.6 470.8.7-5h2.6v.2h.3v.2h.2v.2h.2v1h-.2v.3h-.2v.2h-.2v.2h-.3.2v.2h.3v.2h.2v.3l.2.2v.3h-.2v.5h-.2v.2l-.2.2v.2h-.2l-.2.2h-.2l-.2.2h-.9l-1.9.2zm1.1-2.9h1.7v-.2h.3v-.2h.2v-.5h.2v-.2h-.2v-.3h-.5v-.2h-1.4l-.3 1.5zm-.4 2.2h1.9v-.2h.3v-.2h.2v-.3l.2-.2v-.3h-.2v-.2l-.2-.2h-.3v-.2h-1.5l-.3 1.7"/><path d="m240.5 470.3h-.2l-.2.2h-.2l-.2.2h-.3l-.2.2h-.5l-.2-.2h-.3v-.2h-.2v-.3h-.2v-.3h.2v-.3l.2-.2v-.2h.2v-.2h.3v-.2h.5l.2-.2h.9l.2-.2h.2v-.7h-.2v-.2h-1v.2h-.2l-.2.2v.2h-.2v.2h-.5v-.3h.2v-.2l.2-.2v-.2h.3v-.2h.3l.2-.2h1.2v.2h.3v.2l.2.2v.9l-.2.7v.5h-.2v1h.2-.7v-.3zm.2-1.4h-.5v.2h-.9v.2h-.3l-.2.2v.2h-.2v.3h.2v.2l.2.2h.7l.2-.2h.2l.2-.2.2-.2v-.2h.2v-.5l.2-.2"/><path d="m241.9 470.6.7-4.8h.6l-.8 4.8z"/><path d="m245.6 470.6v-.5.2h-.2v.2h-.2l-.2.2h-1v-.2h-.2l-.2-.2-.2-.2v-.2l-.2-.2v-1.2h.2v-.5h.2v-.2l.2-.2v-.2h.2v-.2h.2v-.2h.3v-.2h1.2v.2h.2v.2h.2l.2-1.7h.7l-.9 5h-.5zm-1.5-1.7v.2h-.2v.3h.2v.3l.2.2v.2h1v-.2h.2v-.2h.2v-.2l.2-.2v-.3l.2-.2v-.9l-.2-.2v-.2h-.2v-.2h-.9l-.2.2h-.2v.2l-.2.2v.2l-.2.2v.5"/><path d="m247.4 470.6.5-3.6h.7l-.7 3.6zm.6-4.1.5-.9h.9l-1 .9h-.3"/><path d="m249.1 468.8v-.2l.2-.2v-.3h.2v-.3h.2v-.2h.2v-.2h.2v-.2h.2l.2-.2h.3l.2-.2h.7v.2h.3v.2h.2l.2.2v.2h.2v.3l.2.2v.5h-.2v.7l-.2.2v.2l-.2.2v.2h-.2v.2h-.2v.2h-.3v.2h-.3l-.2.2h-.9v-.2h-.3v-.2h-.2v-.2h-.2v-.3h-.2v-1zm.7 0v.3h-.2v.2h.2v.5h.2v.2h.2v.2h.7l.2-.2h.2l.2-.2.2-.2v-.2h.2v-.5h.2v-1h-.2v-.2l-.2-.2h-.2v-.2h-.7v.2h-.3v.2h-.2v.2h-.2v.3h-.2v.5"/><path d="m204.5 444.2v-6.3l2.6 6.3 2.4-6.3v6.3m5.6 0h-3.4l3.4-4.3h-3.4m5.8 3.8-.3.3.3.2.3-.2zm3.5-4.6.5-.3 1-.9v6.3m7.7-5.4-.3-.7-.9-.2h-.7l-.9.2-.7 1-.3 1.5v1.5l.3 1.2.7.7.9.2h.3l.9-.2.7-.7.3-.9v-.3l-.3-1-.7-.5-.9-.3h-.3l-.9.3-.7.5-.3 1m6.9-3 .5-.3 1-.9v6.3m10.5-2.7h5.5m9.1-3.6v6.3h3.6m2.9-4.2-.7.3-.7.7-.3.9v.7l.3.9.7.7.7.2h.9l.7-.2.5-.7.3-.9v-.7l-.3-.9-.5-.7-.7-.3zm4.8-2.1v5.1l.3 1 .7.2h.5m-2.4-4.2h2.2m1.8 1.8h3.8v-.7l-.3-.5-.3-.3-.5-.3h-1l-.5.3-.7.7-.3.9v.7l.3.9.7.7.5.2h1l.5-.2.7-.7m2.6-4.4.7-.3.9-.9v6.3m5.6-6.3-1 .2-.5 1-.3 1.5v.9l.3 1.5.5 1 1 .2h.5l1-.2.5-1 .3-1.5v-.9l-.3-1.5-.5-1-1-.2z" fill="none" stroke="#231f20" stroke-linecap="round" stroke-linejoin="round" stroke-width=".9"/><path d="m367.7 542v245.7" fill="none" stroke="#231f20" stroke-linecap="round" stroke-linejoin="round" stroke-width=".4"/><path d="m371 550.1 1.8-4.5h-.6l-1.2 3.3c0 .2-.2.5-.2.7 0-.2-.1-.5-.2-.7l-1.2-3.3h-.7l1.8 4.5h.6zm5.7 0v-.5h-2.8v-1.5h2.5v-.5h-2.5v-1.4h2.7v-.5h-3.3v4.5h3.4zm1.4 0v-2h.7.3s.2 0 .3.1c0 0 .2.2.3.3s.3.4.4.6l.6.9h.8l-.8-1.2c-.2-.2-.3-.4-.5-.6 0 0-.2-.1-.4-.2.4 0 .8-.2 1-.4s.3-.5.3-.8 0-.5-.2-.7c-.1-.2-.3-.4-.5-.4s-.5-.1-.9-.1h-2v4.5zm0-4.1h1.4c.3 0 .6 0 .7.2.2.1.2.3.2.5s0 .3-.1.4c0 .1-.2.2-.4.3-.2 0-.4 0-.6 0h-1.3v-1.5zm5.7 4.1v-4h1.5v-.5h-3.6v.5h1.5v4zm2.9 0v-4.5h-.6v4.5zm3.8-.8c-.2.2-.5.3-.9.3s-.5 0-.8-.2c-.2-.1-.4-.4-.5-.6s-.2-.6-.2-1 0-.6.1-.9c0-.3.3-.5.5-.7s.5-.3.9-.3.6 0 .8.2.4.4.5.7h.6c-.1-.6-.3-.9-.6-1.1s-.7-.3-1.1-.3-.8 0-1.1.3c-.3.2-.6.5-.8.8-.2.4-.3.8-.3 1.2s0 .8.2 1.2.4.7.7.9.7.3 1.2.3.9-.1 1.2-.4.6-.6.7-1.1l-.6-.2c0 .4-.2.7-.5.9z"/><path d="m395.7 550.1v-.6h-2.8v-1.5h2.5v-.5h-2.5v-1.4h2.7v-.6h-3.3v4.6z"/><path d="m407.8 550.2.5-1.4h1.9l.5 1.4h.7l-1.9-4.5h-.6l-1.7 4.5zm1.1-3.1c.1-.3.2-.6.2-.9 0 .2.2.6.3.9l.5 1.3h-1.5zm3.5 3.1v-3.6l2.4 3.6h.6v-4.5h-.6v3.6l-2.4-3.6h-.6v4.5zm7.5-1.7v.8c-.1.1-.3.2-.6.3-.2.1-.5.2-.8.2s-.6 0-.8-.2c-.3-.1-.5-.3-.6-.6s-.2-.6-.2-1 0-.6.2-.9c0-.2.2-.3.3-.4s.3-.2.5-.3c.2 0 .4-.1.7-.1s.4 0 .6.1c.2 0 .3.2.4.3s.2.3.3.5h.5c0-.5-.2-.7-.3-.9-.2-.2-.4-.3-.6-.4-.3-.1-.6-.2-.9-.2s-.9 0-1.2.3c-.3.2-.6.5-.8.9s-.3.8-.3 1.2 0 .8.3 1.2c.2.4.5.6.8.8.4.2.8.3 1.2.3s.7 0 1-.2c.3-.1.6-.3.9-.5v-1.7h-1.9v.5zm4.4-.2c0 .6 0 1-.3 1.2-.2.2-.5.3-.9.3s-.5 0-.7-.2c-.2-.1-.3-.2-.4-.4 0-.2-.1-.5-.1-.9v-2.6h-.6v2.6c0 .5 0 .9.2 1.1.1.3.3.5.6.6s.6.2 1 .2.8 0 1.1-.3c.3-.2.5-.4.6-.7s.2-.6.2-1.1v-2.6h-.6v2.6zm4.5 1.9v-.5h-2.2v-4h-.6v4.5zm.7-1c.2.4.4.6.8.8.3.2.7.3 1.1.3s.8 0 1.1-.3c.3-.2.6-.5.8-.8.2-.4.3-.8.3-1.2s0-.9-.3-1.2c-.2-.4-.4-.6-.8-.8-.3-.2-.7-.3-1.1-.3-.6 0-1.2.2-1.6.6s-.6 1-.6 1.8 0 .8.3 1.1zm.9-2.6c.3-.3.7-.4 1.1-.4s.6 0 .8.2.4.4.5.6c.1.3.2.6.2 1 0 .6-.1 1-.4 1.4-.3.3-.7.5-1.1.5s-.8-.2-1.1-.5-.4-.7-.4-1.3.2-1.2.5-1.5z"/><path d="m458.9 550.2v-.5h-2.2v-4h-.6v4.5zm.9 0 .5-1.4h1.9l.5 1.4h.7l-1.9-4.5h-.6l-1.7 4.5zm1.2-3.1c.1-.3.2-.6.2-.9 0 .2.2.6.3.9l.5 1.3h-1.5zm4.5 3.1h.7c.2 0 .4-.1.5-.2s.3-.2.4-.4.2-.4.3-.7c0-.3.1-.6.1-.9s0-.8-.2-1.1c-.1-.3-.3-.6-.5-.8s-.4-.3-.7-.3c-.2 0-.5 0-.8 0h-1.6v4.5h1.6zm-1-4h1 .8c.2 0 .4.3.6.5.2.3.2.6.2 1.1s0 .6-.1.9c0 .2-.2.4-.3.6-.1.1-.2.2-.4.2s-.4 0-.7 0h-1v-3.5zm4 3c.2.4.4.6.8.8.3.2.7.3 1.1.3s.8 0 1.1-.3c.3-.2.6-.5.8-.8.2-.4.3-.8.3-1.2s0-.9-.3-1.2c-.2-.4-.4-.6-.8-.8-.3-.2-.7-.3-1.1-.3-.6 0-1.2.2-1.6.6s-.6 1-.6 1.8 0 .8.3 1.1zm.8-2.6c.3-.3.7-.4 1.1-.4s.6 0 .8.2.4.4.5.6c.1.3.2.6.2 1 0 .6-.1 1-.4 1.4-.3.3-.7.5-1.1.5s-.8-.2-1.1-.5-.4-.7-.4-1.3.2-1.2.5-1.5z"/><path d="m397 542v245.7m48-245.7v245.7m-77.3-245.7h116.7v245.7m-116.7-234.5h116.7m-116.7 8h116.7m-116.7 8.1h116.7m-116.7 8.2h116.7m-116.7 8.1h116.7m-116.7 8h116.7m-116.7 8.1h116.7m-116.7 8h116.7m-116.7 8.1h116.7m-116.7 8h116.7m-116.7 8.3h116.7m-116.7 8h116.7m-116.7 8.1h116.7m-116.7 8.1h116.7m-116.7 8h116.7m-116.7 8.1h116.7m-116.7 8.2h116.7m-116.7 8.1h116.7m-116.7 8h116.7m-116.7 8.1h116.7m-116.7 8h116.7m-116.7 8.1h116.7m-116.7 8.2h116.7m-116.7 8.1h116.7m-116.7 8h116.7m-116.7 8.1h116.7m-106.9-199.1.5-.2.5-.7v4.6m28.5-3-.2.7-.5.3-.5.3h-.3l-.5-.3-.5-.3-.2-.7v-.2l.2-.7.5-.5.5-.2h.3l.5.2.5.5.2.9v1l-.2 1.2-.5.7-.5.2h-.5l-.7-.2-.2-.5m7-2.4-.2.7-.5.3-.7.3h-.2l-.7-.3-.5-.3-.2-.7v-.2l.2-.7.5-.5.7-.2h.2l.7.2.5.5.2.9v1l-.2 1.2-.5.7-.7.2h-.3l-.7-.2-.3-.5m4.2-3.9c-.2 0-.4.2-.4.4s.2.4.4.4.4-.2.4-.4-.2-.4-.4-.4m2.6.8.5-.2.5-.7v4.6m3.5-3.7.3-.2.7-.7v4.6m3.3-5.2-.2.3-.2-.3.2-.2.2.2v.5l-.2.3-.2.3m4.1 4.2v-4.6l-2.2 3.1h3.3m1.5-3.1h2.4l-1.2 1.7h.5l.5.3.2.2.2.7v.3l-.2.7-.3.5-.7.2h-.7l-.7-.2-.2-.3-.2-.3m5-4.5-.2.3-.3-.3.3-.2.2.2v.5l-.2.3-.3.3m1.9-1.1-.3.3-.2-.3.2-.2.3.2v.5l-.3.3-.2.3m23 8-.2-.5-.7-.2h-.5l-.5.2-.5.7-.2 1v1.2l.2.9.5.3.5.2h.3l.7-.2.3-.3.2-.7v-.2l-.2-.7-.3-.5-.7-.2h-.3l-.5.2-.5.5-.2.7m7-2.4-.3-.5-.7-.2h-.3l-.7.2-.3.7-.3 1v1.2l.3.9.3.3.7.2h.2l.7-.2.5-.3.2-.7v-.2l-.2-.7-.5-.5-.7-.2h-.2l-.7.2-.3.5-.3.7m4.7 1.2-.2.2-.2-.2.2-.2.2.2v.5l-.2.3-.2.3m3.1-5.4-.7.2-.2.5v.3l.2.5.3.2.9.2.7.2.5.5.2.5v.5l-.2.5-.2.2-.7.2h-.9l-.7-.2-.2-.2-.3-.5v-.5l.3-.5.3-.5.7-.2.9-.2.5-.2.2-.5v-.3l-.2-.5-.7-.2h-.9m4.2.9.3-.2.7-.7v4.5m-95.7 5.1v-.2l.3-.5.2-.2.3-.3h.9l.5.3.2.2.3.5v.3l-.3.5-.3.5-2.2 2.2h3.1m19.8-3.3v-.2l.2-.5.3-.2.3-.3h.9l.5.3.2.2.2.5v.3l-.2.5-.5.5-2.1 2.2h3.1m2.6-4.5-.7.3-.3.7-.3 1v.7l.3 1 .3.7.7.2h.3l.7-.2.5-.7.2-1v-.7l-.2-1-.5-.7-.7-.3zm4 4.6 2.2-4.6h-3.1m4.2 0c-.2 0-.4.2-.4.4s.2.4.4.4.4-.2.4-.4-.2-.4-.4-.4m4.7 0h-2.2l-.2 2.1.2-.2.7-.3h.7l.7.3.3.3.3.7v.5l-.3.5-.3.5-.7.2h-.7l-.7-.2-.2-.2-.2-.5m4.7-2.5v-.2l.2-.5.2-.2.5-.3h.9l.3.3.3.2.2.5v.3l-.2.5-.5.5-2.2 2.2h3.1m2-5-.3.2-.2-.2.2-.3.3.3v.3l-.3.5-.2.2m2.2.7v-.2l.2-.5.2-.2.5-.3h.9l.5.3.2.2.2.5v.3l-.2.5-.5.5-2.1 2.2h2.9m2-3.5.5-.3.5-.7v4.6m3.3-5.1-.2.2-.2-.2.2-.3.2.3v.3l-.2.5-.2.2m1.8-1-.2.2-.2-.2.2-.3.2.3v.3l-.2.5-.2.2m20.1 7.2h2.4l-1.4 1.7h.7l.5.3.2.2.2.7v.3l-.2.7-.3.5-.7.2h-.7l-.7-.2-.2-.3-.3-.3m7.3-3.1-.3-.5-.7-.2h-.3l-.7.2-.3.7-.3 1.2v1l.3.9.3.5.7.2h.2l.7-.2.5-.5.2-.7v-.2l-.2-.7-.5-.3-.7-.3h-.2l-.7.3-.3.3-.3.7m4.7 1.4-.2.2-.2-.2.2-.3.2.3v.3l-.2.5-.2.2m2.8-.9 2.2-4.6h-3.1m7.1 0h-2.2l-.2 2.1.2-.3.7-.2h.7l.7.2.3.5.3.7v.3l-.3.7-.3.5-.7.2h-.7l-.7-.2-.2-.3-.2-.3m-93.6 4.7h2.4l-1.4 1.7h.7l.3.2.3.3.2.5v.5l-.2.7-.5.3-.7.3h-.7l-.5-.3-.3-.2-.2-.3m23.6-2.9.3-.2.7-.7v4.6m5.5-3-.2.7-.5.3-.7.2h-.2l-.7-.2-.3-.3-.3-.7v-.3l.3-.5.3-.5.7-.2h.2l.7.2.5.5.2.9v1l-.2 1.2-.5.5-.7.3h-.3l-.7-.3-.2-.3m6.9-2.5-.2.7-.3.3-.7.2h-.3l-.5-.2-.5-.3-.2-.7v-.3l.2-.5.5-.5.5-.2h.3l.7.2.3.5.2.9v1l-.2 1.2-.3.5-.7.3h-.5l-.7-.3-.2-.3m4-4.2c-.2 0-.4.2-.4.4s.2.4.4.4.4-.2.4-.4-.2-.4-.4-.4m2.5.2h2.4l-1.2 1.7h.7l.3.2.2.3.3.5v.5l-.3.7-.3.3-.7.3h-.7l-.7-.3-.2-.2-.2-.3m7.3-2.2-.2.7-.5.3-.7.2h-.2l-.7-.2-.3-.3-.3-.7v-.3l.3-.5.3-.5.7-.2h.2l.7.2.5.5.2.9v1l-.2 1.2-.5.5-.7.3h-.3l-.7-.3-.2-.3m4.8-4.7-.3.2-.2-.2.2-.2.3.2v.5l-.3.3-.2.2m3.2-.3-.7.2-.3.7-.2 1v.7l.2 1.2.3.5.7.3h.5l.7-.3.3-.5.2-1.2v-.7l-.2-1-.3-.7-.7-.2zm5.3 4.6v-4.6l-2.2 3.1h3.3m1.7-3.8-.2.2-.2-.2.2-.2.2.2v.5l-.2.3-.2.2m1.8-1-.2.2-.2-.2.2-.2.2.2v.5l-.2.3-.2.2m20.2 8.3.5-.3.7-.7v4.6m3.6-4.7-.5.3-.3.3v.5l.3.3.3.3.9.2.7.2.5.5.2.3v.7l-.2.5-.3.2-.7.2h-.9l-.5-.2-.3-.2-.2-.5v-.7l.2-.3.5-.5.7-.2.9-.2.3-.3.3-.3v-.5l-.3-.3-.7-.3zm4 4.5-.2.2-.2-.2.2-.2.2.2v.5l-.2.3-.2.2m4.2-.8v-4.6l-2.2 3.1h3.3m3.8-2.5-.2-.3-.7-.3h-.3l-.7.3-.5.7-.2 1v1l.2.9.5.5.7.2h.2l.7-.2.3-.5.3-.5v-.3l-.3-.5-.3-.5-.7-.2h-.2l-.7.2-.5.5-.2.5m-92 10v-4.6l-2.2 3.1h3.3m20.2-2.2.3-.2.7-.7v4.6m4.8 0v-4.6l-2.2 3.1h3.3m2.1-3.1-.7.3-.2.3v.5l.2.3.5.2.9.3.7.2.3.5.3.3v.7l-.3.3-.2.3-.7.2h-.9l-.7-.2-.2-.3-.2-.3v-.7l.2-.3.5-.5.5-.2 1-.3.3-.2.2-.3v-.5l-.2-.3-.7-.3h-.9m3.5 0c-.2 0-.4.2-.4.4s.2.4.4.4.4-.2.4-.4-.2-.4-.4-.4m4.4 4.6v-4.6l-2.2 3.1h3.3m3.9-1.6-.2.7-.5.5-.7.2h-.2l-.7-.2-.3-.5-.3-.7v-.2l.3-.7.3-.3.7-.3h.2l.7.3.5.3.2.9v1.2l-.2 1-.5.7-.7.2h-.3l-.7-.2-.2-.5m4.8-4.6-.3.3-.2-.3.2-.2.3.2v.5l-.3.5-.2.2m2.4-.5h2.4l-1.2 1.7h.5l.5.3.2.2.2.7v.3l-.2.7-.3.5-.7.2h-.7l-.7-.2-.2-.3-.2-.3m6.9-3.8h-2.1l-.3 2.1.3-.3.7-.2h.5l.7.2.5.5.2.7v.3l-.2.7-.5.5-.7.2h-.5l-.7-.2-.3-.3-.2-.3m5-4.6-.2.3-.2-.3.2-.2.2.2v.5l-.2.5-.2.2m1.8-1.2-.2.3-.2-.3.2-.2.2.2v.5l-.2.5-.2.2m15.4 7.2h2.4l-1.2 1.7h.5l.5.2.2.3.3.5v.5l-.3.7-.3.3-.7.3h-.7l-.7-.3-.2-.2-.2-.3m6.6.9v-4.6l-2.2 3.1h3.3m3.9-1.5-.2.7-.5.3-.5.2h-.3l-.5-.2-.5-.3-.2-.7v-.2l.2-.7.5-.5.5-.2h.3l.5.2.5.5.2.9v1l-.2 1.2-.5.5-.5.3h-.5l-.7-.3-.2-.3m4.8.3-.2.3-.2-.3.2-.2.2.2v.5l-.2.3-.2.3m4.2-.8v-4.6l-2.2 3.1h3.3m2 1.5 2.1-4.6h-2.9m-91.5 8.6h-2.1l-.3 1.9.3-.2.5-.2h.7l.7.2.5.3.2.7v.5l-.2.7-.5.3-.7.2h-.7l-.5-.2-.3-.2-.2-.5m23.6-2.7.3-.3.7-.5v4.5m5.5-4-.2-.3-.7-.2h-.5l-.7.2-.3.7-.2 1v1l.2 1 .3.3.7.2h.2l.7-.2.5-.3.2-.7v-.3l-.2-.5-.5-.5-.7-.2h-.2l-.7.2-.3.5-.2.5m6.3 1.5v-4.5l-2.2 2.9h3.3m.9-3c-.2 0-.4.2-.4.4s.2.4.4.4.4-.2.4-.4-.2-.4-.4-.4m2.8 1 .3-.3.7-.5v4.5m4.9-.1v-4.5l-2.2 2.9h3.3m1.8-3.5-.3.2-.2-.2.2-.2.3.2v.3l-.3.5-.2.2m3.2-.3-.7.2-.3.7-.2 1v.7l.2 1 .3.7.7.2h.5l.7-.2.3-.7.2-1v-.7l-.2-1-.3-.7-.7-.2zm5.7 0h-2.1l-.3 1.9.3-.2.7-.2h.5l.7.2.5.3.2.7v.5l-.2.7-.5.3-.7.2h-.5l-.7-.2-.3-.2-.2-.5m5-4.2-.2.2-.2-.2.2-.2.2.2v.3l-.2.5-.2.2m1.8-1-.2.2-.2-.2.2-.2.2.2v.3l-.2.5-.2.2m15.6 8.1.5-.2.7-.7v4.6m3.3-3.7.5-.2.5-.7v4.6m3.4-3.7.3-.2.7-.7v4.6m3.1-.3-.2.2.2.2.2-.2zm2.8-4.3-.5.3-.3.3v.5l.3.3.3.2.9.3.7.2.5.5.2.3v.7l-.2.5-.3.2-.7.2h-.9l-.5-.2-.3-.2-.2-.5v-.7l.2-.3.5-.5.7-.2.9-.3.3-.2.3-.3v-.5l-.3-.3-.7-.3zm4.4 0-.7.3-.2.3v.5l.2.3.5.2.9.3.7.2.3.5.2.3v.7l-.2.5-.2.2-.7.2h-.9l-.7-.2-.2-.2-.2-.5v-.7l.2-.3.3-.5.7-.2.9-.3.5-.2.2-.3v-.5l-.2-.3-.7-.3h-.9m-94.6 9.6v-.2l.3-.3.2-.3.3-.2h.9l.5.2.2.3.3.3v.5l-.3.3-.3.7-2.2 2.2h3.1m2.5-4.5-.7.2-.3.7-.2 1.2v.5l.2 1.2.3.7.7.2h.5l.7-.2.3-.7.2-1.2v-.5l-.2-1.2-.3-.7-.7-.2zm4.1 0-.5.2-.3.5v.3l.3.5.3.2.9.3.7.2.5.3.2.5v.7l-.2.3-.3.3-.5.2h-1l-.5-.2-.3-.3-.2-.3v-.7l.2-.5.5-.3.7-.2.9-.3.3-.2.3-.5v-.3l-.3-.5-.5-.2h-1m18 0-.5.2-.3.5v.3l.3.5.3.2.9.3.7.2.5.3.2.5v.7l-.2.3-.3.3-.7.2h-.9l-.5-.2-.3-.3-.2-.3v-.7l.2-.5.5-.3.7-.2.9-.3.3-.2.3-.5v-.3l-.3-.5-.7-.2zm4 .9.5-.2.7-.7v4.6m2.4-4.6c-.2 0-.4.2-.4.4s.2.4.4.4.4-.2.4-.4-.2-.4-.4-.4m2.4 1v-.2l.2-.3.2-.3.5-.2h.9l.5.2.2.3.2.3v.5l-.2.3-.5.7-2.1 2.2h2.9m4.2-3.8-.3-.5-.5-.2h-.5l-.7.2-.3.7-.3 1.2v1l.3.9.3.5.7.2h.2l.7-.2.5-.5.2-.7v-.2l-.2-.7-.5-.3-.7-.3h-.2l-.7.3-.3.3-.3.7m4.6-3.8-.2.2-.2-.2.2-.2.2.2v.5l-.2.3-.2.3m3.4-.4-.7.2-.3.7-.3 1.2v.5l.3 1.2.3.7.7.2h.5l.5-.2.5-.7.2-1.2v-.5l-.2-1.2-.5-.7-.5-.2zm4.4 0-.7.2-.5.7-.2 1.2v.5l.2 1.2.5.7.7.2h.3l.7-.2.3-.7.3-1.2v-.5l-.3-1.2-.3-.7-.7-.2zm3.6-.7-.2.2-.2-.2.2-.2.2.2v.5l-.2.3-.2.3m1.8-1.1-.2.2-.3-.2.3-.2.2.2v.5l-.2.3-.3.3m15.6 8.4v-.2l.2-.5.2-.2.5-.2h.9l.5.2.2.2.2.5v.3l-.2.5-.5.7-2.1 2.1h3.1m2.3-4.5-.7.2-.3.3v.5l.3.5.3.2.9.2.7.2.5.5.2.5v.5l-.2.5-.2.2-.7.2h-.9l-.7-.2-.3-.2-.2-.5v-.5l.2-.5.5-.5.7-.2.9-.2.5-.2.2-.5v-.5l-.2-.3-.7-.2h-.9m3.7 0h2.4l-1.2 1.7h.5l.5.2.2.2.3.7v.5l-.3.7-.3.3-.7.2h-.7l-.7-.2-.2-.2-.2-.5m5-2.7.5-.3.5-.5v4.5m3.5-.3-.3.2-.2-.2.2-.2.3.2v.5l-.3.3-.2.3m2.2-4.3v-.2l.2-.5.2-.2.5-.2h.9l.5.2.2.2.2.5v.3l-.2.5-.5.7-2.1 2.1h2.9m2.2 0 2.2-4.5h-3.1m-98.1 9.6v-.2l.3-.5.2-.2.3-.3h.9l.5.3.2.2.3.5v.3l-.3.5-.3.5-2.2 2.2h3.1m2.5-4.5-.7.3-.3.7-.2 1v.7l.2 1 .3.7.7.2h.5l.7-.2.3-.7.2-1v-.7l-.2-1-.3-.7-.7-.3zm6 1.6-.3.7-.3.5-.7.2h-.2l-.7-.2-.5-.5-.2-.7v-.2l.2-.7.5-.3.7-.3h.2l.7.3.3.3.3.9v1.2l-.3 1-.3.7-.7.2h-.5l-.5-.2-.3-.5m20.8-2.4-.3.7-.3.5-.7.2h-.2l-.7-.2-.5-.5-.2-.7v-.2l.2-.7.5-.3.7-.3h.2l.7.3.3.3.3.9v1.2l-.3 1-.3.7-.7.2h-.5l-.5-.2-.3-.5m6.7-4h-2.2l-.2 2.1.2-.2.7-.3h.7l.7.3.3.3.2.7v.5l-.2.5-.3.5-.7.2h-.7l-.7-.2-.2-.2-.3-.5m4.3-3.7c-.2 0-.4.2-.4.4s.2.4.4.4.4-.2.4-.4-.2-.4-.4-.4m2.4 1.2v-.2l.2-.5.2-.2.5-.3h.9l.5.3.2.2.2.5v.3l-.2.5-.5.5-2.1 2.2h2.9m2.6-4.5-.7.3-.5.7-.2 1v.7l.2 1 .5.7.7.2h.3l.7-.2.5-.7.2-1v-.7l-.2-1-.5-.7-.7-.3zm3.6-.5-.2.2-.2-.2.2-.3.2.3v.3l-.2.5-.2.2m4.2 4.2v-4.6l-2.2 3.1h3.3m2.2-3.2-.7.3-.2.3v.5l.2.3.5.3.9.2.7.2.3.5.3.3v.7l-.3.5-.2.2-.7.2h-.9l-.7-.2-.2-.2-.2-.5v-.7l.2-.3.5-.5.7-.2.9-.2.3-.3.2-.3v-.5l-.2-.3-.7-.3h-.9m4.1-.5-.2.2-.2-.2.2-.3.2.3v.3l-.2.5-.2.2m1.8-1-.2.2-.3-.2.3-.3.2.3v.3l-.2.5-.3.2m20.5 8.1.5-.2.7-.7v4.6m2.8-3.5v-.2l.3-.3.2-.3.3-.2h.9l.5.2.2.3.3.3v.5l-.3.3-.3.7-2.2 2.2h3.1m3.8-4.6h-2.2l-.2 2.1.2-.3.7-.2h.7l.7.2.3.5.2.7v.3l-.2.7-.3.5-.7.2h-.7l-.7-.2-.2-.3-.2-.3m5 .6-.2.2-.3-.2.3-.3.2.3v.3l-.2.5-.3.2m4.3-.8v-4.6l-2.2 3.1h3.3m2.3-3.2-.7.2-.3.7-.3 1.2v.5l.3 1.2.3.7.7.2h.5l.5-.2.5-.7.2-1.2v-.5l-.2-1.2-.5-.7-.5-.2zm-99.2 8.6h2.4l-1.4 1.7h.7l.3.2.3.3.2.5v.5l-.2.7-.5.3-.7.3h-.7l-.5-.3-.3-.2-.2-.5m7.3-1.9-.2.7-.5.3-.7.2h-.2l-.7-.2-.3-.3-.2-.7v-.3l.2-.5.3-.5.7-.2h.2l.7.2.5.5.2.9v1l-.2 1-.5.7-.7.3h-.3l-.7-.3-.2-.3m18.5-3.2.5-.2.7-.7v4.6m3.4 0 2.2-4.6h-3.1m5.6 0-.7.2-.2.5v.3l.2.5.5.2.9.2.7.3.3.3.2.5v.5l-.2.5-.2.2-.7.3h-.9l-.7-.3-.2-.2-.3-.5v-.5l.3-.5.3-.3.7-.3.9-.2.5-.2.2-.5v-.3l-.2-.5-.7-.2h-.9m3.3-.2c-.2 0-.4.2-.4.4s.2.4.4.4.4-.2.4-.4-.2-.4-.4-.4m3.4.2-.7.2-.3.7-.2 1v.7l.2 1 .3.7.7.3h.5l.7-.3.3-.7.2-1v-.7l-.2-1-.3-.7-.7-.2zm3.9 4.6 2.2-4.6h-3.1m5-.7-.2.2-.2-.2.2-.2.2.2v.5l-.2.3-.2.2m2.7.6.5-.2.7-.7v4.6m3.4 0 2.2-4.6h-3.1m5-.7-.2.2-.2-.2.2-.2.2.2v.5l-.2.3-.2.2m1.8-1-.2.2-.3-.2.3-.2.2.2v.5l-.2.3-.3.2m22.8 7.9-.2-.3-.7-.3h-.5l-.5.3-.5.7-.2 1v1l.2.9.5.5.5.2h.3l.7-.2.3-.5.2-.5v-.3l-.2-.7-.3-.3-.7-.2h-.3l-.5.2-.5.3-.2.7m7-1.6-.3.7-.3.5-.7.2h-.2l-.7-.2-.5-.5-.2-.7v-.2l.2-.7.5-.3.7-.3h.2l.7.3.3.3.3.9v1.2l-.3 1-.3.7-.7.2h-.5l-.5-.2-.3-.5m4.7.5-.2.2-.2-.2.2-.2.2.2v.5l-.2.3-.2.2m2.4-5.4h2.4l-1.4 1.9h.7l.5.2.2.2.2.7v.5l-.2.5-.5.5-.7.2h-.5l-.7-.2-.2-.2-.3-.5m7.1-3.8h-2.2l-.2 2.1.2-.2.7-.3h.7l.7.3.3.3.3.7v.5l-.3.5-.3.5-.7.2h-.7l-.7-.2-.2-.2-.2-.5m-91.9 9.5v-4.6l-2.2 3.1h3.3m2.3-3.2-.7.2-.3.7-.2 1.2v.7l.2 1 .3.7.7.2h.5l.7-.2.3-.7.2-1v-.7l-.2-1.2-.3-.7-.7-.2zm17.5.9.5-.2.7-.7v4.6m3.4.1 2.2-4.6h-3.1m4.9-.1h2.4l-1.4 1.7h.7l.5.3.2.2.2.7v.3l-.2.7-.3.5-.7.2h-.7l-.7-.2-.2-.3-.3-.3m4.3-3.8c-.2 0-.4.2-.4.4s.2.4.4.4.4-.2.4-.4-.2-.4-.4-.4m4.2 4.7v-4.6l-2.1 3.1h3.3m1.8-2.3.3-.2.7-.7v4.6m3.2-5.3-.2.3-.2-.3.2-.2.2.2v.5l-.2.3-.2.3m4.7-.4h-2.2l-.2 2.1.2-.3.7-.2h.7l.5.2.5.5.2.7v.3l-.2.7-.5.5-.5.2h-.7l-.7-.2-.2-.3-.3-.3m4.8-3.9h2.4l-1.2 1.7h.7l.3.3.2.2.3.7v.3l-.3.7-.3.5-.7.2h-.7l-.7-.2-.2-.3-.2-.3m5-4.5-.2.3-.2-.3.2-.2.2.2v.5l-.2.3-.2.3m1.8-1.1-.2.3-.3-.3.3-.2.2.2v.5l-.2.3-.3.3m22.6 7.3h-2.2l-.2 1.9.2-.2.7-.2h.7l.7.2.3.5.2.5v.5l-.2.7-.3.3-.7.3h-.7l-.7-.3-.2-.2-.3-.3m5.3 1 2.2-4.6h-3.1m4.8 4.1-.2.2.2.3.2-.3zm2.1-3.1v-.2l.2-.5.2-.2.5-.2h.9l.3.2.3.2.2.5v.3l-.2.5-.5.7-2.2 2.2h3.1m2.1.1 2.2-4.6h-3.1m-91.8 13v-4.5l-2.2 2.9h3.3m1.6-2 .5-.3.7-.5v4.5m17-3.7.5-.3.7-.5v4.5m3.4-.1 2.2-4.5h-3.1m4.9 0h2.4l-1.4 1.7h.7l.5.2.2.2.2.7v.5l-.2.7-.3.3-.7.2h-.7l-.7-.2-.2-.2-.3-.5m4.3-3.8c-.2 0-.4.2-.4.4s.2.4.4.4.4-.2.4-.4-.2-.4-.4-.4m2.5.2h2.4l-1.4 1.7h.7l.5.2.2.2.2.7v.5l-.2.7-.3.3-.7.2h-.7l-.7-.2-.2-.2-.2-.5m7.3-2-.3.5-.3.5-.7.2h-.2l-.7-.2-.5-.5-.2-.5v-.3l.2-.7.5-.3.7-.2h.2l.7.2.3.3.3 1v1l-.3 1-.3.7-.7.2h-.5l-.5-.2-.3-.3m4.6-4.7-.2.2-.2-.2.2-.3.2.3v.3l-.2.5-.2.2m2.5-.3h2.4l-1.4 1.7h.7l.5.2.2.2.2.7v.5l-.2.7-.5.3-.5.2h-.7l-.7-.2-.2-.2-.3-.5" fill="none" stroke="#231f20" stroke-linecap="round" stroke-linejoin="round" stroke-width=".4"/><path d="m433 701.1h-2.2l-.2 1.9.2-.2.7-.2h.7l.7.2.3.3.3.7v.5l-.3.7-.3.3-.7.2h-.7l-.7-.2-.2-.2-.2-.5m5-4.2-.2.2-.2-.2.2-.3.2.3v.3l-.2.5-.2.2m1.8-1-.2.2-.3-.2.3-.3.2.3v.3l-.2.5-.3.2m22.6 7.3h-2.2l-.2 2.1.2-.3.7-.2h.7l.7.2.3.5.2.7v.3l-.2.7-.3.5-.7.2h-.7l-.7-.2-.2-.3-.3-.3m5.8-3.9-.7.3-.5.5-.2 1.2v.7l.2 1 .5.7.7.2h.3l.7-.2.5-.7.2-1v-.7l-.2-1.2-.5-.5-.7-.3zm3.4 4.1-.2.3.2.2.2-.2zm4.6-3.5-.2-.3-.7-.3h-.5l-.7.3-.3.5-.2 1.2v1l.2.9.3.5.7.2h.2l.7-.2.5-.5.2-.7v-.2l-.2-.7-.5-.3-.7-.3h-.2l-.7.3-.3.3-.2.7m5.4-3-.5.3-.5.5-.2 1.2v.7l.2 1 .5.7.5.2h.5l.7-.2.3-.7.3-1v-.7l-.3-1.2-.3-.5-.7-.3zm-93.1 13.2v-4.6l-2.2 3.1h3.3m1.3-2.1v-.2l.2-.3.2-.3.5-.2h.9l.5.2.2.3.2.3v.5l-.2.3-.5.7-2.1 2.2h2.9m20.3-3.7.5-.2.5-.7v4.6m3.7.1 2.2-4.6h-3.1m6.5 4.6v-4.6l-2.2 3.1h3.3m1.1-3.2c-.2 0-.4.2-.4.4s.2.4.4.4.4-.2.4-.4-.2-.4-.4-.4m4.2 4.7v-4.6l-2.2 3.1h3.3m2.1-3.2-.7.2-.2.5v.3l.2.5.5.2.9.2.7.3.3.3.3.5v.7l-.3.3-.2.2-.7.3h-.9l-.7-.3-.2-.2-.2-.3v-.7l.2-.5.5-.3.7-.3.9-.2.3-.2.2-.5v-.3l-.2-.5-.7-.2h-.9m4.2-.7-.2.2-.2-.2.2-.2.2.2v.5l-.2.3-.2.3m2.1.7v-.2l.3-.3.2-.3.5-.2h.9l.3.2.2.3.3.3v.5l-.3.3-.3.7-2.2 2.2h3.1m2.5-4.6-.7.2-.3.7-.2 1v.7l.2 1.2.3.5.7.3h.5l.7-.3.3-.5.3-1.2v-.7l-.3-1-.3-.7-.7-.2zm3.7-.7-.2.2-.3-.2.3-.2.2.2v.5l-.2.3-.3.3m1.9-1.1-.3.2-.2-.2.2-.2.3.2v.5l-.3.3-.2.3m18 7.3h-2.2l-.2 1.9.2-.2.7-.2h.7l.7.2.3.3.2.7v.5l-.2.7-.3.3-.7.2h-.7l-.7-.2-.2-.2-.3-.5m4.6-2.4v-.2l.3-.5.2-.2.3-.2h.9l.5.2.2.2.3.5v.3l-.3.5-.3.7-2.2 2.1h3.1m1.6-.3-.2.2.2.2.2-.2zm2.2-4.2h2.4l-1.4 1.7h.7l.5.2.2.2.2.7v.5l-.2.7-.5.3-.7.2h-.5l-.7-.2-.2-.2-.3-.5m7.2-2-.2.5-.3.5-.7.2h-.3l-.5-.2-.5-.5-.2-.5v-.3l.2-.7.5-.3.5-.2h.3l.7.2.3.3.2 1v1l-.2 1-.3.7-.7.2h-.5l-.7-.2-.2-.3m-92 9.1v-4.6l-2.2 3.1h3.3m1.5-3.2h2.4l-1.4 1.9h.7l.5.2.2.2.2.7v.5l-.2.5-.3.5-.7.2h-.7l-.7-.2-.2-.2-.2-.5m23.3-2.9.5-.2.5-.7v4.6m3.7.1 2.2-4.6h-3.1m6.5 4.6v-4.6l-2.2 3.1h3.3m1.1-3.2c-.2 0-.4.2-.4.4s.2.4.4.4.4-.2.4-.4-.2-.4-.4-.4m3.3 0-.7.3-.3.5-.3 1.2v.7l.3 1 .3.7.7.2h.5l.5-.2.5-.7.2-1v-.7l-.2-1.2-.5-.5-.5-.3zm4.5 0-.7.3-.5.5-.2 1.2v.7l.2 1 .5.7.7.2h.3l.7-.2.3-.7.3-1v-.7l-.3-1.2-.3-.5-.7-.3zm3.6-.5-.2.2-.2-.2.2-.3.2.3v.3l-.2.5-.2.2m2.1.7v-.3l.3-.3.2-.2.5-.3h.9l.3.3.2.2.3.3v.5l-.3.5-.3.5-2.2 2.2h3.1m2.5-4.6-.7.3-.3.5-.2 1.2v.7l.2 1 .3.7.7.2h.5l.7-.2.3-.7.3-1v-.7l-.3-1.2-.3-.5-.7-.3zm3.7-.5-.2.2-.3-.2.3-.3.2.3v.3l-.2.5-.3.2m1.9-1-.3.2-.2-.2.2-.3.3.3v.3l-.3.5-.2.2m18 7.3h-2.2l-.2 1.9.2-.2.7-.2h.7l.7.2.3.5.2.7v.3l-.2.7-.3.5-.7.2h-.7l-.7-.2-.2-.3-.3-.3m5.4-3.8-.5.2-.3.5v.3l.3.5.3.2.9.2.7.3.5.3.2.5v.7l-.2.3-.3.3-.7.2h-.9l-.5-.2-.3-.3-.2-.3v-.7l.2-.5.5-.3.7-.3.9-.2.3-.2.3-.5v-.3l-.3-.5-.7-.2zm4 4.4-.2.2-.2-.2.2-.3.2.3v.3l-.2.5-.2.2m4.8-4.8-.2-.5-.7-.2h-.5l-.7.2-.3.7-.2 1v1.2l.2.9.3.5.7.2h.2l.7-.2.5-.5.2-.7v-.2l-.2-.7-.5-.5-.7-.2h-.2l-.7.2-.3.5-.2.7m5 1.6 2.2-4.6h-3.1m-91.8 13.2v-4.6l-2.2 3.1h3.3m3.2 1.5v-4.6l-2.1 3.1h3.3m20-2.3.5-.2.5-.7v4.6m3.7.1 2.2-4.6h-3.1m4.6 1v-.2l.2-.5.2-.2.5-.2h.9l.3.2.3.2.2.5v.3l-.2.5-.5.7-2.2 2.2h3.1m1.3-4.7c-.2 0-.4.2-.4.4s.2.4.4.4.4-.2.4-.4-.2-.4-.4-.4m4.7.1h-2.2l-.2 1.9.2-.2.7-.2h.7l.5.2.5.5.2.5v.5l-.2.7-.5.3-.5.3h-.7l-.7-.3-.2-.2-.3-.5m6.6 1.2v-4.6l-2.2 3.1h3.3m1.7-3.9-.2.2-.2-.2.2-.2.2.2v.3l-.2.5-.2.2m2.1.8v-.2l.3-.5.2-.2.5-.2h.9l.3.2.2.2.3.5v.3l-.3.5-.3.7-2.2 2.2h3.1m2.3-4.6-.7.2-.2.5v.3l.2.5.5.2.9.2.7.3.3.3.3.5v.5l-.3.5-.2.2-.7.3h-.9l-.7-.3-.2-.2-.2-.5v-.5l.2-.5.3-.3.7-.3.9-.2.5-.2.2-.5v-.3l-.2-.5-.7-.2h-.9m4.1-.7-.2.2-.3-.2.3-.2.2.2v.3l-.2.5-.3.2m1.9-1-.3.2-.2-.2.2-.2.3.2v.3l-.3.5-.2.2m11.3 8.3.5-.3.7-.7v4.6m5.5-3.1-.2.7-.5.5-.7.2h-.2l-.7-.2-.5-.5-.2-.7v-.2l.2-.7.5-.3.7-.3h.2l.7.3.5.3.2.9v1.2l-.2 1-.5.7-.7.2h-.3l-.7-.2-.3-.5m5.1.7 2.2-4.6h-3.1m4.8 4.3-.2.2.2.2.2-.2zm2.4-3.3.3-.3.7-.7v4.6m4.9-0v-4.6l-2.1 3.1h3.3m-95 10.1v-4.6l-2.2 3.1h3.3m3.7-3.2h-2.2l-.2 2.1.2-.3.7-.2h.7l.7.2.3.5.2.7v.3l-.2.7-.3.5-.7.2h-.7l-.7-.2-.2-.3-.2-.3m23.3-3 .5-.2.5-.7v4.6m3.5-3.7.3-.2.7-.7v4.6m5.5-3.9-.2-.5-.7-.2h-.5l-.7.2-.3.7-.2 1.2v1l.2.9.3.5.7.2h.3l.5-.2.5-.5.2-.7v-.2l-.2-.7-.5-.3-.5-.3h-.3l-.7.3-.3.3-.2.7m4.1-3.1c-.2 0-.4.2-.4.4s.2.4.4.4.4-.2.4-.4-.2-.4-.4-.4m2.3 1.2v-.3l.2-.3.2-.3.5-.2h.9l.3.2.3.3.2.3v.5l-.2.3-.5.7-2.2 2.2h3.1m1.6-4.6h2.4l-1.2 1.7h.7l.3.3.2.2.3.7v.3l-.3.7-.3.5-.7.2h-.7l-.7-.2-.2-.3-.2-.3m5.1-4.4-.2.3-.2-.3.2-.2.2.2v.5l-.2.3-.2.3m4.1 4.2v-4.6l-2.2 3.1h3.3m2.2-3.2-.7.2-.2.5v.5l.2.3.5.2.9.3.7.2.3.3.3.5v.7l-.3.3-.2.3-.7.2h-.9l-.7-.2-.2-.3-.2-.3v-.7l.2-.5.3-.3.7-.2.9-.3.5-.2.2-.3v-.5l-.2-.5-.7-.2h-.9m4.1-.6-.2.3-.3-.3.3-.2.2.2v.5l-.2.3-.3.3m1.9-1.1-.3.3-.2-.3.2-.2.3.2v.5l-.3.3-.2.3m11 8.3v-.2l.2-.5.2-.2.5-.2h.9l.5.2.2.2.2.5v.3l-.2.5-.5.7-2.1 2.2h3.1m3.8-4.5h-2.2l-.3 1.9.3-.2.7-.2h.5l.7.2.5.5.2.5v.5l-.2.7-.5.3-.7.3h-.5l-.7-.3-.3-.2-.2-.5m5.6-3.5-.5.2-.5.7-.2 1v.7l.2 1 .5.7.5.3h.5l.7-.3.3-.7.3-1v-.7l-.3-1-.3-.7-.7-.2zm5.9 0h-2.2l-.2 1.9.2-.2.7-.2h.5l.7.2.5.5.2.5v.5l-.2.7-.5.3-.7.3h-.5l-.7-.3-.2-.2-.3-.5m5.1.7-.3.3-.2-.3.2-.2.3.2v.5l-.3.3-.2.3m2.9-.7 2.1-4.6h-2.9m5.6 0-.7.2-.5.7-.2 1v.7l.2 1 .5.7.7.3h.3l.7-.3.5-.7.2-1v-.7l-.2-1-.5-.7-.7-.2zm-99.6 8.5.5-.3.5-.7v4.6m-10.8-22.3h116.7m-116.7 8.1h116.7m-116.7 8.2h116.7m-116.7 8.1h116.7" fill="none" stroke="#231f20" stroke-linecap="round" stroke-linejoin="round" stroke-width=".4"/><path d="m410.5 523.5h-.5c-.1.3-.4.5-.7.8s-.7.5-1.1.7v.7c.2 0 .5-.2.8-.4s.5-.3.7-.5v4.8s.7 0 .7 0v-6.2zm2.5 5.7c.3.4.8.6 1.4.6.4 0 .8-.1 1.1-.4.3-.2.5-.6.7-1 .1-.4.2-1 .2-1.7 0-.6 0-1.1-.1-1.5 0-.4-.2-.7-.4-.9-.2-.3-.4-.4-.6-.6-.2-.1-.5-.2-.9-.2s-.8.1-1.1.4c-.3.2-.5.6-.7 1s-.2 1-.2 1.8c0 1.2.2 2 .6 2.5zm.6-4.6c.2-.3.5-.4.8-.4.4 0 .6.2.9.5.2.3.3 1 .3 2s-.1 1.7-.4 2c-.2.3-.5.5-.9.5-.3 0-.6-.2-.9-.5-.2-.3-.3-1-.3-2s.1-1.7.4-2.1zm8.2 3.3v-.8s-2.3 0-2.3 0v.8s2.3 0 2.3 0zm4.1 1.8v-5.2s1.8 5.2 1.8 5.2h.7s1.8-5.1 1.8-5.1v5.1s.8 0 .8 0v-6.1s-1.1 0-1.1 0l-1.5 4.3c-.1.4-.3.8-.3 1 0-.2-.2-.5-.3-.9l-1.4-4.3h-1.2s0 6.1 0 6.1h.8zm9.8.1v-.6s-2.1 0-2.1 0c-.3 0-.6 0-1 0l.5-.5 2.4-2.8v-.5s-3.6 0-3.6 0v.6s1.8 0 1.8 0h.8l-2.8 3.2v.6s3.9 0 3.9 0zm5.8-6.2h-.5c-.1.3-.4.5-.7.8s-.7.5-1.1.7v.7c.2 0 .5-.2.8-.4s.5-.3.7-.5v4.8s.7 0 .7 0v-6.2zm5.3.5c-.3-.3-.7-.4-1.2-.4-.6 0-1.2.2-1.5.7-.4.5-.7 1.4-.7 2.6 0 1.1.2 1.8.6 2.3s.9.7 1.5.7c.4 0 .7 0 1-.3s.5-.4.7-.8c.2-.3.3-.7.3-1.1 0-.6-.2-1.1-.5-1.4-.4-.4-.8-.6-1.3-.6-.3 0-.6 0-.8.2-.3.1-.5.3-.7.6 0-.6 0-1.1.2-1.4.1-.3.3-.6.6-.8.2-.1.4-.2.6-.2.3 0 .5.1.8.3.1.1.2.3.3.6h.7c0-.5-.2-.9-.6-1.2zm-2.2 2.8c.2-.2.5-.4.9-.4.3 0 .6.1.9.4.2.2.3.6.3 1s-.1.8-.3 1c-.2.3-.5.4-.8.4-.2 0-.4 0-.6-.2-.2-.1-.4-.3-.5-.5s-.2-.5-.2-.7c0-.4.1-.7.4-1z"/><path d="m451 523.7h-.5c-.1.3-.4.5-.7.8s-.7.5-1.1.7v.7c.2 0 .5-.2.8-.4s.5-.3.7-.5v4.8s.7 0 .7 0v-6.2z"/><path d="m383.3 536.7.7-.2v.7h.2v.2.2h.1l.2.1h.2.1l.2.2h.2.2.1.2.2v-.2h.1.2l.2-.1h.2v-.2h.1v-.2l.2-.2v-.1-.2-.2h-.2v-.1h-.1v-.2h-.2-.2l-.2-.2h-.1-.2-.2v-.2h-.1-.2-.2l-.2-.1h-.1-.2v-.2h-.2l-.1-.2-.2-.1v-.2-.2h-.2v-.2-.1h.2v-.2-.2-.1h.2v-.2-.2h.1v-.2h.2l.2-.1h.1v-.2h.2.2l.2-.2h.1.2.2.1.2.2.2.1.2v.2h.2.1v.2h.2l.2.1v.2h.2v.2.2.1.2.2l-.7.1v-.1-.2-.2-.1h-.2v-.2h-.2v-.2h-.1-.2-.2-.2-.1-.2-.2-.1-.2v.2h-.2l-.2.2-.1.1v.2.2.1.2h.1v.2h.2.2v.2h.2.1.2l.2.1h.1.2.2l.2.2h.1.2v.2h.2l.1.1h.2v.2.2h.2v.2.1.2.2.1l-.2.2v.2l-.2.2v.1h-.1v.2h-.2v.2h-.2l-.1.1h-.2-.2v.2h-.2-.1-.2-.2l-.1.2h-.2-.2v-.2h-.2-.1-.2-.2-.1v-.2h-.2-.2v-.1h-.2v-.2h-.1v-.2-.1h-.2v-.2-.2-.2-.1z"/><path d="m390.7 538.4.1-.5h-.1v.2h-.2v.1h-.2l-.1.2h-.2-.2l-.2.2h-.1-.2v-.2h-.2-.1-.2v-.2h-.2v-.1h-.2v-.2-.2-.1-.2-.2-.2-.1l.4-2.4h.7l-.4 2.2v.2.1.2.2.2.1h.2v.2h.2.1.2.2.2.1v-.2h.2v-.1h.2v-.2h.1v-.2-.2l.2-.1v-.2-.2l.4-2h.6l-.6 3.9z"/><path d="m392 540 1-5.5h.7l-.2.5h.2v-.2h.2v-.2h.2l.2-.2h1.2v.2h.2v.2h.2l.2.2v.2l.2.2v1.4h-.2v.5h-.2v.3h-.2v.2h-.2v.2h-.2v.2h-.2v.2h-.2l-.2.2h-.3l-.2.2h-.5v-.2h-.3v-.2h-.2v-.2h-.2l-.3 1.9h-.7zm1.2-3.5v.9h.2v.3h.2v.2h1l.2-.2h.2v-.2l.2-.2v-.2h.2v-.3l.2-.2v-1.2l-.2-.2v-.2h-.2v-.2h-.9v.2h-.3v.2h-.2v.2l-.2.2v.2l-.2.2v.5z"/><path d="m396.8 538.4v-.7h.9l-.2.7z"/><path d="m399.4 535.3.2-.9h.7l-.2.9zm-.5 3.1.2-.7h.7l-.2.7z"/><path d="m405.2 538.4h-.6l.6-4.1h-.1v.2h-.2l-.2.1h-.1v.2h-.2-.2l-.2.2h-.1v-.5l.1-.2h.2.2v-.2h.2l.1-.1h.2v-.2h.2l.1-.2.2-.2.2-.1.2-.2h.3z"/><path d="m407.1 537h.7v.4h.2v.2.1h.2v.2h.1l.2.2h.2.1.2v-.2h.2.2v-.2h.1l.2-.1v-.2h.2v-.2l.1-.2v-.1-.2-.2-.1-.2-.2-.2h-.1v-.1h-.2v-.2h-.2-.1-.2-.2-.2-.1v.2h-.2-.2v.1h-.1v.2l-.7-.2 1-2.7h2.7l-.1.7h-2.3l-.5 1.4h.2.2v-.2h.1.2.2.2.1.2.2.1l.2.2h.2v.1h.2v.2h.1v.2.1.2h.2v.2.2.1h-.2v.2.2.1.2h-.1v.2l-.2.2v.1h-.2v.2h-.2v.2h-.1v.1h-.2l-.2.2h-.1-.2v.2h-.2-.2-.1-.2-.2-.1l-.2-.2h-.2-.2v-.2h-.1v-.1h-.2v-.2-.2h-.2v-.1-.2-.2z"/><path d="m413.6 538.4h-.6l.6-4.1-.1.2h-.2v.1h-.2-.1v.2h-.2-.2v.2h-.2-.1v-.5h.1v-.2h.2.2v-.2h.2l.1-.1h.2v-.2h.2l.1-.2.2-.2.2-.1.2-.2h.3z"/><path d="m417.8 538.6.8-5.5h.7l-.3 2.2h2.7l.5-2.2h.7l-1 5.5h-.7l.5-2.6h-2.9l-.4 2.6z"/><path d="m425.6 538.1h-.2v.2h-.2v.2h-.3l-.2.2h-1.2l-.2-.2h-.2v-.2h-.2v-.3h-.2v-.3l.2-.2v-.3h.2v-.2l.2-.2h.2v-.2h.3v-.2h.9v-.2h1v-.2h.2v-.7h-.2v-.2h-1.4v.2h-.2v.2h-.2v.3l-.7-.2v-.2h.2v-.2l.2-.2v-.2h.2l.2-.2h.2v-.2h.7v-.2h.9v.2h.5v.2h.2l.2.2v1l-.2.9v.5h-.2v1.2h-.7v-.5zm.2-1.6-.2.2h-.7v.2h-.9v.2h-.2v.2h-.2v.7h.2v.2h1v-.2h.3v-.2h.2v-.2h.2v-.3h.2v-.7"/><path d="m431.6 537.4.5-.2v.3h.2v.3h.2v.2h.9l.2-.2h.2v-.2h.2v-.2h.2v-.2l.2-.2v-.2h.2v-.5h.2v-.5.2h-.2l-.2.2h-.2v.2h-.2l-.2.2h-1l-.2-.2h-.2v-.2h-.2v-.2h-.2v-.3h-.2v-1h.2v-.3l.2-.2v-.2l.2-.2v-.2h.2v-.2h.2v-.2h.3v-.2h.3l.2-.2h.7l.2.2h.3v.2h.2v.2h.2v.2h.2v.3h.2v1.4l-.2.2v.7h-.2v.5h-.2v.3l-.2.2v.2h-.2v.3h-.2v.2h-.2v.2h-.3v.2h-.2l-.2.2h-1.4v-.2h-.2l-.2-.2v-.2h-.2v-.5l-.2-.2h.2zm3.1-2.4v-.9h-.2v-.2l-.2-.2h-.3v-.2h-.3v.2h-.3l-.2.2h-.2v.2h-.2v.3h-.2v.3l-.2.2v.5l.2.2v.2h.2v.2h.3v.2h.5v-.2h.3l.2-.2h.2v-.2l.2-.2v-.2l.2-.2v-.2"/><path d="m435.8 538.6.1-.9h.7v.9z"/><path d="m440 538.6h-.6l.8-4.3-.2.2h-.1v.1h-.2-.2v.2h-.1-.2v.2h-.2-.2v.2h-.1l.1-.7h.2v-.2h.2.2v-.2h.1l.2-.1h.2v-.2h.1v-.2h.2v-.2h.2v-.1h.2v-.2h.5z"/><path d="m442.3 535.8v-.5l.2-.2v-.3l.2-.2v-.3h.2v-.2l.2-.2.2-.2.2-.2.2-.2h.2v-.2h.5v-.2h.5l.2.2h.3v.2h.2l.2.2v.2h.2v.5h.2v1.2l-.2.2v.9h-.2v.5h-.2v.3h-.2v.3h-.2v.2l-.2.2-.2.2-.2.2h-.2v.2h-.7v.2h-.2l-.2-.2h-.5v-.2h-.3v-.3h-.2v-.3h-.2v-1.5l.2-.2v-.2zm.7 0v.2l-.2.2v1.4l.2.2v.2h.2v.2h.9l.2-.2h.2v-.2h.2v-.2l.2-.2v-.3h.2v-.5h.2v-.9h.2v-1.4l-.2-.2v-.2h-.2v-.2h-1v.2h-.2v.2h-.2v.2h-.2v.3l-.2.2v.3l-.2.2v.5"/><path d="m446.2 537.2.7-.2v.6l.2.1v.2h.1v.2h.2.2.2.1.2.2l.1-.2h.2v-.2h.2v-.1h.2v-.2-.2h.1v-.2-.1-.2-.2-.1-.2-.2h-.1v-.2h-.2v-.1h-.2-.2-.1-.2-.2-.1-.2v.1h-.2-.2v.2h-.1v.2l-.5-.2 1-2.7h2.6v.7h-2.3l-.5 1.3h.2v-.1h.2.1l.2-.2h.2.1.2.2l.2.2h.1.2v.1h.2v.2h.1v.2h.2v.1.2.2.2.1.2.2.1.2h-.2v.2.2h-.1v.1l-.2.2-.2.2-.1.1-.2.2h-.2l-.2.2h-.1-.2-.2v.2h-.1-.2-.2v-.2h-.2-.1-.2l-.2-.2h-.1v-.2h-.2v-.1-.2h-.2v-.2-.1-.2z"/><path d="m452.4 538.6.7-4h.7l-.2.7v-.1h.2v-.2h.1l.2-.2h.2v-.2h.1.2.2.2.1.2.2v.2h.1l.2.2v.2.1l.2-.1h.2v-.2h.1v-.2h.2.2v-.2h.1.2.2.2.1.2l.2.2h.1v.2h.2v.2.1.2.2.1.2l-.5 2.6h-.7l.5-2.4v-.2-.2-.1-.2-.2h-.1-.2v-.1h-.2-.2-.1v.1h-.2-.2v.2h-.1v.2h-.2v.1.2h-.2v.2.2l-.3 2.2h-.7l.3-2.6.2-.2v-.1l-.2-.2v-.2h-.1v-.1h-.2-.2-.2l-.1.1h-.2l-.2.2-.1.2v.1h-.2v.2.2.2h-.2v.1l-.3 2.1z"/><path d="m458.7 536v-.2h.2v-.1l.2-.2.1-.2.2-.1.2-.2h.2l.1-.2h.2v-.2h.2l.1-.1h.2v-.2h.2v-.2-.1-.2-.2h-.2-.2-.1-.2l-.2.2-.1.2h-.6v-.2h.2v-.2l.2-.2.2-.1h.1.2l.2-.2h.1.2.2v.2h.2.1l.2.1.2.2v.2.2.1h-.2v.2l-.2.2-.1.1-.2.2h-.2l-.2.2h-.1v.2h-.2v.1h-.2l-.1.2h1.3v.5z"/><path d="m392.4 529.5v-.7h-3v-5.4h-.8v6.1zm1.2-.5c.4.4.9.6 1.5.6s.7 0 1.1-.3c.3-.2.6-.4.7-.8.2-.3.3-.8.3-1.3s-.2-1.3-.6-1.7-.9-.6-1.5-.6-1 .2-1.4.5c-.5.4-.7 1-.7 1.8s.2 1.3.6 1.7zm.5-3c.2-.3.6-.4.9-.4s.7.1.9.4.4.7.4 1.2-.1 1-.4 1.3c-.2.3-.6.4-.9.4s-.7-.1-.9-.4-.4-.7-.4-1.3.1-1 .4-1.3zm5.2 2.9c-.1 0-.2 0-.3 0 0 0-.1 0-.1-.1 0 0 0-.2 0-.4v-2.6h.8v-.6h-.8v-1.6l-.7.5v1.1h-.6v.6h.6v2.6.9c0 .1.2.3.3.3s.4.1.6.1.4 0 .6 0v-.7c-.2 0-.4 0-.4 0zm3.7-.1c-.2.1-.4.2-.7.2s-.7-.1-.9-.4-.4-.6-.4-1.1h3.3v-.2c0-.7-.2-1.3-.6-1.7s-.9-.6-1.5-.6-1.1.2-1.5.6-.6 1-.6 1.7.2 1.3.6 1.7.9.6 1.5.6.9-.1 1.3-.4c.3-.3.6-.6.7-1.1h-.8c-.1.2-.3.5-.5.6zm-1.6-2.9c.2-.2.5-.3.9-.3s.7.1.9.4c.2.2.3.5.3.8h-2.5c0-.4.2-.7.4-.9z"/><g fill="none" stroke="#231f20" stroke-linecap="round" stroke-linejoin="round"><path d="m449.2 113.7v-78.5"/><path d="m445 144.7v-112.3" stroke-width="1.1"/><path d="m422.5 113.7h45"/></g><path d="m451.8 25.7h.5v-10.7c0-.7 0-1.2.1-1.5 0-.3.2-.6.4-.8.4-.4.9-.6 1.6-.6v-.2h-4.7v.2c.4 0 .7 0 .9.2.2 0 .5.2.6.4.2.2.4.5.4.8s.1.9.1 1.6v7.4l-8.3-10.6h-3.9v.2c.4 0 .7 0 1 .2.2 0 .5.2.6.4.2.2.4.5.4.8s.1.8.1 1.5v7.5c0 .7 0 1.2-.1 1.5 0 .3-.2.6-.4.8s-.4.3-.6.4c-.2 0-.6.1-.9.2v.2h4.7v-.2c-.4 0-.7 0-.9-.2-.2 0-.5-.2-.6-.4-.2-.2-.4-.5-.4-.8s-.1-.9-.1-1.6v-8.9l9.6 12.1z"/></svg>