<svg width="1200" height="800" xmlns="http://www.w3.org/2000/svg">
  <defs>
    <linearGradient id="grad2" x1="0%" y1="0%" x2="100%" y2="100%">
      <stop offset="0%" style="stop-color:#5A6B5D;stop-opacity:1" />
      <stop offset="100%" style="stop-color:#3E4E41;stop-opacity:1" />
    </linearGradient>
  </defs>
  <rect width="1200" height="800" fill="url(#grad2)"/>
  
  <!-- Grid de lotes simulado -->
  <rect x="100" y="100" width="200" height="150" fill="#B89968" opacity="0.4" stroke="#8B7355" stroke-width="3"/>
  <rect x="320" y="100" width="180" height="150" fill="#B89968" opacity="0.5" stroke="#8B7355" stroke-width="3"/>
  <rect x="520" y="100" width="220" height="150" fill="#B89968" opacity="0.3" stroke="#8B7355" stroke-width="3"/>
  <rect x="760" y="100" width="200" height="150" fill="#B89968" opacity="0.6" stroke="#8B7355" stroke-width="3"/>
  
  <rect x="100" y="270" width="240" height="180" fill="#B89968" opacity="0.5" stroke="#8B7355" stroke-width="3"/>
  <rect x="360" y="270" width="200" height="180" fill="#B89968" opacity="0.4" stroke="#8B7355" stroke-width="3"/>
  <rect x="580" y="270" width="250" height="180" fill="#B89968" opacity="0.45" stroke="#8B7355" stroke-width="3"/>
  <rect x="850" y="270" width="230" height="180" fill="#B89968" opacity="0.35" stroke="#8B7355" stroke-width="3"/>
  
  <rect x="100" y="470" width="300" height="200" fill="#B89968" opacity="0.5" stroke="#8B7355" stroke-width="3"/>
  <rect x="420" y="470" width="280" height="200" fill="#B89968" opacity="0.4" stroke="#8B7355" stroke-width="3"/>
  <rect x="720" y="470" width="360" height="200" fill="#B89968" opacity="0.55" stroke="#8B7355" stroke-width="3"/>
  
  <!-- Labels de lotes -->
  <text x="200" y="180" font-family="Arial, sans-serif" font-size="18" fill="white" font-weight="bold">Lote 1</text>
  <text x="410" y="180" font-family="Arial, sans-serif" font-size="18" fill="white" font-weight="bold">Lote 2</text>
  <text x="630" y="180" font-family="Arial, sans-serif" font-size="18" fill="white" font-weight="bold">Lote 3</text>
  <text x="860" y="180" font-family="Arial, sans-serif" font-size="18" fill="white" font-weight="bold">Lote 4</text>
  <text x="220" y="365" font-family="Arial, sans-serif" font-size="18" fill="white" font-weight="bold">Lote 5</text>
  
  <text x="600" y="380" font-family="Arial, sans-serif" font-size="48" fill="white" text-anchor="middle" font-weight="bold">PLANO DE LOTES</text>
  <text x="600" y="430" font-family="Arial, sans-serif" font-size="24" fill="white" text-anchor="middle" opacity="0.9">(Mockup temporal - Después)</text>
</svg>
